<?xml version="1.0" encoding="UTF-8" standalone="no"?>
<!DOCTYPE svg PUBLIC "-//W3C//DTD SVG 1.1//EN" "http://www.w3.org/Graphics/SVG/1.1/DTD/svg11.dtd">
<svg version="1.1" xmlns="http://www.w3.org/2000/svg" xmlns:xlink="http://www.w3.org/1999/xlink" preserveAspectRatio="xMidYMid meet" viewBox="0 0 400 400" width="400" height="400"><defs><path d="M85.83 354.99L85.24 355.88L84.63 356.74L83.98 357.56L83.31 358.35L82.61 359.11L81.88 359.84L81.13 360.54L80.35 361.2L79.55 361.82L78.73 362.42L77.89 362.98L77.04 363.5L76.16 364L75.27 364.45L74.36 364.87L73.44 365.26L72.5 365.61L71.55 365.92L70.59 366.2L69.62 366.44L68.64 366.64L67.66 366.81L66.67 366.93L65.67 367.02L64.67 367.08L63.66 367.09L62.66 367.06L61.65 367L60.64 366.89L59.64 366.75L58.64 366.56L57.64 366.34L56.64 366.07L55.66 365.76L54.68 365.41L53.71 365.02L52.74 364.59L52.5 364.47L52.32 364.35L51.5 363.75L50.7 363.13L49.94 362.48L49.21 361.81L48.51 361.11L47.84 360.38L47.2 359.64L46.6 358.87L46.03 358.08L45.49 357.27L44.98 356.44L44.51 355.6L44.07 354.74L43.66 353.86L43.29 352.98L42.96 352.07L42.65 351.16L42.39 350.24L42.16 349.3L41.96 348.36L41.8 347.41L41.68 346.46L41.59 345.5L41.54 344.53L41.53 343.57L41.56 342.6L41.62 341.63L41.72 340.66L41.86 339.69L42.04 338.73L42.25 337.76L42.51 336.81L42.81 335.86L43.14 334.91L43.52 333.98L43.93 333.05L44.39 332.14L44.89 331.23L55.67 312.55L110.35 312.55L86.38 354.08L85.83 354.99ZM52.5 364.47L53.17 364.91L54.06 365.45L50.85 363.6L51.79 364.11L52.5 364.47ZM240.49 21.97L241.49 22.08L242.49 22.22L243.48 22.4L244.48 22.63L245.46 22.89L246.44 23.2L247.42 23.54L248.38 23.93L249.34 24.36L249.58 24.48L249.78 24.62L250.61 25.21L251.41 25.84L252.17 26.49L252.91 27.17L253.61 27.88L254.29 28.61L254.93 29.36L255.54 30.13L256.11 30.92L256.65 31.74L257.16 32.57L257.64 33.42L258.08 34.28L258.49 35.16L258.86 36.06L259.2 36.96L259.5 37.88L259.77 38.81L260 39.75L260.2 40.7L260.36 41.65L260.48 42.61L260.57 43.58L260.62 44.55L260.63 45.52L260.61 46.49L260.55 47.47L260.44 48.45L260.3 49.42L260.12 50.39L259.91 51.36L259.65 52.32L259.35 53.28L259.01 54.22L258.64 55.17L258.22 56.1L257.76 57.02L257.26 57.93L119.09 297.38L64.42 297.38L215.92 34.81L216.47 33.89L217.05 33.01L217.67 32.16L218.31 31.34L218.98 30.56L219.68 29.8L220.4 29.08L221.14 28.39L221.91 27.73L222.71 27.11L223.52 26.52L224.35 25.96L225.21 25.44L226.08 24.95L226.96 24.5L227.87 24.08L228.78 23.7L229.71 23.35L230.66 23.04L231.61 22.76L232.57 22.53L233.54 22.32L234.52 22.16L235.51 22.03L236.5 21.94L237.49 21.89L238.49 21.88L239.49 21.91L240.49 21.97ZM250.28 24.83L249.58 24.48L248.92 24.05L248.03 23.51L251.22 25.35L250.28 24.83Z" id="a123nMJ3Uw"></path><path d="M358.79 250.02L359.74 250.08L360.69 250.17L361.62 250.3L362.55 250.47L363.46 250.68L364.35 250.92L365.23 251.19L366.1 251.5L366.95 251.84L367.78 252.21L368.6 252.61L369.39 253.05L370.17 253.51L370.93 254L371.67 254.52L372.38 255.07L373.08 255.64L373.75 256.24L374.4 256.87L375.02 257.51L375.62 258.19L376.2 258.88L376.74 259.6L377.26 260.34L377.75 261.09L378.22 261.87L378.65 262.67L379.05 263.48L379.42 264.32L379.76 265.17L380.07 266.03L380.35 266.91L380.59 267.81L380.79 268.72L380.96 269.64L381.09 270.58L381.19 271.52L381.25 272.48L381.27 273.44L381.27 274.01L381.25 274.98L381.19 275.93L381.09 276.87L380.96 277.8L380.79 278.72L380.59 279.63L380.35 280.52L380.08 281.4L379.77 282.26L379.43 283.11L379.06 283.94L378.66 284.75L378.23 285.55L377.77 286.32L377.28 287.08L376.76 287.81L376.21 288.53L375.64 289.22L375.05 289.89L374.42 290.54L373.78 291.16L373.11 291.76L372.41 292.33L371.7 292.87L370.97 293.39L370.21 293.88L369.43 294.34L368.64 294.77L367.83 295.17L367 295.54L366.15 295.88L365.29 296.19L364.41 296.46L363.52 296.7L362.61 296.91L361.69 297.07L360.76 297.21L359.82 297.3L358.86 297.36L357.9 297.38L283.88 297.38L256.53 250L357.82 250L358.79 250.02ZM266.38 297.38L44.86 297.38L43.86 297.36L42.88 297.3L41.91 297.2L40.94 297.06L40 296.89L39.06 296.68L38.14 296.43L37.23 296.15L36.34 295.83L35.47 295.48L34.61 295.1L33.77 294.69L32.95 294.24L32.15 293.77L31.37 293.26L30.61 292.72L29.87 292.16L29.16 291.57L28.47 290.96L27.8 290.31L27.16 289.65L26.54 288.96L25.95 288.24L25.39 287.5L24.85 286.74L24.35 285.96L23.87 285.16L23.43 284.34L23.01 283.5L22.63 282.65L22.28 281.77L21.96 280.88L21.68 279.97L21.43 279.05L21.22 278.12L21.05 277.17L20.91 276.21L20.81 275.23L20.75 274.25L20.75 274.02L20.75 273.76L20.82 272.75L20.92 271.75L21.06 270.76L21.24 269.79L21.45 268.83L21.71 267.88L22 266.95L22.32 266.03L22.68 265.13L23.07 264.25L23.5 263.39L23.96 262.55L24.45 261.73L24.97 260.92L25.51 260.14L26.09 259.39L26.7 258.65L27.33 257.94L27.99 257.26L28.68 256.6L29.39 255.96L30.12 255.36L30.88 254.78L31.66 254.23L32.46 253.71L33.28 253.22L34.13 252.76L34.99 252.34L35.87 251.94L36.77 251.59L37.68 251.26L38.61 250.97L39.56 250.72L40.52 250.5L41.5 250.32L42.48 250.18L43.48 250.08L44.5 250.02L45.52 250L239.04 250L266.38 297.38ZM20.73 274.78L20.73 273.26L20.75 274.02L20.73 274.78Z" id="a3QnqYXfx"></path><path d="M358.75 332.17L359.22 333.12L359.65 334.08L360.04 335.05L360.39 336.02L360.7 337.01L360.96 338L361.19 338.99L361.37 339.99L361.51 340.99L361.62 342L361.68 343L361.71 344L361.7 345.01L361.65 346L361.56 347L361.43 347.99L361.26 348.97L361.06 349.94L360.82 350.91L360.55 351.87L360.23 352.81L359.89 353.75L359.5 354.67L359.08 355.57L358.63 356.46L358.14 357.33L357.61 358.19L357.06 359.03L356.46 359.84L355.84 360.64L355.18 361.41L354.49 362.16L353.76 362.89L353 363.59L352.22 364.26L351.39 364.9L350.54 365.52L350.23 365.73L349.94 365.87L349.02 366.28L348.09 366.66L347.15 366.99L346.21 367.29L345.26 367.54L344.3 367.76L343.34 367.93L342.38 368.07L341.42 368.17L340.45 368.24L339.49 368.26L338.53 368.25L337.57 368.2L336.61 368.11L335.66 367.99L334.72 367.83L333.78 367.64L332.85 367.41L331.94 367.14L331.03 366.84L330.13 366.51L329.25 366.14L328.38 365.74L327.52 365.3L326.68 364.83L325.86 364.33L325.06 363.79L324.27 363.22L323.51 362.62L322.77 361.99L322.05 361.32L321.35 360.63L320.68 359.9L320.03 359.14L319.42 358.35L318.83 357.53L318.26 356.68L317.73 355.8L210.28 169.57L237.62 122.18L358.24 331.23L358.75 332.17ZM349.66 366.1L350.23 365.73L350.85 365.41L351.75 364.92L348.74 366.66L349.66 366.1ZM169.07 25.7L170.04 25.79L171.01 25.91L171.96 26.07L172.91 26.27L173.86 26.5L174.79 26.77L175.71 27.08L176.62 27.42L177.52 27.79L178.4 28.2L179.27 28.64L180.12 29.12L180.96 29.63L181.77 30.18L182.57 30.76L183.35 31.37L184.1 32.01L184.83 32.68L185.54 33.39L186.22 34.13L186.87 34.9L187.5 35.7L188.1 36.53L188.67 37.4L189.21 38.29L228.87 107.02L201.53 154.4L148.28 62.12L147.78 61.2L147.31 60.27L146.89 59.33L146.51 58.38L146.17 57.42L145.87 56.45L145.61 55.48L145.39 54.5L145.2 53.52L145.06 52.53L144.96 51.55L144.9 50.56L144.87 49.58L144.88 48.6L144.93 47.62L145.02 46.64L145.15 45.67L145.31 44.7L145.51 43.75L145.74 42.8L146.01 41.86L146.32 40.93L146.66 40.01L147.04 39.11L147.45 38.22L147.9 37.35L148.38 36.49L148.89 35.65L149.44 34.83L150.02 34.03L150.64 33.24L151.28 32.49L151.96 31.75L152.68 31.04L153.42 30.35L154.19 29.69L155 29.06L155.84 28.45L156.16 28.24L156.51 28.07L157.44 27.65L158.38 27.27L159.34 26.93L160.3 26.63L161.26 26.37L162.23 26.15L163.21 25.97L164.19 25.83L165.16 25.73L166.14 25.66L167.12 25.64L168.1 25.65L169.07 25.7ZM156.16 28.24L155.58 28.53L154.67 29.03L157.6 27.34L156.71 27.88L156.16 28.24Z" id="jeJakVdKh"></path></defs><g><g><g><use xlink:href="#a123nMJ3Uw" opacity="1" fill="#ffffff" fill-opacity="1"></use></g><g><use xlink:href="#a3QnqYXfx" opacity="1" fill="#ffffff" fill-opacity="1"></use></g><g><use xlink:href="#jeJakVdKh" opacity="1" fill="#ffffff" fill-opacity="1"></use></g></g></g></svg>