<?xml version="1.0" encoding="UTF-8" standalone="no"?>
<!DOCTYPE svg PUBLIC "-//W3C//DTD SVG 1.1//EN" "http://www.w3.org/Graphics/SVG/1.1/DTD/svg11.dtd">
<svg version="1.1" xmlns="http://www.w3.org/2000/svg" xmlns:xlink="http://www.w3.org/1999/xlink" preserveAspectRatio="xMidYMid meet" viewBox="0 0 400 400" width="400" height="400"><defs><path d="M136.17 109.75C125.8 118.82 119.16 137.13 116.24 164.67C115.27 192.14 113.33 211.74 110.41 223.47C107.5 235.2 100.69 249.13 90 265.26L90 285.67L310 285.67L310 265.26C299.63 254.9 292.67 240.96 289.1 223.47C285.54 205.97 283.43 186.37 282.79 164.67C279.55 137.78 273.07 119.47 263.35 109.75C253.63 100.03 238.72 91.28 218.64 83.51L218.64 63.1C218.54 62.85 218.48 62.69 218.46 62.63C211.73 44.9 186.54 45.21 180.25 63.1C180.25 63.1 180.25 63.1 180.25 63.1L180.25 83.51C161.23 91.93 146.53 100.68 136.17 109.75Z" id="cuj9bjB30"></path><path d="M173.88 324.64C174.82 326.48 175.41 327.64 175.65 328.1C185.47 347.32 213.14 346.73 222.14 327.11C222.29 326.78 222.67 325.96 223.27 324.64L223.27 305.61L173.88 305.61L173.88 324.64Z" id="d1h3jMTcrN"></path></defs><g><g><g><use xlink:href="#cuj9bjB30" opacity="1" fill="#ffffff" fill-opacity="1"></use><g><use xlink:href="#cuj9bjB30" opacity="1" fill-opacity="0" stroke="#000000" stroke-width="1" stroke-opacity="1"></use></g></g><g><use xlink:href="#d1h3jMTcrN" opacity="1" fill="#ffffff" fill-opacity="1"></use><g><use xlink:href="#d1h3jMTcrN" opacity="1" fill-opacity="0" stroke="#000000" stroke-width="1" stroke-opacity="1"></use></g></g></g></g></svg>