<?xml version="1.0" encoding="UTF-8" standalone="no"?>
<!DOCTYPE svg PUBLIC "-//W3C//DTD SVG 1.1//EN" "http://www.w3.org/Graphics/SVG/1.1/DTD/svg11.dtd">
<svg version="1.1" xmlns="http://www.w3.org/2000/svg" xmlns:xlink="http://www.w3.org/1999/xlink" preserveAspectRatio="xMidYMid meet" viewBox="0 0 400 400" width="400" height="400"><defs><path d="M119.17 106.03C118.06 105.45 117.37 105.1 117.1 104.95C103.02 97.67 87.58 112.05 93.84 126.61C93.94 126.85 94.2 127.44 94.61 128.39L174.88 200.29L94.61 272.19C94.06 273.33 93.72 274.03 93.59 274.32C86.78 288.49 100.47 303.83 115.32 298.67C115.86 298.48 117.2 298.02 119.34 297.27L182.73 238.5C182.73 302.69 182.73 342.81 182.73 358.86C182.73 373.16 199.62 380.75 210.31 371.25C231.14 352.76 277.91 311.22 301.71 290.09C308.49 284.07 308.48 273.48 301.69 267.47C291.57 258.52 266.27 236.12 225.8 200.29C267.55 162.9 293.64 139.52 304.08 130.18C309.61 125.23 309.58 116.57 304.03 111.66C279.77 90.19 231.24 47.24 210.43 28.82C199.68 19.31 182.73 26.94 182.73 41.3C182.73 57.32 182.73 97.38 182.73 161.47L119.17 106.03Z" id="d5uSYS4cY"></path><path d="M262.81 121.34L220.24 160.02L220.24 82.67L262.81 121.34Z" id="abv9OPCPf"></path><path d="M262.81 279.23L220.24 317.91L220.24 240.56L262.81 279.23Z" id="c5jawjY5Vf"></path></defs><g><g><g><use xlink:href="#d5uSYS4cY" opacity="1" fill="#ffffff" fill-opacity="1"></use><g><use xlink:href="#d5uSYS4cY" opacity="1" fill-opacity="0" stroke="#000000" stroke-width="1" stroke-opacity="1"></use></g></g><g><use xlink:href="#abv9OPCPf" opacity="1" fill="#000000" fill-opacity="1"></use><g><use xlink:href="#abv9OPCPf" opacity="1" fill-opacity="0" stroke="#000000" stroke-width="1" stroke-opacity="1"></use></g></g><g><use xlink:href="#c5jawjY5Vf" opacity="1" fill="#000000" fill-opacity="1"></use><g><use xlink:href="#c5jawjY5Vf" opacity="1" fill-opacity="0" stroke="#000000" stroke-width="1" stroke-opacity="1"></use></g></g></g></g></svg>