<?xml version="1.0" encoding="UTF-8" standalone="no"?>
<!DOCTYPE svg PUBLIC "-//W3C//DTD SVG 1.1//EN" "http://www.w3.org/Graphics/SVG/1.1/DTD/svg11.dtd">
<svg version="1.1" xmlns="http://www.w3.org/2000/svg" xmlns:xlink="http://www.w3.org/1999/xlink" preserveAspectRatio="xMidYMid meet" viewBox="0 0 400 400" width="400" height="400"><defs><path d="M85.54 320.81C122.93 320.01 159.88 328.98 192.74 346.85C193.51 347.26 195.43 348.31 198.5 349.98C198.5 349.98 198.5 349.98 198.5 349.98C238.65 330.02 283.05 320.1 327.88 321.08C336.31 321.26 334.25 321.22 352.9 321.63C362.28 321.83 370 314.28 370 304.9C370 277.24 370 208.1 370 97.47C354.37 109.51 344.61 117.03 340.7 120.04C337.46 122.54 335.56 126.4 335.56 130.49C335.56 153.58 335.56 211.32 335.56 303.69C320.75 303.62 311.48 303.57 307.78 303.56C270.9 303.37 234.54 312.32 201.95 329.59C201.95 329.59 201.95 329.59 201.95 329.59C201.95 329.59 201.95 329.59 201.95 329.59C173.1 312.38 140.1 303.36 106.5 303.51C101.02 303.53 87.32 303.59 65.4 303.69C65.4 212.35 65.4 155.26 65.4 132.42C65.4 128.39 63.32 124.64 59.89 122.52C56.07 120.15 46.53 114.22 31.26 104.75C30.59 208.17 30.17 272.81 30 298.67C29.92 311.45 40.4 321.77 53.17 321.5C71.06 321.12 74.4 321.05 85.54 320.81Z" id="a9s04ibBWU"></path><path d="M89.37 265.71C89.37 270.59 92.73 274.82 97.47 275.92C117.2 280.5 165.5 291.73 184.54 296.15C190.45 297.52 196.1 293.04 196.1 286.97C196.1 249.4 196.1 146.79 196.1 108.78C196.1 102.95 192.56 97.7 187.15 95.52C167.59 87.6 119.6 68.19 100.48 60.46C95.17 58.31 89.37 62.22 89.37 67.95C89.37 109.17 89.37 223.76 89.37 265.71Z" id="al2gXRx1L"></path><path d="M314.08 265.71C314.08 270.59 310.72 274.82 305.97 275.92C286.25 280.5 237.94 291.73 218.91 296.15C213 297.52 207.35 293.04 207.35 286.97C207.35 249.4 207.35 146.79 207.35 108.78C207.35 102.95 210.89 97.7 216.29 95.52C235.85 87.6 283.84 68.19 302.96 60.46C308.28 58.31 314.08 62.22 314.08 67.95C314.08 109.17 314.08 223.76 314.08 265.71Z" id="b2Osgf0bnm"></path></defs><g><g><g><use xlink:href="#a9s04ibBWU" opacity="1" fill="#ffffff" fill-opacity="1"></use><g><use xlink:href="#a9s04ibBWU" opacity="1" fill-opacity="0" stroke="#000000" stroke-width="1" stroke-opacity="1"></use></g></g><g><use xlink:href="#al2gXRx1L" opacity="1" fill="#ffffff" fill-opacity="1"></use><g><use xlink:href="#al2gXRx1L" opacity="1" fill-opacity="0" stroke="#000000" stroke-width="1" stroke-opacity="1"></use></g></g><g><use xlink:href="#b2Osgf0bnm" opacity="1" fill="#ffffff" fill-opacity="1"></use><g><use xlink:href="#b2Osgf0bnm" opacity="1" fill-opacity="0" stroke="#000000" stroke-width="1" stroke-opacity="1"></use></g></g></g></g></svg>