<?xml version="1.0" encoding="UTF-8" standalone="no"?>
<!DOCTYPE svg PUBLIC "-//W3C//DTD SVG 1.1//EN" "http://www.w3.org/Graphics/SVG/1.1/DTD/svg11.dtd">
<svg version="1.1" xmlns="http://www.w3.org/2000/svg" xmlns:xlink="http://www.w3.org/1999/xlink" preserveAspectRatio="xMidYMid meet" viewBox="0 0 400 400" width="400" height="400"><defs><path d="M245.08 82.24C245.08 105.92 225.86 125.14 202.18 125.14C178.5 125.14 159.28 105.92 159.28 82.24C159.28 58.56 178.5 39.34 202.18 39.34C225.86 39.34 245.08 58.56 245.08 82.24Z" id="bBfWRRc9S"></path><path d="M245.08 317.76C245.08 341.44 225.86 360.66 202.18 360.66C178.5 360.66 159.28 341.44 159.28 317.76C159.28 294.08 178.5 274.86 202.18 274.86C225.86 274.86 245.08 294.08 245.08 317.76Z" id="bkTixtn53"></path><path d="M78.89 238.77L320.39 238.77C320.39 238.77 320.39 238.77 320.39 238.77C359.7 228.05 359.93 172.38 320.72 161.32C320.67 161.31 320.56 161.28 320.39 161.23L78.89 161.23C77.9 161.58 77.28 161.8 77.04 161.88C40.06 174.86 41.33 227.58 78.89 238.77C78.89 238.77 78.89 238.77 78.89 238.77Z" id="b1Y51SebI"></path></defs><g><g><g><use xlink:href="#bBfWRRc9S" opacity="1" fill="#ffffff" fill-opacity="1"></use><g><use xlink:href="#bBfWRRc9S" opacity="1" fill-opacity="0" stroke="#000000" stroke-width="1" stroke-opacity="1"></use></g></g><g><use xlink:href="#bkTixtn53" opacity="1" fill="#ffffff" fill-opacity="1"></use><g><use xlink:href="#bkTixtn53" opacity="1" fill-opacity="0" stroke="#000000" stroke-width="1" stroke-opacity="1"></use></g></g><g><use xlink:href="#b1Y51SebI" opacity="1" fill="#ffffff" fill-opacity="1"></use><g><use xlink:href="#b1Y51SebI" opacity="1" fill-opacity="0" stroke="#000000" stroke-width="1" stroke-opacity="1"></use></g></g></g></g></svg>