<?xml version="1.0" encoding="UTF-8" standalone="no"?>
<!DOCTYPE svg PUBLIC "-//W3C//DTD SVG 1.1//EN" "http://www.w3.org/Graphics/SVG/1.1/DTD/svg11.dtd">
<svg version="1.1" xmlns="http://www.w3.org/2000/svg" xmlns:xlink="http://www.w3.org/1999/xlink" preserveAspectRatio="xMidYMid meet" viewBox="0 0 400 400" width="400" height="400"><defs><path d="M345.5 314.28C345.5 295.51 345.5 248.6 345.5 173.55C316.54 173.55 84.84 173.55 55.88 173.55C55.88 249.78 55.88 297.42 55.88 316.48C55.88 334.73 70.67 349.53 88.93 349.53C140.24 349.53 259.37 349.53 310.25 349.53C329.72 349.53 345.5 333.75 345.5 314.28Z" id="g1vINvBlz1"></path><path d="M134.52 44.71L135.05 44.83L135.57 44.96L136.08 45.13L136.58 45.31L137.07 45.52L137.55 45.74L138.01 45.99L138.46 46.26L138.9 46.55L139.32 46.86L139.73 47.18L140.13 47.53L140.5 47.89L140.86 48.27L141.21 48.66L141.53 49.07L141.84 49.49L142.13 49.93L142.4 50.38L142.65 50.85L142.88 51.32L143.08 51.81L143.27 52.31L143.43 52.82L143.57 53.34L143.68 53.87L143.77 54.41L143.84 54.95L143.88 55.51L143.89 56.07L143.89 96.86L143.88 97.42L143.84 97.97L143.77 98.52L143.68 99.06L143.57 99.59L143.43 100.11L143.27 100.62L143.08 101.12L142.88 101.6L142.65 102.08L142.4 102.55L142.13 103L141.84 103.43L141.53 103.86L141.21 104.27L140.86 104.66L140.5 105.04L140.13 105.4L139.73 105.74L139.32 106.07L138.9 106.38L138.46 106.67L138.01 106.93L137.55 107.18L137.07 107.41L136.58 107.62L136.08 107.8L135.57 107.96L135.05 108.1L134.52 108.22L133.98 108.31L133.44 108.37L132.89 108.41L132.32 108.43L123.39 108.43L122.78 108.41L122.17 108.37L121.58 108.3L120.99 108.2L120.42 108.07L119.85 107.92L119.3 107.75L118.75 107.55L118.22 107.32L117.7 107.07L117.2 106.8L116.7 106.51L116.23 106.19L115.77 105.86L115.32 105.5L114.89 105.13L114.48 104.74L114.09 104.33L113.71 103.9L113.36 103.45L113.02 102.99L112.71 102.51L112.42 102.02L112.15 101.52L111.9 101L111.67 100.47L111.47 99.92L111.29 99.37L111.14 98.8L111.02 98.22L110.92 97.64L110.85 97.04L110.81 96.44L110.79 95.83L110.79 57.1L110.81 56.49L110.85 55.88L110.92 55.29L111.02 54.7L111.14 54.13L111.29 53.56L111.47 53.01L111.67 52.46L111.9 51.93L112.15 51.41L112.42 50.91L112.71 50.41L113.02 49.94L113.36 49.48L113.71 49.03L114.09 48.6L114.48 48.19L114.89 47.8L115.32 47.42L115.77 47.07L116.23 46.73L116.7 46.42L117.2 46.13L117.7 45.86L118.22 45.61L118.75 45.38L119.3 45.18L119.85 45L120.42 44.85L120.99 44.73L121.58 44.63L122.17 44.56L122.78 44.52L123.39 44.5L132.32 44.5L132.89 44.52L133.44 44.55L133.44 44.55L133.98 44.62L134.52 44.71ZM280.84 44.71L281.37 44.82L281.89 44.96L282.4 45.12L282.9 45.31L283.39 45.51L283.86 45.74L284.33 45.99L284.78 46.26L285.22 46.55L285.64 46.86L286.05 47.18L286.44 47.53L286.82 47.89L287.18 48.27L287.53 48.66L287.85 49.07L288.16 49.49L288.45 49.93L288.72 50.38L288.97 50.85L289.19 51.32L289.4 51.81L289.58 52.31L289.75 52.82L289.88 53.34L290 53.87L290.09 54.41L290.16 54.95L290.19 55.51L290.21 56.07L290.21 96.86L290.19 97.42L290.16 97.97L290.09 98.52L290 99.06L289.88 99.58L289.75 100.1L289.58 100.61L289.4 101.11L289.19 101.6L288.97 102.08L288.72 102.54L288.45 103L288.16 103.43L287.85 103.86L287.53 104.27L287.18 104.66L286.82 105.04L286.44 105.4L286.05 105.74L285.64 106.07L285.22 106.38L284.78 106.66L284.33 106.93L283.86 107.18L283.39 107.41L282.9 107.62L282.4 107.8L281.89 107.96L281.37 108.1L280.84 108.22L280.3 108.31L279.76 108.37L279.2 108.41L278.64 108.42L269.7 108.42L269.09 108.41L268.49 108.37L267.9 108.3L267.31 108.2L266.73 108.07L266.17 107.92L265.61 107.75L265.07 107.54L264.54 107.32L264.02 107.07L263.51 106.8L263.02 106.51L262.54 106.19L262.08 105.86L261.64 105.5L261.21 105.13L260.8 104.74L260.4 104.32L260.03 103.9L259.67 103.45L259.34 102.99L259.03 102.51L258.73 102.02L258.46 101.52L258.21 101L257.99 100.46L257.79 99.92L257.61 99.37L257.46 98.8L257.34 98.22L257.24 97.64L257.17 97.04L257.12 96.44L257.11 95.83L257.11 57.1L257.12 56.48L257.17 55.88L257.24 55.29L257.34 54.7L257.46 54.13L257.61 53.56L257.79 53L257.99 52.46L258.21 51.93L258.46 51.41L258.73 50.9L259.03 50.41L259.34 49.94L259.67 49.47L260.03 49.03L260.4 48.6L260.8 48.19L261.21 47.8L261.64 47.42L262.08 47.07L262.54 46.73L263.02 46.42L263.51 46.12L264.02 45.85L264.54 45.61L265.07 45.38L265.61 45.18L266.17 45L266.73 44.85L267.31 44.73L267.9 44.63L268.49 44.56L269.09 44.51L269.7 44.5L278.64 44.5L279.2 44.51L279.76 44.55L279.76 44.55L280.3 44.62L280.84 44.71Z" id="deajjGJkv"></path><path d="M246.94 100.19L247.02 101.01L247.14 101.81L247.29 102.61L247.46 103.39L247.67 104.16L247.91 104.92L248.17 105.67L248.46 106.4L248.78 107.12L249.13 107.82L249.5 108.51L249.9 109.18L250.33 109.84L250.78 110.47L251.25 111.09L251.74 111.69L252.26 112.27L252.8 112.83L253.35 113.37L253.93 113.88L254.53 114.38L255.15 114.85L255.79 115.3L256.44 115.72L257.11 116.12L257.8 116.49L258.5 116.84L259.22 117.16L259.95 117.45L260.7 117.72L261.46 117.96L262.23 118.16L263.02 118.34L263.81 118.49L264.62 118.6L265.43 118.68L266.26 118.73L267.09 118.75L281.44 118.75L282.2 118.73L282.96 118.69L283.71 118.61L284.45 118.51L285.18 118.37L285.9 118.21L286.61 118.02L287.3 117.8L287.99 117.56L288.66 117.29L289.32 117L289.97 116.68L290.6 116.33L291.21 115.97L291.82 115.58L292.4 115.17L292.97 114.74L293.52 114.28L294.05 113.81L294.56 113.31L295.06 112.8L295.53 112.27L295.99 111.72L296.42 111.15L296.83 110.57L297.22 109.96L297.58 109.35L297.93 108.72L298.25 108.07L298.54 107.41L298.81 106.74L299.05 106.05L299.27 105.36L299.46 104.65L299.62 103.93L299.76 103.2L299.86 102.46L299.94 101.71L299.98 100.95L300 100.19L300 70.89L315.25 70.89L316.48 70.92L317.7 70.99L318.91 71.12L320.1 71.29L321.27 71.5L322.43 71.76L323.57 72.07L324.69 72.42L325.8 72.81L326.88 73.24L327.94 73.72L328.98 74.23L329.99 74.78L330.99 75.37L331.95 76L332.89 76.66L333.81 77.35L334.69 78.09L335.55 78.85L336.37 79.64L337.17 80.47L337.93 81.33L338.66 82.21L339.36 83.12L340.02 84.06L340.65 85.03L341.24 86.02L341.79 87.04L342.3 88.08L342.78 89.14L343.21 90.22L343.6 91.33L343.95 92.45L344.26 93.59L344.52 94.75L344.73 95.92L344.9 97.11L345.02 98.32L345.1 99.54L345.12 100.77L345.12 159.17L55.5 159.17L55.5 98.83L55.52 97.68L55.59 96.54L55.71 95.41L55.87 94.3L56.07 93.2L56.31 92.12L56.6 91.05L56.92 90L57.29 88.97L57.7 87.96L58.14 86.96L58.62 85.99L59.13 85.04L59.69 84.12L60.27 83.21L60.89 82.33L61.54 81.48L62.23 80.65L62.94 79.85L63.68 79.08L64.46 78.33L65.26 77.62L66.08 76.94L66.94 76.28L67.82 75.67L68.72 75.08L69.65 74.53L70.6 74.01L71.57 73.53L72.56 73.09L73.58 72.68L74.61 72.32L75.66 71.99L76.72 71.71L77.81 71.46L78.91 71.26L80.02 71.1L81.15 70.99L82.29 70.92L83.44 70.89L100 70.89L100 98.53L100.02 99.37L100.07 100.19L100.15 101.01L100.26 101.81L100.41 102.61L100.59 103.39L100.79 104.16L101.03 104.92L101.3 105.67L101.59 106.4L101.91 107.12L102.26 107.82L102.63 108.51L103.03 109.18L103.45 109.84L103.9 110.47L104.37 111.09L104.87 111.69L105.38 112.27L105.92 112.83L106.48 113.37L107.06 113.88L107.66 114.38L108.28 114.85L108.91 115.3L109.57 115.72L110.24 116.12L110.93 116.49L111.63 116.84L112.35 117.16L113.08 117.45L113.83 117.72L114.59 117.96L115.36 118.16L116.14 118.34L116.94 118.49L117.74 118.6L118.56 118.68L119.38 118.73L120.22 118.75L134.56 118.75L135.33 118.73L136.08 118.69L136.83 118.61L137.57 118.51L138.3 118.37L139.02 118.21L139.73 118.02L140.43 117.8L141.11 117.56L141.79 117.29L142.45 117L143.09 116.68L143.72 116.33L144.34 115.97L144.94 115.58L145.52 115.17L146.09 114.74L146.64 114.28L147.17 113.81L147.69 113.31L148.18 112.8L148.66 112.27L149.11 111.72L149.54 111.15L149.95 110.57L150.34 109.96L150.71 109.35L151.05 108.72L151.37 108.07L151.67 107.41L151.94 106.74L152.18 106.05L152.4 105.36L152.59 104.65L152.75 103.93L152.88 103.2L152.99 102.46L153.06 101.71L153.11 100.95L153.13 100.19L153.13 70.89L246.88 70.89L246.88 98.53L246.89 99.37L246.94 100.19Z" id="a1NZYHnG3"></path><path d="M256.54 276.2L212.54 276.2L212.54 232.21L212.54 232.21L256.54 232.21L256.54 276.2ZM124.52 276.2L80.51 276.2L80.51 232.21L80.51 232.21L124.52 232.21L124.52 276.2ZM190.53 276.2L146.52 276.2L146.52 232.21L146.52 232.21L190.53 232.21L190.53 276.2Z" id="a2DYw0UpJY"></path><path d="M322.56 232.21L322.56 276.2L278.55 276.2L278.55 232.21L322.56 232.21Z" id="e1tgso0yfs"></path></defs><g><g><g><use xlink:href="#g1vINvBlz1" opacity="1" fill="#ffffff" fill-opacity="1"></use><g><use xlink:href="#g1vINvBlz1" opacity="1" fill-opacity="0" stroke="#000000" stroke-width="1" stroke-opacity="1"></use></g></g><g><use xlink:href="#deajjGJkv" opacity="1" fill="#ffffff" fill-opacity="1"></use><g><use xlink:href="#deajjGJkv" opacity="1" fill-opacity="0" stroke="#000000" stroke-width="1" stroke-opacity="1"></use></g></g><g><use xlink:href="#a1NZYHnG3" opacity="1" fill="#ff0000" fill-opacity="1"></use><g><use xlink:href="#a1NZYHnG3" opacity="1" fill-opacity="0" stroke="#000000" stroke-width="1" stroke-opacity="1"></use></g></g><g><use xlink:href="#a2DYw0UpJY" opacity="1" fill="#a2a2ff" fill-opacity="1"></use><g><use xlink:href="#a2DYw0UpJY" opacity="1" fill-opacity="0" stroke="#ffffff" stroke-width="1" stroke-opacity="1"></use></g></g><g><use xlink:href="#e1tgso0yfs" opacity="1" fill="#ff904d" fill-opacity="1"></use><g><use xlink:href="#e1tgso0yfs" opacity="1" fill-opacity="0" stroke="#ffffff" stroke-width="1" stroke-opacity="1"></use></g></g></g></g></svg>