<?xml version="1.0" encoding="UTF-8" standalone="no"?>
<!DOCTYPE svg PUBLIC "-//W3C//DTD SVG 1.1//EN" "http://www.w3.org/Graphics/SVG/1.1/DTD/svg11.dtd">
<svg version="1.1" xmlns="http://www.w3.org/2000/svg" xmlns:xlink="http://www.w3.org/1999/xlink" preserveAspectRatio="xMidYMid meet" viewBox="0 0 400 400" width="400" height="400"><defs><path d="M40 286.99C40 310.11 58.75 328.86 81.87 328.86C137.5 328.86 261.77 328.86 317.22 328.86C340.85 328.86 360 309.71 360 286.08C360 247.11 360 165.91 360 125.18C360 106.42 344.8 91.22 326.04 91.22C320.12 91.22 305.33 91.22 281.66 91.22C276.3 78.74 272.95 70.94 271.61 67.82C267.05 57.22 256.62 50.34 245.08 50.34C224.19 50.34 179.87 50.34 158.82 50.34C147.7 50.34 137.56 56.69 132.7 66.69C131.11 69.96 127.14 78.14 120.78 91.22C96.82 91.22 81.85 91.22 75.86 91.22C56.05 91.22 40 107.27 40 127.08C40 167.43 40 247.83 40 286.99Z" id="d56ljrqkj"></path><path d="M279.81 209.03C279.81 253.25 243.92 289.14 199.7 289.14C155.48 289.14 119.58 253.25 119.58 209.03C119.58 164.81 155.48 128.91 199.7 128.91C243.92 128.91 279.81 164.81 279.81 209.03Z" id="a3Dsc2LcH7"></path><path d="M253.11 209.03C253.11 238.51 229.18 262.44 199.7 262.44C170.22 262.44 146.29 238.51 146.29 209.03C146.29 179.55 170.22 155.62 199.7 155.62C229.18 155.62 253.11 179.55 253.11 209.03Z" id="a1CrJLJzg"></path></defs><g><g><g><use xlink:href="#d56ljrqkj" opacity="1" fill="#ffffff" fill-opacity="1"></use><g><use xlink:href="#d56ljrqkj" opacity="1" fill-opacity="0" stroke="#000000" stroke-width="1" stroke-opacity="1"></use></g></g><g><use xlink:href="#a3Dsc2LcH7" opacity="1" fill="#000000" fill-opacity="1"></use><g><use xlink:href="#a3Dsc2LcH7" opacity="1" fill-opacity="0" stroke="#000000" stroke-width="1" stroke-opacity="1"></use></g></g><g><use xlink:href="#a1CrJLJzg" opacity="1" fill="#ffffff" fill-opacity="1"></use><g><use xlink:href="#a1CrJLJzg" opacity="1" fill-opacity="0" stroke="#000000" stroke-width="1" stroke-opacity="1"></use></g></g></g></g></svg>