<?xml version="1.0" encoding="UTF-8" standalone="no"?>
<!DOCTYPE svg PUBLIC "-//W3C//DTD SVG 1.1//EN" "http://www.w3.org/Graphics/SVG/1.1/DTD/svg11.dtd">
<svg version="1.1" xmlns="http://www.w3.org/2000/svg" xmlns:xlink="http://www.w3.org/1999/xlink" preserveAspectRatio="xMidYMid meet" viewBox="0 0 400 400" width="400" height="400"><defs><path d="M273.95 201.08C273.95 242.1 240.67 275.39 199.68 275.39C158.69 275.39 125.41 242.1 125.41 201.08C125.41 160.07 158.69 126.77 199.68 126.77C240.67 126.77 273.95 160.07 273.95 201.08Z" id="bzvoarMkH"></path><path d="M65 66.85L143.06 66.85L143.06 88.46L86.53 88.46L86.53 139.55L65 139.55L65 66.85Z" id="hnFwEsatV"></path><path d="M65 333.16L143.06 333.16L143.06 311.54L86.53 311.54L86.53 260.45L65 260.45L65 333.16Z" id="a1gPfTAxs"></path><path d="M335 66.85L256.94 66.85L256.94 88.46L313.47 88.46L313.47 139.55L335 139.55L335 66.85Z" id="a2U6D2tZlC"></path><path d="M335 333.16L256.94 333.16L256.94 311.54L313.47 311.54L313.47 260.45L335 260.45L335 333.16Z" id="f1yJ5F2GTs"></path></defs><g><g><g><use xlink:href="#bzvoarMkH" opacity="1" fill="#ffffff" fill-opacity="1"></use><g><use xlink:href="#bzvoarMkH" opacity="1" fill-opacity="0" stroke="#000000" stroke-width="1" stroke-opacity="1"></use></g></g><g><use xlink:href="#hnFwEsatV" opacity="1" fill="#ffffff" fill-opacity="1"></use><g><use xlink:href="#hnFwEsatV" opacity="1" fill-opacity="0" stroke="#000000" stroke-width="1" stroke-opacity="1"></use></g></g><g><use xlink:href="#a1gPfTAxs" opacity="1" fill="#ffffff" fill-opacity="1"></use><g><use xlink:href="#a1gPfTAxs" opacity="1" fill-opacity="0" stroke="#000000" stroke-width="1" stroke-opacity="1"></use></g></g><g><use xlink:href="#a2U6D2tZlC" opacity="1" fill="#ffffff" fill-opacity="1"></use><g><use xlink:href="#a2U6D2tZlC" opacity="1" fill-opacity="0" stroke="#000000" stroke-width="1" stroke-opacity="1"></use></g></g><g><use xlink:href="#f1yJ5F2GTs" opacity="1" fill="#ffffff" fill-opacity="1"></use><g><use xlink:href="#f1yJ5F2GTs" opacity="1" fill-opacity="0" stroke="#000000" stroke-width="1" stroke-opacity="1"></use></g></g></g></g></svg>