<?xml version="1.0" encoding="UTF-8" standalone="no"?>
<!DOCTYPE svg PUBLIC "-//W3C//DTD SVG 1.1//EN" "http://www.w3.org/Graphics/SVG/1.1/DTD/svg11.dtd">
<svg version="1.1" xmlns="http://www.w3.org/2000/svg" xmlns:xlink="http://www.w3.org/1999/xlink" preserveAspectRatio="xMidYMid meet" viewBox="0 0 400 400" width="400" height="400"><defs><path d="M165.3 171.83C157.14 166.99 146.6 169.57 141.58 177.63C138.87 181.98 143.39 174.73 141.58 177.63C133.71 190.28 118 195.61 104.05 190.37C102.58 189.82 106.19 191.17 100.72 189.12C98.08 188.12 95.78 186.38 94.1 184.1C91.74 180.88 86.48 173.7 83.93 170.23C82.88 168.79 82.38 167.03 82.52 165.25C82.87 160.84 83.58 151.75 83.9 147.69C84.13 144.81 85.51 142.15 87.74 140.32C94.76 134.52 112.32 120.02 140.42 96.83C141.31 93.28 141.86 91.06 142.08 90.17C143.08 86.17 146 82.92 149.88 81.49C153.32 80.23 161.92 77.07 175.68 72.02L172.42 58.96L194.62 53.08L194.62 25C195.4 25.39 195.89 25.63 196.08 25.73C205.2 30.29 212.2 38.2 215.61 47.81C215.86 48.51 216.48 50.27 217.48 53.08C227.26 56.75 233.38 59.04 235.82 59.96C255.24 67.24 271.48 81.11 281.7 99.16C288.84 111.75 278.54 93.57 281.7 99.16C304.36 139.14 308.49 187.01 293.01 230.28C287.97 244.37 285.12 252.35 277.05 274.91C271.06 291.64 271.01 309.92 276.9 326.68C276.9 326.68 276.9 326.68 276.9 326.68L140.42 326.68C139.71 325.03 139.27 324 139.09 323.58C126.92 295.22 131.9 262.41 151.94 238.94C159.2 230.44 177.34 209.19 206.37 175.19C202.05 176.18 199.35 176.81 198.27 177.06C187.12 179.63 175.41 177.81 165.57 171.99C162.58 170.22 168.43 173.68 165.3 171.83Z" id="b3Up3fDLQS"></path><path d="M282.28 338.87C287.22 338.87 291.23 342.88 291.23 347.82C291.23 353.26 291.23 360.16 291.23 365.48C291.23 370.74 286.97 375 281.72 375C250.08 375 164.24 375 132.49 375C127.54 375 123.54 370.99 123.54 366.05C123.54 360.61 123.54 353.26 123.54 347.82C123.54 342.88 127.54 338.87 132.49 338.87C164.24 338.87 250.53 338.87 282.28 338.87Z" id="aLvjKt5LS"></path></defs><g><g><g><use xlink:href="#b3Up3fDLQS" opacity="1" fill="#ffffff" fill-opacity="1"></use><g><use xlink:href="#b3Up3fDLQS" opacity="1" fill-opacity="0" stroke="#000000" stroke-width="1" stroke-opacity="1"></use></g></g><g><use xlink:href="#aLvjKt5LS" opacity="1" fill="#ffffff" fill-opacity="1"></use><g><use xlink:href="#aLvjKt5LS" opacity="1" fill-opacity="0" stroke="#000000" stroke-width="1" stroke-opacity="1"></use></g></g></g></g></svg>