<?xml version="1.0" encoding="UTF-8" standalone="no"?>
<!DOCTYPE svg PUBLIC "-//W3C//DTD SVG 1.1//EN" "http://www.w3.org/Graphics/SVG/1.1/DTD/svg11.dtd">
<svg version="1.1" xmlns="http://www.w3.org/2000/svg" xmlns:xlink="http://www.w3.org/1999/xlink" preserveAspectRatio="xMidYMid meet" viewBox="0 0 400 400" width="400" height="400"><defs><path d="M85.93 292.05C69.15 308.53 58.65 318.83 54.46 322.95C48.5 328.8 48.52 338.4 54.48 344.23C56.82 346.52 52.37 342.16 54.56 344.3C60.94 350.54 71.19 350.34 77.32 343.86C81.21 339.76 90.92 329.5 106.46 313.08C106.46 313.08 106.46 313.08 106.46 313.08C117.03 317.68 129.33 315.41 137.57 307.35C154.4 290.88 196.49 249.71 263.82 183.84L215.17 136.21C149.77 201.35 108.9 242.07 92.55 258.36C84.31 266.57 81.45 278.75 85.17 289.78C85.27 290.08 85.52 290.84 85.93 292.05Z" id="a264phsj0G"></path><path d="M212 99.7L303.02 189.53C312.62 179.92 318.62 173.92 321.02 171.52C325.19 167.35 325.14 160.59 320.92 156.48C319.01 154.62 314.23 149.97 306.59 142.53C324.81 123.56 336.19 111.7 340.75 106.96C353.66 93.51 352.97 72.08 339.23 59.49C334.78 55.42 344.24 64.08 339.23 59.49C326.75 48.07 307.52 48.41 295.46 60.27C290.75 64.89 279 76.45 260.19 94.94C251.59 86.34 246.22 80.97 244.07 78.82C240.83 75.58 235.56 75.61 232.35 78.89C229.64 81.66 222.85 88.6 212 99.7Z" id="a1bOXrm0jv"></path></defs><g><g><g><use xlink:href="#a264phsj0G" opacity="1" fill="#ffffff" fill-opacity="1"></use><g><use xlink:href="#a264phsj0G" opacity="1" fill-opacity="0" stroke="#000000" stroke-width="1" stroke-opacity="1"></use></g></g><g><use xlink:href="#a1bOXrm0jv" opacity="1" fill="#ff0000" fill-opacity="1"></use></g></g></g></svg>