<?xml version="1.0" encoding="UTF-8" standalone="no"?>
<!DOCTYPE svg PUBLIC "-//W3C//DTD SVG 1.1//EN" "http://www.w3.org/Graphics/SVG/1.1/DTD/svg11.dtd">
<svg version="1.1" xmlns="http://www.w3.org/2000/svg" xmlns:xlink="http://www.w3.org/1999/xlink" preserveAspectRatio="xMidYMid meet" viewBox="0 0 400 400" width="400" height="400"><defs><path d="M210.18 66.51L212.44 35.64C211.9 34.54 211.57 33.86 211.43 33.58C206.38 23.2 191.77 22.74 186.07 32.78C185.85 33.16 185.31 34.11 184.44 35.64L188.03 66.51C188.27 66.85 188.42 67.06 188.48 67.15C193.74 74.72 205 74.52 210 66.78C210.02 66.74 210.08 66.65 210.18 66.51Z" id="bIsENyNzK"></path><path d="M274.57 89.68L293 64.82C293.14 63.61 293.23 62.85 293.26 62.55C294.55 51.08 282.45 42.86 272.27 48.29C271.88 48.5 270.91 49.01 269.36 49.84L255.87 77.83C255.89 78.25 255.9 78.51 255.9 78.61C256.3 87.82 265.91 93.68 274.28 89.82C274.32 89.8 274.42 89.76 274.57 89.68Z" id="bifUkhnnO"></path><path d="M140.98 77.6L127.01 49.99C125.98 49.32 125.35 48.9 125.09 48.74C115.41 42.44 102.64 49.58 102.94 61.12C102.95 61.56 102.97 62.66 103.02 64.41L122 89.01C122.38 89.18 122.62 89.29 122.72 89.33C131.13 93.1 140.67 87.14 140.97 77.92C140.97 77.88 140.97 77.77 140.98 77.6Z" id="a3u3Msto3t"></path><path d="M321.77 142.69L349.58 129.1C350.25 128.09 350.68 127.45 350.85 127.2C357.28 117.61 350.32 104.75 338.78 104.88C338.34 104.88 337.24 104.89 335.48 104.91L310.62 123.55C310.44 123.93 310.33 124.17 310.29 124.26C306.4 132.62 312.24 142.25 321.44 142.67C321.49 142.67 321.6 142.68 321.77 142.69Z" id="a8g0VKwkl8"></path><path d="M333.87 210.97L364.7 213.61C365.81 213.09 366.5 212.77 366.77 212.64C377.21 207.71 377.86 193.1 367.89 187.28C367.51 187.06 366.56 186.51 365.05 185.62L334.14 188.83C333.79 189.06 333.58 189.21 333.49 189.27C325.86 194.44 325.92 205.7 333.6 210.79C333.63 210.82 333.72 210.88 333.87 210.97Z" id="afBph43hG"></path><path d="M310.46 276.56L335.49 294.77C336.7 294.89 337.46 294.97 337.77 295C349.25 296.19 357.36 284.02 351.84 273.88C351.63 273.49 351.1 272.53 350.26 270.99L322.15 257.75C321.73 257.77 321.47 257.78 321.37 257.79C312.16 258.27 306.39 267.93 310.32 276.27C310.34 276.3 310.39 276.4 310.46 276.56Z" id="jnKSyOm3w"></path><path d="M87.1 123.63L61.69 105.97C60.47 105.87 59.71 105.81 59.4 105.78C47.9 104.84 40.06 117.19 45.8 127.21C46.01 127.59 46.56 128.54 47.43 130.06L75.82 142.69C76.24 142.66 76.5 142.64 76.61 142.63C85.8 141.95 91.36 132.16 87.25 123.92C87.23 123.88 87.18 123.78 87.1 123.63Z" id="b6MIPZvBg"></path><path d="M66.26 190.27L35.46 187.27C34.35 187.78 33.65 188.1 33.38 188.22C22.88 193.03 22.07 207.63 31.97 213.56C32.34 213.79 33.29 214.35 34.79 215.26L65.73 212.4C66.08 212.17 66.3 212.03 66.39 211.97C74.08 206.89 74.15 195.63 66.53 190.45C66.49 190.42 66.4 190.36 66.26 190.27Z" id="d1ngxbvb4c"></path><path d="M78.07 259.41L49.91 272.25C49.21 273.25 48.77 273.87 48.59 274.12C41.91 283.53 48.52 296.58 60.06 296.76C60.5 296.76 61.6 296.78 63.36 296.81L88.71 278.84C88.89 278.46 89.01 278.23 89.06 278.14C93.17 269.89 87.59 260.11 78.4 259.44C78.35 259.43 78.25 259.43 78.07 259.41Z" id="aaceCvIBt"></path><path d="M228.72 205.39L268.68 141.96C268.68 141.96 268.68 141.96 268.68 141.96C271.68 134.76 264.72 127.41 257.36 130.03C257.3 130.05 257.13 130.11 256.86 130.21L192.83 171.78L228.72 205.39Z" id="a3HZ5xNgGz"></path><path d="M235.44 202.97C235.44 222.58 219.52 238.5 199.91 238.5C180.3 238.5 164.38 222.58 164.38 202.97C164.38 183.36 180.3 167.44 199.91 167.44C219.52 167.44 235.44 183.36 235.44 202.97Z" id="bU2rDzfA1"></path></defs><g><g><g><use xlink:href="#bIsENyNzK" opacity="1" fill="#00ff00" fill-opacity="1"></use></g><g><use xlink:href="#bifUkhnnO" opacity="1" fill="#00ff00" fill-opacity="1"></use></g><g><use xlink:href="#a3u3Msto3t" opacity="1" fill="#00ff00" fill-opacity="1"></use></g><g><use xlink:href="#a8g0VKwkl8" opacity="1" fill="#ff0000" fill-opacity="1"></use></g><g><use xlink:href="#afBph43hG" opacity="1" fill="#ff0000" fill-opacity="1"></use></g><g><use xlink:href="#jnKSyOm3w" opacity="1" fill="#ff0000" fill-opacity="1"></use></g><g><use xlink:href="#b6MIPZvBg" opacity="1" fill="#0000ff" fill-opacity="1"></use></g><g><use xlink:href="#d1ngxbvb4c" opacity="1" fill="#0000ff" fill-opacity="1"></use></g><g><use xlink:href="#aaceCvIBt" opacity="1" fill="#0000ff" fill-opacity="1"></use></g><g><use xlink:href="#a3HZ5xNgGz" opacity="1" fill="#ffffff" fill-opacity="1"></use></g><g><use xlink:href="#bU2rDzfA1" opacity="1" fill="#ffffff" fill-opacity="1"></use></g></g></g></svg>