<?xml version="1.0" encoding="UTF-8" standalone="no"?>
<!DOCTYPE svg PUBLIC "-//W3C//DTD SVG 1.1//EN" "http://www.w3.org/Graphics/SVG/1.1/DTD/svg11.dtd">
<svg version="1.1" xmlns="http://www.w3.org/2000/svg" xmlns:xlink="http://www.w3.org/1999/xlink" preserveAspectRatio="xMidYMid meet" viewBox="0 0 400 400" width="400" height="400"><defs><path d="M60 297.47C83.61 259.57 125.19 236.66 169.84 236.94C196.85 237.12 208.59 237.2 236.24 237.37C278.85 237.64 318.2 260.19 340 296.8C340 296.8 340 296.8 340 296.8C340 299.55 340 313.26 340 337.96L60 337.96L60 297.47C60 297.47 60 297.47 60 297.47Z" id="a86kaZLTjm"></path><path d="M199.99 199.8C161.99 199.8 131.12 168.94 131.12 130.93C131.12 92.91 161.99 62.04 199.99 62.04C238.01 62.04 268.88 92.91 268.88 130.93C268.88 168.94 238.01 199.8 199.99 199.8Z" id="b1ahZEB2PG"></path></defs><g><g><g><use xlink:href="#a86kaZLTjm" opacity="1" fill="#ffffff" fill-opacity="1"></use><g><use xlink:href="#a86kaZLTjm" opacity="1" fill-opacity="0" stroke="#000000" stroke-width="1" stroke-opacity="1"></use></g></g><g><use xlink:href="#b1ahZEB2PG" opacity="1" fill="#ffffff" fill-opacity="1"></use><g><use xlink:href="#b1ahZEB2PG" opacity="1" fill-opacity="0" stroke="#000000" stroke-width="1" stroke-opacity="1"></use></g></g></g></g></svg>