<?xml version="1.0" encoding="UTF-8" standalone="no"?>
<!DOCTYPE svg PUBLIC "-//W3C//DTD SVG 1.1//EN" "http://www.w3.org/Graphics/SVG/1.1/DTD/svg11.dtd">
<svg version="1.1" xmlns="http://www.w3.org/2000/svg" xmlns:xlink="http://www.w3.org/1999/xlink" preserveAspectRatio="xMidYMid meet" viewBox="0 0 400 400" width="400" height="400"><defs><path d="M180.48 19.24L219.52 19.24L219.52 79.89L180.48 79.89L180.48 19.24Z" id="a40lXJXKkj"></path><path d="M129.53 101.28L101.93 128.88L59.04 85.99L86.64 58.39L129.53 101.28Z" id="ceQt7mFK3"></path><path d="M78.61 171.41L73.79 210.14L13.6 202.64L18.42 163.91L78.61 171.41Z" id="a1csixU5x"></path><path d="M321.52 110.54L322.44 110.66L323.35 110.84L324.23 111.07L325.1 111.36L325.94 111.7L326.76 112.09L327.55 112.52L328.32 113L329.06 113.53L329.76 114.09L330.44 114.7L331.07 115.34L331.67 116.02L332.23 116.73L332.74 117.48L333.21 118.25L333.64 119.05L334.01 119.88L334.34 120.73L334.61 121.61L334.83 122.5L334.99 123.41L335.09 124.34L335.14 125.28L335.12 126.23L335.03 127.2L334.88 128.17L334.66 129.15L334.37 130.13L334 131.11L333.56 132.1L333.56 132.1L238.92 253.47L239.12 254.89L239.28 256.4L239.37 257.91L239.4 259.45L239.37 260.99L239.28 262.5L239.12 264.01L238.91 265.49L238.64 266.96L238.32 268.4L237.94 269.82L237.5 271.22L237.01 272.6L236.47 273.95L235.88 275.28L235.24 276.57L234.55 277.84L233.81 279.08L233.03 280.28L232.21 281.45L231.34 282.59L230.42 283.7L229.47 284.77L228.48 285.8L227.45 286.79L226.38 287.74L225.28 288.66L224.14 289.52L222.96 290.35L221.76 291.13L220.52 291.87L219.25 292.56L217.96 293.2L216.63 293.79L215.28 294.33L213.91 294.82L212.51 295.25L211.08 295.64L209.64 295.96L208.17 296.23L206.69 296.44L205.19 296.6L203.67 296.69L202.13 296.72L200.6 296.69L199.08 296.6L197.57 296.44L196.09 296.23L194.62 295.96L193.18 295.64L191.76 295.25L190.36 294.82L188.98 294.33L187.63 293.79L186.31 293.2L185.01 292.56L183.74 291.87L182.51 291.13L181.3 290.35L180.13 289.52L178.99 288.66L177.88 287.74L176.81 286.79L175.78 285.8L174.79 284.77L173.84 283.7L172.93 282.59L172.06 281.45L171.23 280.28L170.45 279.08L169.71 277.84L169.02 276.57L168.38 275.28L167.79 273.95L167.25 272.6L166.76 271.22L166.33 269.82L165.95 268.4L165.62 266.96L165.35 265.49L165.14 264.01L164.99 262.5L164.89 260.99L164.86 259.45L164.89 257.91L164.99 256.4L165.14 254.89L165.35 253.41L165.62 251.94L165.95 250.5L166.33 249.08L166.76 247.68L167.25 246.3L167.79 244.95L168.38 243.62L169.02 242.33L169.71 241.06L170.45 239.82L171.23 238.62L172.06 237.44L172.93 236.31L173.84 235.2L174.79 234.13L175.78 233.1L176.81 232.11L177.88 231.16L178.99 230.24L180.13 229.38L181.3 228.55L182.51 227.77L183.74 227.03L185.01 226.34L186.31 225.7L187.63 225.11L188.98 224.57L190.36 224.08L191.76 223.65L193.18 223.26L194.62 222.94L196.09 222.67L197.57 222.46L199.08 222.3L200.6 222.21L202.13 222.18L202.64 222.19L311.95 112.88L312.91 112.36L313.87 111.87L314.84 111.47L315.81 111.13L316.78 110.87L317.74 110.67L318.7 110.54L319.65 110.48L320.59 110.48L321.52 110.54Z" id="aESTKfkCt"></path></defs><g><g><g><use xlink:href="#a40lXJXKkj" opacity="1" fill="#ffffff" fill-opacity="1"></use><g><use xlink:href="#a40lXJXKkj" opacity="1" fill-opacity="0" stroke="#000000" stroke-width="1" stroke-opacity="1"></use></g></g><g><use xlink:href="#ceQt7mFK3" opacity="1" fill="#ffffff" fill-opacity="1"></use><g><use xlink:href="#ceQt7mFK3" opacity="1" fill-opacity="0" stroke="#000000" stroke-width="1" stroke-opacity="1"></use></g></g><g><use xlink:href="#a1csixU5x" opacity="1" fill="#ffffff" fill-opacity="1"></use><g><use xlink:href="#a1csixU5x" opacity="1" fill-opacity="0" stroke="#000000" stroke-width="1" stroke-opacity="1"></use></g></g><g><use xlink:href="#aESTKfkCt" opacity="1" fill="#ffffff" fill-opacity="1"></use><g><use xlink:href="#aESTKfkCt" opacity="1" fill-opacity="0" stroke="#000000" stroke-width="1" stroke-opacity="1"></use></g></g></g></g></svg>