<?xml version="1.0" encoding="UTF-8" standalone="no"?>
<!DOCTYPE svg PUBLIC "-//W3C//DTD SVG 1.1//EN" "http://www.w3.org/Graphics/SVG/1.1/DTD/svg11.dtd">
<svg version="1.1" xmlns="http://www.w3.org/2000/svg" xmlns:xlink="http://www.w3.org/1999/xlink" preserveAspectRatio="xMidYMid meet" viewBox="0 0 400 400" width="400" height="400"><defs><path d="M65 323.23C65 343.72 81.61 360.32 102.1 360.32C148.68 360.32 271.32 360.32 322.9 360.32C329.58 360.32 335 354.91 335 348.22C335 341.03 335 328.65 335 320.74C335 316.05 331.2 312.26 326.52 312.26C324.37 312.26 325.32 312.26 322.9 312.26C318.96 312.26 315.76 315.45 315.76 319.4C315.76 322.64 315.76 330.73 315.76 343.69L102.2 343.69C102.2 343.68 102.2 343.68 102.2 343.68C77.03 337.53 77.03 301.74 102.2 295.58C102.2 295.58 102.2 295.58 102.2 295.58C216.49 295.58 287.93 295.58 316.5 295.58C326.72 295.58 335 287.3 335 277.09C335 229.6 335 104.42 335 56.63C335 47.27 327.41 39.68 318.04 39.68C267.44 39.68 150.79 39.68 104.74 39.68C82.79 39.68 65 57.47 65 79.42C65 135.6 65 266.52 65 323.23Z" id="agDUvXQPj"></path><path d="M155 122.58L177.24 122.58L212.19 227.09L191.01 227.09L183.6 204.49L147.94 204.49L140.17 227.09L120.05 227.09L155 122.58Z" id="g1qvNnIH2"></path><path d="M153.59 187.19L179.01 187.19L166.12 149.41L153.59 187.19Z" id="bm4oAn0RJ"></path><path d="M284.84 211.61C284.66 216.92 285.65 222.2 287.74 227.09C287.74 227.09 287.74 227.09 287.74 227.09L272.21 227.09L267.62 219.22C267.5 219.34 267.43 219.41 267.4 219.44C262.4 224.42 255.72 227.37 248.67 227.71C243.39 227.96 246.84 227.8 243.65 227.95C231.96 228.51 222.14 219.25 222.01 207.55C221.95 202.28 222 206.2 221.94 200.5C221.82 189.87 230.41 181.19 241.04 181.19C244.58 181.19 253.44 181.19 267.62 181.19C267.62 177.16 267.62 174.64 267.62 173.64C267.62 168.43 263.19 164.33 258 164.73C253.63 165.06 242.69 165.91 225.2 167.25C225.34 162.4 225.42 159.36 225.45 158.15C225.54 154.92 228.07 152.29 231.29 152.08C242.44 151.33 254.91 150.5 262.23 150.01C275.51 149.12 286.64 159.9 286.18 173.2C285.85 182.49 285.28 198.96 284.84 211.61Z" id="b356Wzv9Q3"></path><path d="M240.32 204.56C240.19 208.19 242.54 211.44 246.03 212.45C247.65 212.92 244.85 212.11 246.03 212.45C251.19 213.95 256.74 213.22 261.33 210.43C262.14 209.94 264.15 208.72 267.36 206.77L267.36 191.84C258.39 192.64 252.78 193.14 250.54 193.34C244.9 193.84 240.52 198.47 240.33 204.12C240.28 205.45 240.39 202.49 240.32 204.56Z" id="c2nCPbSzo9"></path></defs><g><g><g><use xlink:href="#agDUvXQPj" opacity="1" fill="#ffffff" fill-opacity="1"></use><g><use xlink:href="#agDUvXQPj" opacity="1" fill-opacity="0" stroke="#000000" stroke-width="1" stroke-opacity="1"></use></g></g><g><use xlink:href="#g1qvNnIH2" opacity="1" fill="#000000" fill-opacity="1"></use><g><use xlink:href="#g1qvNnIH2" opacity="1" fill-opacity="0" stroke="#000000" stroke-width="1" stroke-opacity="1"></use></g></g><g><use xlink:href="#bm4oAn0RJ" opacity="1" fill="#ffffff" fill-opacity="1"></use><g><use xlink:href="#bm4oAn0RJ" opacity="1" fill-opacity="0" stroke="#000000" stroke-width="1" stroke-opacity="1"></use></g></g><g><use xlink:href="#b356Wzv9Q3" opacity="1" fill="#000000" fill-opacity="1"></use><g><use xlink:href="#b356Wzv9Q3" opacity="1" fill-opacity="0" stroke="#000000" stroke-width="1" stroke-opacity="1"></use></g></g><g><use xlink:href="#c2nCPbSzo9" opacity="1" fill="#ffffff" fill-opacity="1"></use><g><use xlink:href="#c2nCPbSzo9" opacity="1" fill-opacity="0" stroke="#000000" stroke-width="1" stroke-opacity="1"></use></g></g></g></g></svg>