<?xml version="1.0" encoding="UTF-8" standalone="no"?>
<!DOCTYPE svg PUBLIC "-//W3C//DTD SVG 1.1//EN" "http://www.w3.org/Graphics/SVG/1.1/DTD/svg11.dtd">
<svg version="1.1" xmlns="http://www.w3.org/2000/svg" xmlns:xlink="http://www.w3.org/1999/xlink" preserveAspectRatio="xMidYMid meet" viewBox="0 0 400 400" width="400" height="400"><defs><path d="M126.96 318.63L139.93 302.93C135.6 301.12 132.89 300 131.81 299.54C110.2 290.54 90.94 276.74 75.46 259.17C75.23 258.91 74.65 258.25 73.72 257.19C94.15 268.14 106.92 274.98 112.03 277.72C124.63 284.47 138.24 289.14 152.33 291.55C163.23 293.42 151.6 291.43 156.74 292.31C189.83 297.97 223.69 297.28 256.52 290.27C260.64 289.39 246.58 292.39 256.52 290.27C270.18 287.35 283.32 282.35 295.47 275.46C299.76 273.02 310.48 266.93 327.65 257.19C327.31 257.59 327.1 257.83 327.01 257.93C311.28 276.29 291.41 290.65 269.03 299.81C268.02 300.23 265.49 301.27 261.43 302.93L272.36 318.63C272.36 318.63 272.36 318.63 272.36 318.63C311.75 318.63 349.16 301.3 374.62 271.23C374.82 271 375.32 270.42 376.11 269.48C375.51 260.65 375.14 255.13 374.99 252.93C371.23 197.32 355.06 143.26 327.65 94.73C327.65 94.73 327.65 94.73 327.65 94.73C327.15 94.37 326.83 94.15 326.71 94.06C308.41 80.99 287.64 71.8 265.66 67.05C263.37 66.55 257.64 65.31 248.46 63.33L246.42 70.16C249.87 71.2 252.02 71.85 252.89 72.11C276.94 79.36 299.06 91.91 317.63 108.82C317.96 109.13 318.8 109.89 320.14 111.11C297.86 101.18 283.94 94.98 278.37 92.5C264.44 86.29 249.61 82.33 234.44 80.78C227 80.02 230.75 80.41 224.1 79.73C206.26 77.9 188.28 77.98 170.47 79.96C164.77 80.59 175.65 79.38 170.24 79.99C151.52 82.06 133.26 87.14 116.15 95.02C111.5 97.17 99.86 102.53 81.23 111.11C87.08 106.16 90.73 103.07 92.19 101.83C108.3 88.21 127.52 78.76 148.14 74.34C149.05 74.15 151.32 73.66 154.95 72.89L151.54 63.33C145.61 64.28 141.91 64.88 140.43 65.12C119.85 68.44 100.2 76.06 82.76 87.47C81.28 88.44 77.58 90.86 71.67 94.73C71.67 94.73 71.67 94.73 71.67 94.73C44.17 146.07 28.09 202.75 24.54 260.88C24.45 262.3 24.24 265.85 23.89 271.53C23.89 271.53 23.89 271.53 23.89 271.53C46.62 298.19 79 314.75 113.92 317.58C115.66 317.72 120.01 318.07 126.96 318.63Z" id="g1ZTKJSvSu"></path><path d="M174.91 207.36C174.91 224.88 162.74 239.1 147.75 239.1C132.75 239.1 120.58 224.88 120.58 207.36C120.58 189.84 132.75 175.62 147.75 175.62C162.74 175.62 174.91 189.84 174.91 207.36Z" id="biQDI2Zgt"></path><path d="M279.51 207.36C279.51 224.88 267.33 239.1 252.34 239.1C237.34 239.1 225.17 224.88 225.17 207.36C225.17 189.84 237.34 175.62 252.34 175.62C267.33 175.62 279.51 189.84 279.51 207.36Z" id="brkfrr72D"></path></defs><g><g><g><use xlink:href="#g1ZTKJSvSu" opacity="1" fill="#ffffff" fill-opacity="1"></use><g><use xlink:href="#g1ZTKJSvSu" opacity="1" fill-opacity="0" stroke="#000000" stroke-width="1" stroke-opacity="1"></use></g></g><g><use xlink:href="#biQDI2Zgt" opacity="1" fill="#000000" fill-opacity="1"></use><g><use xlink:href="#biQDI2Zgt" opacity="1" fill-opacity="0" stroke="#000000" stroke-width="1" stroke-opacity="1"></use></g></g><g><use xlink:href="#brkfrr72D" opacity="1" fill="#000000" fill-opacity="1"></use><g><use xlink:href="#brkfrr72D" opacity="1" fill-opacity="0" stroke="#000000" stroke-width="1" stroke-opacity="1"></use></g></g></g></g></svg>