<?xml version="1.0" encoding="UTF-8" standalone="no"?>
<!DOCTYPE svg PUBLIC "-//W3C//DTD SVG 1.1//EN" "http://www.w3.org/Graphics/SVG/1.1/DTD/svg11.dtd">
<svg version="1.1" xmlns="http://www.w3.org/2000/svg" xmlns:xlink="http://www.w3.org/1999/xlink" preserveAspectRatio="xMidYMid meet" viewBox="0 0 400 400" width="400" height="400"><defs><path d="M302.71 35C312.13 35 319.76 42.63 319.76 52.05C319.76 114.64 319.76 281.94 319.76 343.67C319.76 355.45 310.21 365 298.43 365C254.79 365 141.85 365 97.38 365C87.91 365 80.24 357.33 80.24 347.86C80.24 285.29 80.24 112.05 80.24 48.81C80.24 41.18 86.42 35 94.05 35C139.2 35 258.22 35 302.71 35Z" id="d16lYVVHug"></path><path d="M127.85 66.26C127.85 74.81 120.9 81.76 112.35 81.76C103.8 81.76 96.85 74.81 96.85 66.26C96.85 57.7 103.8 50.76 112.35 50.76C120.9 50.76 127.85 57.7 127.85 66.26Z" id="dYlLy7j88"></path><path d="M300.61 66.26C300.61 74.81 293.66 81.76 285.11 81.76C276.56 81.76 269.61 74.81 269.61 66.26C269.61 57.7 276.56 50.76 285.11 50.76C293.66 50.76 300.61 57.7 300.61 66.26Z" id="c42WIKdPm"></path><path d="M127.85 333.04C127.85 341.59 120.9 348.54 112.35 348.54C103.8 348.54 96.85 341.59 96.85 333.04C96.85 324.48 103.8 317.54 112.35 317.54C120.9 317.54 127.85 324.48 127.85 333.04Z" id="a1lbnbjZ07"></path><path d="M295.51 200C295.51 253.66 251.95 297.22 198.29 297.22C144.64 297.22 101.08 253.66 101.08 200C101.08 146.34 144.64 102.78 198.29 102.78C251.95 102.78 295.51 146.34 295.51 200Z" id="f1diSRIIrn"></path><path d="M300.61 333.04C300.61 341.59 293.66 348.54 285.11 348.54C276.56 348.54 269.61 341.59 269.61 333.04C269.61 324.48 276.56 317.54 285.11 317.54C293.66 317.54 300.61 324.48 300.61 333.04Z" id="a29qU1iuQb"></path><path d="M221.84 198.48C221.84 210.53 212.05 220.32 200 220.32C187.95 220.32 178.16 210.53 178.16 198.48C178.16 186.43 187.95 176.64 200 176.64C212.05 176.64 221.84 186.43 221.84 198.48Z" id="idxFD9PpK"></path><path d="M158.06 293.36L185.49 240.57C185.49 240.57 185.49 240.57 185.49 240.57C188.73 229.59 176.16 220.79 166.95 227.59C166.71 227.77 166.1 228.22 165.12 228.93L127.85 273.41L158.06 293.36Z" id="bXz0WeDDd"></path></defs><g><g><g><use xlink:href="#d16lYVVHug" opacity="1" fill="#ffffff" fill-opacity="1"></use></g><g><use xlink:href="#dYlLy7j88" opacity="1" fill="#000000" fill-opacity="1"></use><g><use xlink:href="#dYlLy7j88" opacity="1" fill-opacity="0" stroke="#000000" stroke-width="1" stroke-opacity="1"></use></g></g><g><use xlink:href="#c42WIKdPm" opacity="1" fill="#000000" fill-opacity="1"></use><g><use xlink:href="#c42WIKdPm" opacity="1" fill-opacity="0" stroke="#000000" stroke-width="1" stroke-opacity="1"></use></g></g><g><use xlink:href="#a1lbnbjZ07" opacity="1" fill="#000000" fill-opacity="1"></use><g><use xlink:href="#a1lbnbjZ07" opacity="1" fill-opacity="0" stroke="#000000" stroke-width="1" stroke-opacity="1"></use></g></g><g><use xlink:href="#f1diSRIIrn" opacity="1" fill="#000000" fill-opacity="1"></use><g><use xlink:href="#f1diSRIIrn" opacity="1" fill-opacity="0" stroke="#000000" stroke-width="1" stroke-opacity="1"></use></g></g><g><use xlink:href="#a29qU1iuQb" opacity="1" fill="#000000" fill-opacity="1"></use><g><use xlink:href="#a29qU1iuQb" opacity="1" fill-opacity="0" stroke="#000000" stroke-width="1" stroke-opacity="1"></use></g></g><g><use xlink:href="#idxFD9PpK" opacity="1" fill="#ffffff" fill-opacity="1"></use></g><g><use xlink:href="#bXz0WeDDd" opacity="1" fill="#ffffff" fill-opacity="1"></use></g></g></g></svg>