<?xml version="1.0" encoding="UTF-8" standalone="no"?>
<!DOCTYPE svg PUBLIC "-//W3C//DTD SVG 1.1//EN" "http://www.w3.org/Graphics/SVG/1.1/DTD/svg11.dtd">
<svg version="1.1" xmlns="http://www.w3.org/2000/svg" xmlns:xlink="http://www.w3.org/1999/xlink" preserveAspectRatio="xMidYMid meet" viewBox="0 0 400 400" width="400" height="400"><defs><path d="M69.84 191.75L117.05 191.75L93.16 295.84L69.84 306.08L69.84 325.42L237.64 325.42L237.64 302.1L187.01 291.86L192.13 256.59L204.65 252.04L218.62 196.87L204.65 196.87L204.65 191.75L234.22 191.75L274.61 155.34L274.61 109.27L234.22 95.61L69.84 95.61L69.84 191.75Z" id="d2VStB0jw"></path><path d="M284.33 155.63L313.34 155.63L313.34 109.55L284.33 109.55L284.33 155.63Z" id="f2ikbtwcsZ"></path><path d="M321.59 147.09L330.12 147.09L330.12 137.99L389.84 137.99L389.84 127.75L330.12 127.75L330.12 119.79L321.59 119.79L321.59 147.09Z" id="a2S8bBvdmU"></path></defs><g><g><g><use xlink:href="#d2VStB0jw" opacity="1" fill="#ffffff" fill-opacity="1"></use><g><use xlink:href="#d2VStB0jw" opacity="1" fill-opacity="0" stroke="#000000" stroke-width="1" stroke-opacity="1"></use></g></g><g><use xlink:href="#f2ikbtwcsZ" opacity="1" fill="#ffffff" fill-opacity="1"></use><g><use xlink:href="#f2ikbtwcsZ" opacity="1" fill-opacity="0" stroke="#000000" stroke-width="1" stroke-opacity="1"></use></g></g><g><use xlink:href="#a2S8bBvdmU" opacity="1" fill="#ffffff" fill-opacity="1"></use><g><use xlink:href="#a2S8bBvdmU" opacity="1" fill-opacity="0" stroke="#000000" stroke-width="1" stroke-opacity="1"></use></g></g></g></g></svg>