<?xml version="1.0" encoding="UTF-8" standalone="no"?>
<!DOCTYPE svg PUBLIC "-//W3C//DTD SVG 1.1//EN" "http://www.w3.org/Graphics/SVG/1.1/DTD/svg11.dtd">
<svg version="1.1" xmlns="http://www.w3.org/2000/svg" xmlns:xlink="http://www.w3.org/1999/xlink" preserveAspectRatio="xMidYMid meet" viewBox="0 0 400 400" width="400" height="400"><defs><path d="M242.43 312.65C257.78 312.65 270.23 300.2 270.23 284.85C270.23 279.47 270.23 266.03 270.23 244.53C302.44 277.19 322.58 297.61 330.63 305.77C340.71 315.99 358.12 308.85 358.12 294.5C358.12 249.25 358.12 150.69 358.12 104.95C358.12 91.5 341.81 84.83 332.38 94.42C324.09 102.84 303.38 123.91 270.23 157.62C270.23 135.15 270.23 121.1 270.23 115.48C270.23 99.95 257.64 87.35 242.1 87.35C205.3 87.35 122.52 87.35 85.59 87.35C70.42 87.35 58.12 99.65 58.12 114.82C58.12 154.39 58.12 245.37 58.12 284.88C58.12 300.21 70.55 312.65 85.89 312.65C122.76 312.65 205.57 312.65 242.43 312.65Z" id="fgHSooAOa"></path></defs><g><g><g><use xlink:href="#fgHSooAOa" opacity="1" fill="#ffffff" fill-opacity="1"></use><g><use xlink:href="#fgHSooAOa" opacity="1" fill-opacity="0" stroke="#000000" stroke-width="1" stroke-opacity="1"></use></g></g></g></g></svg>