<?xml version="1.0" encoding="UTF-8" standalone="no"?>
<!DOCTYPE svg PUBLIC "-//W3C//DTD SVG 1.1//EN" "http://www.w3.org/Graphics/SVG/1.1/DTD/svg11.dtd">
<svg version="1.1" xmlns="http://www.w3.org/2000/svg" xmlns:xlink="http://www.w3.org/1999/xlink" preserveAspectRatio="xMidYMid meet" viewBox="0 0 400 400" width="400" height="400"><defs><path d="M40 305.54L47.46 312.47L213.64 312.47L213.64 214.46L177.35 214.46L169.96 206.59L169.96 74.38L47.46 74.38L40 82.9L40 305.54Z" id="b2MoxuzvBY"></path><path d="M98.06 172.38L102.85 177.18L114.04 177.18L118.3 172.38L118.3 128.17L114.04 122.31L102.85 122.31L98.06 128.17L98.06 172.38Z" id="g3BqIBUKl"></path><path d="M352.44 74.38L360 83.21L360 305.41L352.44 312.47L235.5 312.47L235.5 200.66L229.45 193.42L191.16 193.42L191.16 74.38L352.44 74.38Z" id="a5H8lLJa"></path><path d="M285.93 172.38L290.72 177.18L301.91 177.18L306.17 172.38L306.17 128.17L301.91 122.31L290.72 122.31L285.93 128.17L285.93 172.38Z" id="kzXEfEzYD"></path></defs><g><g><g><use xlink:href="#b2MoxuzvBY" opacity="1" fill="#ffffff" fill-opacity="1"></use><g><use xlink:href="#b2MoxuzvBY" opacity="1" fill-opacity="0" stroke="#000000" stroke-width="1" stroke-opacity="1"></use></g></g><g><use xlink:href="#g3BqIBUKl" opacity="1" fill="#000000" fill-opacity="1"></use><g><use xlink:href="#g3BqIBUKl" opacity="1" fill-opacity="0" stroke="#000000" stroke-width="1" stroke-opacity="1"></use></g></g><g><use xlink:href="#a5H8lLJa" opacity="1" fill="#ffffff" fill-opacity="1"></use><g><use xlink:href="#a5H8lLJa" opacity="1" fill-opacity="0" stroke="#000000" stroke-width="1" stroke-opacity="1"></use></g></g><g><use xlink:href="#kzXEfEzYD" opacity="1" fill="#000000" fill-opacity="1"></use><g><use xlink:href="#kzXEfEzYD" opacity="1" fill-opacity="0" stroke="#000000" stroke-width="1" stroke-opacity="1"></use></g></g></g></g></svg>