<?xml version="1.0" encoding="UTF-8" standalone="no"?>
<!DOCTYPE svg PUBLIC "-//W3C//DTD SVG 1.1//EN" "http://www.w3.org/Graphics/SVG/1.1/DTD/svg11.dtd">
<svg version="1.1" xmlns="http://www.w3.org/2000/svg" xmlns:xlink="http://www.w3.org/1999/xlink" preserveAspectRatio="xMidYMid meet" viewBox="0 0 400 400" width="400" height="400"><defs><path d="M245.34 204.82C245.34 230.1 224.82 250.62 199.54 250.62C174.26 250.62 153.73 230.1 153.73 204.82C153.73 179.53 174.26 159.01 199.54 159.01C224.82 159.01 245.34 179.53 245.34 204.82Z" id="c51seWlAz5"></path><path d="M149.15 53.06C152.49 41.94 164 35.43 175.25 38.3C179.98 39.51 171.22 37.27 175.25 38.3C190.75 42.26 207.02 42.06 222.42 37.74C226.76 36.53 217.58 39.1 222.25 37.79C234.43 34.38 247.11 41.29 250.84 53.37C254.08 63.87 248.36 45.33 249.41 48.75C260.45 84.52 253.25 123.43 230.14 152.87C230.14 152.87 230.14 152.87 230.14 152.87C225.96 151.17 223.35 150.1 222.31 149.67C207.33 143.55 190.53 143.65 175.62 149.95C174.7 150.34 172.39 151.31 168.69 152.87C167.06 150.65 166.04 149.26 165.63 148.71C145.44 121.18 139.34 85.77 149.15 53.07C150.34 49.09 146.04 63.45 149.15 53.06Z" id="cwSVDXUkR"></path><path d="M328.97 110.4C340.58 110.14 350.33 119.07 351.08 130.66C351.39 135.54 350.81 126.52 351.08 130.66C352.11 146.63 357.31 162.04 366.18 175.35C368.68 179.1 363.4 171.17 366.09 175.2C373.1 185.73 370.44 199.93 360.1 207.21C351.12 213.54 366.98 202.36 364.06 204.42C333.45 225.98 294.22 231.15 259.07 218.27C259.07 218.27 259.07 218.27 259.07 218.27C259.41 213.77 259.62 210.96 259.7 209.83C260.9 193.7 255.61 177.75 245.01 165.51C244.36 164.76 242.71 162.86 240.09 159.82C241.7 157.59 242.7 156.19 243.1 155.63C263.05 127.92 294.84 111.18 328.97 110.4C333.13 110.31 318.13 110.65 328.97 110.4Z" id="cfBJxstvx"></path><path d="M329.76 298.9C333.59 309.85 328.11 321.89 317.32 326.18C312.78 327.99 321.18 324.65 317.32 326.18C302.45 332.09 289.41 341.81 279.49 354.36C276.69 357.9 282.6 350.42 279.59 354.22C271.75 364.14 257.43 366 247.31 358.42C238.52 351.83 254.04 363.47 251.18 361.32C221.23 338.87 204.18 303.16 205.57 265.75C205.57 265.75 205.57 265.75 205.57 265.75C209.95 264.68 212.69 264.01 213.78 263.74C229.5 259.89 243.04 249.94 251.4 236.08C251.92 235.22 253.21 233.07 255.29 229.63C257.91 230.47 259.55 231 260.21 231.21C292.72 241.61 318.47 266.67 329.76 298.9C331.13 302.82 326.17 288.66 329.76 298.9Z" id="jodqUh43l"></path><path d="M150.9 357.39C141.66 364.43 128.52 362.93 121.11 354C117.99 350.24 123.76 357.19 121.11 354C110.89 341.69 97.62 332.28 82.62 326.72C78.39 325.15 87.33 328.47 82.79 326.78C70.93 322.39 64.73 309.34 68.81 297.37C72.36 286.98 66.09 305.34 67.25 301.95C79.34 266.53 108.04 239.28 144.05 229.04C144.05 229.04 144.05 229.04 144.05 229.04C146.42 232.88 147.9 235.27 148.5 236.23C157.02 249.99 170.67 259.79 186.43 263.46C187.41 263.68 189.85 264.25 193.76 265.16C193.77 267.92 193.78 269.64 193.78 270.33C193.93 304.47 178.06 336.7 150.9 357.39C147.6 359.91 159.53 350.82 150.9 357.39Z" id="a9pQwencFQ"></path><path d="M39.33 205.88C29.79 199.27 27.15 186.31 33.36 176.49C35.97 172.37 31.14 180.01 33.36 176.49C41.91 162.98 46.75 147.45 47.4 131.46C47.59 126.96 47.2 136.48 47.39 131.64C47.91 119 58.4 109.07 71.05 109.26C82.03 109.42 62.63 109.14 66.21 109.19C103.64 109.74 138.42 128.62 159.28 159.7C159.28 159.7 159.28 159.7 159.28 159.7C156.37 163.14 154.55 165.29 153.82 166.15C143.36 178.51 138.26 194.52 139.65 210.64C139.73 211.64 139.95 214.14 140.29 218.14C137.67 219.01 136.04 219.54 135.38 219.76C102.96 230.45 67.4 225.32 39.33 205.88C35.92 203.51 48.25 212.05 39.33 205.88Z" id="f22UcPQmhI"></path></defs><g><g><g><use xlink:href="#c51seWlAz5" opacity="1" fill="#ffffff" fill-opacity="1"></use><g><use xlink:href="#c51seWlAz5" opacity="1" fill-opacity="0" stroke="#000000" stroke-width="1" stroke-opacity="1"></use></g></g><g><use xlink:href="#cwSVDXUkR" opacity="1" fill="#ffffff" fill-opacity="1"></use><g><use xlink:href="#cwSVDXUkR" opacity="1" fill-opacity="0" stroke="#000000" stroke-width="1" stroke-opacity="1"></use></g></g><g><use xlink:href="#cfBJxstvx" opacity="1" fill="#ffffff" fill-opacity="1"></use><g><use xlink:href="#cfBJxstvx" opacity="1" fill-opacity="0" stroke="#000000" stroke-width="1" stroke-opacity="1"></use></g></g><g><use xlink:href="#jodqUh43l" opacity="1" fill="#ffffff" fill-opacity="1"></use><g><use xlink:href="#jodqUh43l" opacity="1" fill-opacity="0" stroke="#000000" stroke-width="1" stroke-opacity="1"></use></g></g><g><use xlink:href="#a9pQwencFQ" opacity="1" fill="#ffffff" fill-opacity="1"></use><g><use xlink:href="#a9pQwencFQ" opacity="1" fill-opacity="0" stroke="#000000" stroke-width="1" stroke-opacity="1"></use></g></g><g><use xlink:href="#f22UcPQmhI" opacity="1" fill="#ffffff" fill-opacity="1"></use><g><use xlink:href="#f22UcPQmhI" opacity="1" fill-opacity="0" stroke="#000000" stroke-width="1" stroke-opacity="1"></use></g></g></g></g></svg>