<?xml version="1.0" encoding="UTF-8" standalone="no"?>
<!DOCTYPE svg PUBLIC "-//W3C//DTD SVG 1.1//EN" "http://www.w3.org/Graphics/SVG/1.1/DTD/svg11.dtd">
<svg version="1.1" xmlns="http://www.w3.org/2000/svg" xmlns:xlink="http://www.w3.org/1999/xlink" preserveAspectRatio="xMidYMid meet" viewBox="0 0 400 400" width="400" height="400"><defs><path d="M116.29 145.39L104.34 139.41C106.97 117.2 116.38 101.27 132.58 91.6C148.78 81.94 167.49 75.87 188.71 73.38C218.6 69.79 242.17 74.1 259.41 86.32C276.65 98.53 286.06 115.12 287.63 136.09C287.63 216.09 287.63 266.09 287.63 286.09C287.63 294.2 294.2 300.78 302.32 300.78C304.87 300.78 311.27 300.78 321.49 300.78L321.49 319.37L244.97 319.37L240.48 294.14C209.49 311.85 186.02 322.69 170.08 326.68C158.9 329.47 145.2 327.22 128.97 319.93C118.46 315.2 109.25 308.01 102.12 298.96C93.33 287.8 89.98 272.47 92.09 252.96C95.01 225.99 112.83 206.46 145.53 194.37L240.48 166.64L239.15 124.06C230.59 107.93 218.57 98.76 203.07 96.54C187.58 94.33 171.93 97.11 156.14 104.88L156.14 145.39L116.29 145.39Z" id="c1HeUhniUe"></path><path d="M166.14 216.35C156.12 222.52 148.59 232.2 143.54 245.41C138.4 258.84 141.52 274.04 151.55 284.36C159.94 293 169.74 297.23 180.95 297.05C200.68 296.73 220.58 288.45 240.64 272.22L240.64 187.22C207.53 196.45 182.7 206.16 166.14 216.35Z" id="f152v8yXLz"></path></defs><g><g><g><use xlink:href="#c1HeUhniUe" opacity="1" fill="#ffffff" fill-opacity="1"></use><g><use xlink:href="#c1HeUhniUe" opacity="1" fill-opacity="0" stroke="#000000" stroke-width="1" stroke-opacity="1"></use></g></g><g><use xlink:href="#f152v8yXLz" opacity="1" fill="#000000" fill-opacity="1"></use></g></g></g></svg>