<?xml version="1.0" encoding="UTF-8" standalone="no"?>
<!DOCTYPE svg PUBLIC "-//W3C//DTD SVG 1.1//EN" "http://www.w3.org/Graphics/SVG/1.1/DTD/svg11.dtd">
<svg version="1.1" xmlns="http://www.w3.org/2000/svg" xmlns:xlink="http://www.w3.org/1999/xlink" preserveAspectRatio="xMidYMid meet" viewBox="0 0 400 400" width="400" height="400"><defs><path d="M75.85 285.07C75.85 285.07 75.85 285.07 75.85 285.07C71.77 295.03 57.76 295.3 53.3 285.5C53.28 285.44 53.21 285.3 53.11 285.07C53.11 187.47 53.11 126.47 53.11 102.07C53.11 95.06 58.79 89.38 65.8 89.38C96.5 89.38 173.26 89.38 296.08 89.38C296.08 89.38 296.08 89.38 296.08 89.38C306.74 92.8 307.24 107.7 296.83 111.82C296.73 111.86 296.48 111.96 296.08 112.12L75.85 112.12L75.85 285.07Z" id="k2AcZtC6c8"></path><path d="M340.41 132.13C347.42 132.13 353.11 137.81 353.11 144.82C353.11 181.95 353.11 278.53 353.11 315.13C353.11 323.61 346.24 330.48 337.76 330.48C330.43 330.48 312.12 330.48 282.81 330.48C192.13 330.48 135.46 330.48 112.79 330.48C105.28 330.48 99.19 324.39 99.19 316.87C99.19 279.92 99.19 185.13 99.19 148.8C99.19 139.59 106.65 132.13 115.86 132.13C163.31 132.13 292.17 132.13 340.41 132.13Z" id="e4H6EjxKza"></path><path d="M331.98 155.8L331.98 207.87L327.2 203.68L242.81 271.3L188.95 237.19L123.72 294.04L123.72 155.8L331.98 155.8Z" id="c1IryEIswj"></path></defs><g><g><g><use xlink:href="#k2AcZtC6c8" opacity="1" fill="#ffffff" fill-opacity="1"></use><g><use xlink:href="#k2AcZtC6c8" opacity="1" fill-opacity="0" stroke="#000000" stroke-width="1" stroke-opacity="1"></use></g></g><g><use xlink:href="#e4H6EjxKza" opacity="1" fill="#ffffff" fill-opacity="1"></use><g><use xlink:href="#e4H6EjxKza" opacity="1" fill-opacity="0" stroke="#000000" stroke-width="1" stroke-opacity="1"></use></g></g><g><use xlink:href="#c1IryEIswj" opacity="1" fill="#000000" fill-opacity="1"></use></g></g></g></svg>