<?xml version="1.0" encoding="UTF-8" standalone="no"?>
<!DOCTYPE svg PUBLIC "-//W3C//DTD SVG 1.1//EN" "http://www.w3.org/Graphics/SVG/1.1/DTD/svg11.dtd">
<svg version="1.1" xmlns="http://www.w3.org/2000/svg" xmlns:xlink="http://www.w3.org/1999/xlink" preserveAspectRatio="xMidYMid meet" viewBox="0 0 400 400" width="400" height="400"><defs><path d="M247.96 123.56C248.04 122.92 248.08 122.52 248.1 122.36C249.89 106.9 247.7 91.25 241.72 76.88C240.69 74.4 238.1 68.18 233.96 58.23C233.09 60.38 232.54 61.72 232.32 62.26C222.51 86.37 207.97 108.27 189.56 126.68C188.35 127.89 185.32 130.92 180.48 135.76L247.96 123.56Z" id="cnyPVk5fY"></path><path d="M103.76 219.93C116.23 170.78 155.41 132.9 204.96 122.09C222.62 118.24 213.15 120.31 235.41 115.45C272.44 107.37 304.69 84.78 324.93 52.74C325.16 52.36 325.76 51.42 326.71 49.91C328.44 53.66 329.52 56 329.96 56.93C344.97 89.34 340.73 127.4 318.98 155.72C315.55 160.18 306.99 171.33 293.29 189.16C293.29 189.16 293.29 189.16 293.29 189.16C313.65 193.23 334.77 190.7 353.59 181.94C355.11 181.23 358.91 179.46 365 176.62C365 176.63 365 176.63 365 176.63C350.84 262.02 284.03 329.02 198.68 343.42C168.36 348.54 147.76 350.71 136.9 349.93C82.6 346.03 51.81 330.98 35 285.93C35 285.93 35 285.93 35 285.93C35 285.93 35 285.93 35 285.93C68 280.43 94.62 255.94 102.85 223.52C107.1 206.76 100.87 231.32 103.76 219.93Z" id="aEz8jFh5N"></path><path d="M144.59 232.02C149.29 236.83 151.04 243.8 149.17 250.26C148.93 251.11 148.31 253.23 147.33 256.63C151.29 255.08 153.77 254.11 154.76 253.72C164.36 249.98 170 239.99 168.25 229.84C166.83 221.59 164.93 210.51 163.35 201.32C162.23 194.81 155.35 191.02 149.25 193.56C145.15 195.27 151.63 192.57 149.25 193.56C136.84 198.73 128.74 210.83 128.68 224.27C128.67 225.19 128.66 227.51 128.64 231.21C128.74 231.14 128.8 231.09 128.82 231.07C133.61 227.32 140.46 227.78 144.71 232.14C146.2 233.67 143.12 230.51 144.59 232.02Z" id="cxozJO84K"></path><path d="M140.12 323.92C145.2 322.86 148.37 322.2 149.64 321.93C170.25 317.65 188.34 305.42 200 287.9C200 287.9 200 287.9 200 287.9C200 287.9 200 287.9 200 287.9C201.39 283.51 196.75 279.63 192.68 281.79C192.65 281.81 192.58 281.84 192.47 281.9C192.47 281.9 192.47 281.9 192.47 281.9C182.97 298.16 166.69 309.31 148.1 312.3C146.77 312.52 143.44 313.05 138.12 313.91C138.12 313.91 138.12 313.91 138.12 313.91C133.86 316.28 134.74 322.63 139.47 323.76C139.56 323.78 139.77 323.83 140.12 323.92Z" id="bajIG3t66"></path></defs><g><g><g><use xlink:href="#cnyPVk5fY" opacity="1" fill="#aaaaaa" fill-opacity="1"></use></g><g><use xlink:href="#aEz8jFh5N" opacity="1" fill="#ffffff" fill-opacity="1"></use></g><g><use xlink:href="#cxozJO84K" opacity="1" fill="#000000" fill-opacity="1"></use></g><g><use xlink:href="#bajIG3t66" opacity="1" fill="#000000" fill-opacity="1"></use></g></g></g></svg>