<?xml version="1.0" encoding="UTF-8" standalone="no"?>
<!DOCTYPE svg PUBLIC "-//W3C//DTD SVG 1.1//EN" "http://www.w3.org/Graphics/SVG/1.1/DTD/svg11.dtd">
<svg version="1.1" xmlns="http://www.w3.org/2000/svg" xmlns:xlink="http://www.w3.org/1999/xlink" preserveAspectRatio="xMidYMid meet" viewBox="0 0 400 400" width="400" height="400"><defs><path d="M175.86 37.2C178.38 38.12 179.96 38.7 180.59 38.93C231.41 57.58 265.95 105.05 268.07 159.14C268.77 176.8 267.37 141.26 268.07 159.14C270.16 212.23 305.08 258.42 355.59 274.91C356.18 275.1 357.65 275.58 360 276.35L221.89 362.81C221.89 362.8 221.89 362.8 221.89 362.8C174.26 351.68 138.47 312.23 132.03 263.73C128.07 233.95 126.16 219.57 122.02 188.38C116 143.08 85.52 104.78 42.73 88.74C42.36 88.61 41.45 88.27 40 87.72L175.86 37.2Z" id="i30EOFaOx3"></path></defs><g><g><g><use xlink:href="#i30EOFaOx3" opacity="1" fill="#ffffff" fill-opacity="1"></use><g><use xlink:href="#i30EOFaOx3" opacity="1" fill-opacity="0" stroke="#000000" stroke-width="1" stroke-opacity="1"></use></g></g></g></g></svg>