<?xml version="1.0" encoding="UTF-8" standalone="no"?>
<!DOCTYPE svg PUBLIC "-//W3C//DTD SVG 1.1//EN" "http://www.w3.org/Graphics/SVG/1.1/DTD/svg11.dtd">
<svg version="1.1" xmlns="http://www.w3.org/2000/svg" xmlns:xlink="http://www.w3.org/1999/xlink" preserveAspectRatio="xMidYMid meet" viewBox="0 0 400 400" width="400" height="400"><defs><path d="M278.1 71.42L278.21 71.03L278.55 70.02L278.95 69.07L279.41 68.18L279.93 67.35L280.5 66.59L281.12 65.89L281.79 65.25L282.49 64.67L283.24 64.16L284.01 63.71L284.82 63.32L285.65 62.99L286.5 62.73L287.36 62.53L288.24 62.39L289.12 62.31L290.01 62.29L290.89 62.34L291.77 62.45L292.64 62.62L293.5 62.85L294.34 63.14L295.16 63.49L295.95 63.91L296.71 64.38L297.43 64.92L298.12 65.52L298.77 66.18L299.36 66.9L299.91 67.69L300.4 68.53L300.83 69.43L301.2 70.4L301.5 71.42L301.5 71.42L301.5 131.12L353.75 184.62L355.28 187.63L355.71 188.53L356.07 189.43L356.37 190.34L356.61 191.24L356.79 192.15L356.92 193.05L356.99 193.95L357 194.84L356.96 195.72L356.87 196.59L356.73 197.45L356.54 198.29L356.31 199.13L356.02 199.94L355.7 200.73L355.33 201.51L354.92 202.26L354.47 202.99L353.98 203.69L353.45 204.36L352.89 205.01L352.3 205.62L351.67 206.2L351.01 206.75L350.32 207.26L349.6 207.73L348.85 208.16L348.08 208.56L347.29 208.9L346.47 209.2L345.63 209.46L344.78 209.67L343.9 209.82L343.01 209.93L342.1 209.98L341.18 209.97L340.24 209.91L339.29 209.79L338.34 209.6L337.37 209.36L211.03 79.9L193.1 79.9L65.2 209.36L64.28 209.76L63.35 210.1L62.43 210.38L61.51 210.6L60.59 210.76L59.67 210.86L58.76 210.9L57.86 210.89L56.97 210.83L56.09 210.71L55.23 210.55L54.38 210.33L53.54 210.07L52.73 209.76L51.93 209.41L51.16 209.01L50.41 208.57L49.69 208.1L49 207.58L48.33 207.03L47.69 206.44L47.09 205.82L46.52 205.17L45.99 204.49L45.49 203.77L45.04 203.03L44.62 202.27L44.25 201.48L43.93 200.66L43.65 199.83L43.41 198.97L43.23 198.1L43.1 197.21L43.02 196.3L43 195.38L43.03 194.45L43.13 193.5L43.28 192.55L43.5 191.59L43.77 190.62L45.7 184.62L182.45 46.47L218.83 46.47L278.1 107.16L278.1 71.42Z" id="b2h80cnQ5N"></path><path d="M86.5 343.12L172.29 343.12L172.29 262.79L231.56 262.79L231.56 343.12L318.13 343.12L318.13 230.82L201.05 112.28L86.5 230.82L86.5 343.12Z" id="e1k0sQTrch"></path></defs><g><g><g><use xlink:href="#b2h80cnQ5N" opacity="1" fill="#ffffff" fill-opacity="1"></use><g><use xlink:href="#b2h80cnQ5N" opacity="1" fill-opacity="0" stroke="#000000" stroke-width="1" stroke-opacity="1"></use></g></g><g><use xlink:href="#e1k0sQTrch" opacity="1" fill="#ffffff" fill-opacity="1"></use><g><use xlink:href="#e1k0sQTrch" opacity="1" fill-opacity="0" stroke="#000000" stroke-width="1" stroke-opacity="1"></use></g></g></g></g></svg>