<?xml version="1.0" encoding="UTF-8" standalone="no"?>
<!DOCTYPE svg PUBLIC "-//W3C//DTD SVG 1.1//EN" "http://www.w3.org/Graphics/SVG/1.1/DTD/svg11.dtd">
<svg version="1.1" xmlns="http://www.w3.org/2000/svg" xmlns:xlink="http://www.w3.org/1999/xlink" preserveAspectRatio="xMidYMid meet" viewBox="0 0 400 400" width="400" height="400"><defs><path d="M159.41 166.59L136.38 188.58L149.99 201.66L50 304.27C50 326.25 50 339.99 50 345.49C50 350.77 54.28 355.04 59.55 355.04C63.65 355.04 73.91 355.04 90.31 355.04L101.3 345.62L101.3 322.07C112.12 322.07 118.88 322.07 121.58 322.07C123.68 322.07 125.38 320.36 125.38 318.26C125.38 315.77 125.38 309.53 125.38 299.56C135.3 299.56 141.49 299.56 143.97 299.56C147.29 299.56 149.99 296.86 149.99 293.54C149.99 291.06 149.99 284.86 149.99 274.95L173.54 274.95L197.74 249.7L208.09 259.77L231.65 235.69L159.41 166.59Z" id="j1uEP3tSVu"></path><path d="M153.31 143.3C153.31 197.57 197.38 241.64 251.66 241.64C305.93 241.64 350 197.57 350 143.3C350 89.02 305.93 44.95 251.66 44.95C197.38 44.95 153.31 89.02 153.31 143.3Z" id="biTYDrLAI"></path><path d="M240.41 129.09C240.41 143.86 252.4 155.85 267.17 155.85C281.94 155.85 293.93 143.86 293.93 129.09C293.93 114.32 281.94 102.33 267.17 102.33C252.4 102.33 240.41 114.32 240.41 129.09Z" id="dTFZibcUR"></path></defs><g><g><g><use xlink:href="#j1uEP3tSVu" opacity="1" fill="#ffffff" fill-opacity="1"></use></g><g><use xlink:href="#biTYDrLAI" opacity="1" fill="#ffffff" fill-opacity="1"></use></g><g><use xlink:href="#dTFZibcUR" opacity="1" fill="#000000" fill-opacity="1"></use></g></g></g></svg>