<?xml version="1.0" encoding="UTF-8" standalone="no"?>
<!DOCTYPE svg PUBLIC "-//W3C//DTD SVG 1.1//EN" "http://www.w3.org/Graphics/SVG/1.1/DTD/svg11.dtd">
<svg version="1.1" xmlns="http://www.w3.org/2000/svg" xmlns:xlink="http://www.w3.org/1999/xlink" preserveAspectRatio="xMidYMid meet" viewBox="0 0 400 400" width="400" height="400"><defs><path d="M214.06 43.43L218.64 44.09L223.16 44.92L227.62 45.93L232.01 47.1L236.33 48.45L240.58 49.96L244.75 51.62L248.83 53.45L252.83 55.42L256.74 57.55L260.56 59.82L264.28 62.23L267.9 64.78L271.42 67.46L274.82 70.28L278.12 73.22L281.3 76.28L284.36 79.46L287.3 82.76L290.12 86.17L292.8 89.68L295.35 93.3L297.76 97.02L300.03 100.84L302.16 104.75L304.13 108.75L305.96 112.84L307.62 117L309.13 121.25L310.48 125.57L311.66 129.96L312.66 134.42L313.49 138.94L314.15 143.52L314.62 148.15L314.9 152.84L315 157.58L314.9 162.32L314.62 167.01L314.15 171.64L313.49 176.22L312.66 180.74L311.66 185.2L310.48 189.59L309.13 193.91L307.62 198.16L305.96 202.33L304.45 205.71L304.92 205.71L303.05 208.6L302.16 210.41L300.03 214.32L297.76 218.14L295.35 221.86L292.8 225.48L290.12 229L289.11 230.22L215.27 344.69L214.71 345.51L214.12 346.28L213.5 347.02L212.85 347.71L212.17 348.36L211.47 348.97L210.74 349.53L209.99 350.06L209.22 350.54L208.43 350.98L207.62 351.38L206.8 351.73L205.97 352.04L205.12 352.32L204.26 352.54L203.39 352.73L202.52 352.88L201.64 352.98L200.76 353.04L199.88 353.06L198.99 353.04L198.11 352.97L197.23 352.87L196.36 352.72L195.5 352.53L194.64 352.29L193.79 352.02L192.96 351.7L192.14 351.34L191.33 350.94L190.54 350.5L189.78 350.02L189.03 349.49L188.3 348.92L187.6 348.31L186.92 347.66L186.28 346.96L185.66 346.23L185.07 345.45L184.52 344.63L112.98 232.72L112.7 232.4L109.88 229L107.2 225.48L104.65 221.86L102.24 218.14L99.97 214.32L97.84 210.41L95.87 206.41L94.04 202.33L92.38 198.16L90.87 193.91L89.52 189.59L88.34 185.2L87.34 180.74L86.51 176.22L85.85 171.64L85.38 167.01L85.1 162.32L85 157.58L85.1 152.84L85.38 148.15L85.85 143.52L86.51 138.94L87.34 134.42L88.34 129.96L89.52 125.57L90.87 121.25L92.38 117L94.04 112.84L95.87 108.75L97.84 104.75L99.97 100.84L102.24 97.02L104.65 93.3L107.2 89.68L109.88 86.17L112.7 82.76L115.64 79.46L118.7 76.28L121.88 73.22L125.18 70.28L128.58 67.46L132.1 64.78L135.72 62.23L139.44 59.82L143.26 57.55L147.17 55.42L151.17 53.45L155.25 51.62L159.42 49.96L163.67 48.45L167.99 47.1L172.38 45.93L176.84 44.92L181.36 44.09L185.94 43.43L190.57 42.96L195.26 42.68L200 42.58L204.74 42.68L209.43 42.96L209.43 42.96L214.06 43.43Z" id="a8YrD0SGrp"></path><path d="M262.61 153.7C262.61 188.97 233.98 217.59 198.72 217.59C163.46 217.59 134.83 188.97 134.83 153.7C134.83 118.44 163.46 89.82 198.72 89.82C233.98 89.82 262.61 118.44 262.61 153.7Z" id="i1ehSnkJ8l"></path></defs><g><g><g><use xlink:href="#a8YrD0SGrp" opacity="1" fill="#ffffff" fill-opacity="1"></use><g><use xlink:href="#a8YrD0SGrp" opacity="1" fill-opacity="0" stroke="#000000" stroke-width="1" stroke-opacity="1"></use></g></g><g><use xlink:href="#i1ehSnkJ8l" opacity="1" fill="#000000" fill-opacity="1"></use></g></g></g></svg>