<?xml version="1.0" encoding="UTF-8" standalone="no"?>
<!DOCTYPE svg PUBLIC "-//W3C//DTD SVG 1.1//EN" "http://www.w3.org/Graphics/SVG/1.1/DTD/svg11.dtd">
<svg version="1.1" xmlns="http://www.w3.org/2000/svg" xmlns:xlink="http://www.w3.org/1999/xlink" preserveAspectRatio="xMidYMid meet" viewBox="0 0 400 400" width="400" height="400"><defs><path d="M353.49 125.99C356.4 124.35 360 126.45 360 129.79C360 164.22 360 256.84 360 290.47C360 296.81 354.86 301.95 348.52 301.95C286.82 301.95 113.75 301.95 52.19 301.95C45.46 301.95 40 296.49 40 289.76C40 255.44 40 163.57 40 128.97C40 124.2 45.19 121.23 49.3 123.66C79.48 141.44 159.01 188.31 188.76 205.85C195.84 210.02 204.6 210.1 211.74 206.06C241.39 189.31 322.83 143.31 353.49 125.99Z" id="aldfsJZYE"></path><path d="M343.31 98.05L201.28 179.08L62.79 98.05L343.31 98.05Z" id="boUIQJPJ7"></path></defs><g><g><g><use xlink:href="#aldfsJZYE" opacity="1" fill="#ffffff" fill-opacity="1"></use><g><use xlink:href="#aldfsJZYE" opacity="1" fill-opacity="0" stroke="#000000" stroke-width="1" stroke-opacity="1"></use></g></g><g><use xlink:href="#boUIQJPJ7" opacity="1" fill="#ffffff" fill-opacity="1"></use><g><use xlink:href="#boUIQJPJ7" opacity="1" fill-opacity="0" stroke="#000000" stroke-width="1" stroke-opacity="1"></use></g></g></g></g></svg>