<?xml version="1.0" encoding="UTF-8" standalone="no"?>
<!DOCTYPE svg PUBLIC "-//W3C//DTD SVG 1.1//EN" "http://www.w3.org/Graphics/SVG/1.1/DTD/svg11.dtd">
<svg version="1.1" xmlns="http://www.w3.org/2000/svg" xmlns:xlink="http://www.w3.org/1999/xlink" preserveAspectRatio="xMidYMid meet" viewBox="0 0 400 400" width="400" height="400"><defs><path d="M134 278.78C243.14 278.78 311.35 278.78 338.64 278.78C347.72 278.78 355.09 271.42 355.09 262.33C355.09 225.63 355.09 132.81 355.09 96.31C355.09 86.66 347.26 78.83 337.61 78.83C279.07 78.83 118.46 78.83 59.31 78.83C51.35 78.83 44.91 85.28 44.91 93.23C44.91 145.75 44.91 279.49 44.91 329.65C44.91 339.91 56.97 345.43 64.73 338.71C73.97 330.72 97.06 310.75 134 278.78Z" id="a2Ya1aWTeg"></path><path d="M184.34 138.45C191.17 138.45 196.7 143.99 196.7 150.82C196.7 153.29 196.7 148.34 196.7 150.82C196.7 157.64 191.17 163.18 184.34 163.18C168.5 163.18 133.33 163.18 117.49 163.18C110.66 163.18 105.13 157.64 105.13 150.82C105.13 148.34 105.13 153.29 105.13 150.82C105.13 143.99 110.66 138.45 117.49 138.45C133.33 138.45 168.5 138.45 184.34 138.45Z" id="auj3JdDBH"></path><path d="M283.5 185.03C290.23 185.03 295.69 190.49 295.69 197.23C295.69 199.73 295.69 195.05 295.69 197.56C295.69 204.29 290.23 209.75 283.5 209.75C247.82 209.75 153 209.75 117.33 209.75C110.59 209.75 105.13 204.29 105.13 197.56C105.13 195.05 105.13 199.73 105.13 197.23C105.13 190.49 110.59 185.03 117.33 185.03C153 185.03 247.82 185.03 283.5 185.03Z" id="dqrq05btu"></path></defs><g><g><g><use xlink:href="#a2Ya1aWTeg" opacity="1" fill="#ffffff" fill-opacity="1"></use><g><use xlink:href="#a2Ya1aWTeg" opacity="1" fill-opacity="0" stroke="#000000" stroke-width="1" stroke-opacity="1"></use></g></g><g><use xlink:href="#auj3JdDBH" opacity="1" fill="#000000" fill-opacity="1"></use></g><g><use xlink:href="#dqrq05btu" opacity="1" fill="#000000" fill-opacity="1"></use></g></g></g></svg>