<?xml version="1.0" encoding="UTF-8" standalone="no"?>
<!DOCTYPE svg PUBLIC "-//W3C//DTD SVG 1.1//EN" "http://www.w3.org/Graphics/SVG/1.1/DTD/svg11.dtd">
<svg version="1.1" xmlns="http://www.w3.org/2000/svg" xmlns:xlink="http://www.w3.org/1999/xlink" preserveAspectRatio="xMidYMid meet" viewBox="0 0 400 400" width="400" height="400"><defs><path d="M276.63 103.61C285.96 103.61 293.53 111.18 293.53 120.52C293.53 155.81 293.53 243.94 293.53 279.02C293.53 288.95 285.49 297 275.56 297C241.53 297 155.71 297 121.26 297C112.51 297 105.42 289.91 105.42 281.16C105.42 245.65 105.42 154.96 105.42 119.45C105.42 110.7 112.51 103.61 121.26 103.61C155.71 103.61 242.38 103.61 276.63 103.61Z" id="clJCpS3tJ"></path><path d="M130.12 40.15C130.12 40.15 130.12 40.15 130.12 40.15C134.32 30.55 147.81 30.2 152.5 39.58C152.53 39.65 152.63 39.84 152.78 40.15L152.78 83.97L130.12 83.97L130.12 40.15Z" id="e1bdg7Vni4"></path><path d="M188.14 40.15C188.14 40.15 188.14 40.15 188.14 40.15C192.34 30.55 205.84 30.2 210.52 39.58C210.56 39.65 210.66 39.84 210.81 40.15L210.81 83.97L188.14 83.97L188.14 40.15Z" id="a1HxaP48pQ"></path><path d="M246.46 40.15C246.46 40.15 246.46 40.15 246.46 40.15C250.66 30.55 264.15 30.2 268.84 39.58C268.88 39.65 268.97 39.84 269.13 40.15L269.13 83.97L246.46 83.97L246.46 40.15Z" id="c4kdOhvvmx"></path><path d="M357.59 132.39C357.59 132.39 357.59 132.39 357.6 132.39C367.19 136.59 367.54 150.08 358.17 154.76C358.09 154.8 357.9 154.9 357.59 155.05L313.78 155.05L313.78 132.39L357.59 132.39Z" id="b1qcTt8Rlu"></path><path d="M357.59 190.94C357.59 190.94 357.59 190.94 357.6 190.94C367.19 195.14 367.54 208.63 358.17 213.31C358.09 213.35 357.9 213.45 357.59 213.6L313.78 213.6L313.78 190.94L357.59 190.94Z" id="d3dLeoBbU"></path><path d="M357.59 248.73C357.59 248.73 357.59 248.73 357.6 248.73C367.19 252.93 367.54 266.42 358.17 271.1C358.09 271.14 357.9 271.24 357.59 271.39L313.78 271.39L313.78 248.73L357.59 248.73Z" id="abnshfW2I"></path><path d="M269.13 359.85C269.13 359.85 269.13 359.85 269.13 359.85C264.93 369.45 251.44 369.8 246.75 360.42C246.71 360.35 246.62 360.16 246.46 359.85L246.46 316.03L269.13 316.03L269.13 359.85Z" id="bafxlEjFoL"></path><path d="M210.81 359.85C210.81 359.85 210.81 359.85 210.81 359.85C206.61 369.45 193.12 369.8 188.43 360.42C188.39 360.35 188.3 360.16 188.14 359.85L188.14 316.03L210.81 316.03L210.81 359.85Z" id="bcB0cO3qH"></path><path d="M152.78 359.85C152.78 359.85 152.78 359.85 152.78 359.85C148.58 369.45 135.09 369.8 130.4 360.42C130.37 360.35 130.27 360.16 130.12 359.85L130.12 316.03L152.78 316.03L152.78 359.85Z" id="e14VeAAtyD"></path><path d="M42.41 271.39C42.41 271.39 42.41 271.39 42.4 271.39C32.81 267.19 32.46 253.7 41.83 249.01C41.91 248.97 42.1 248.88 42.41 248.73L86.22 248.73L86.22 271.39L42.41 271.39Z" id="aVjAER7s"></path><path d="M42.41 213.6C42.41 213.6 42.41 213.6 42.4 213.6C32.81 209.4 32.46 195.91 41.83 191.23C41.91 191.19 42.1 191.09 42.41 190.94L86.22 190.94L86.22 213.6L42.41 213.6Z" id="b9wWwkU4o"></path><path d="M42.41 155.05C42.41 155.05 42.41 155.05 42.4 155.05C32.81 150.85 32.46 137.36 41.83 132.68C41.91 132.64 42.1 132.54 42.41 132.39L86.22 132.39L86.22 155.05L42.41 155.05Z" id="bm7dkwiVY"></path></defs><g><g><g><use xlink:href="#clJCpS3tJ" opacity="1" fill="#ffffff" fill-opacity="1"></use><g><use xlink:href="#clJCpS3tJ" opacity="1" fill-opacity="0" stroke="#000000" stroke-width="1" stroke-opacity="1"></use></g></g><g><use xlink:href="#e1bdg7Vni4" opacity="1" fill="#ffffff" fill-opacity="1"></use><g><use xlink:href="#e1bdg7Vni4" opacity="1" fill-opacity="0" stroke="#000000" stroke-width="1" stroke-opacity="1"></use></g></g><g><use xlink:href="#a1HxaP48pQ" opacity="1" fill="#ffffff" fill-opacity="1"></use><g><use xlink:href="#a1HxaP48pQ" opacity="1" fill-opacity="0" stroke="#000000" stroke-width="1" stroke-opacity="1"></use></g></g><g><use xlink:href="#c4kdOhvvmx" opacity="1" fill="#ffffff" fill-opacity="1"></use><g><use xlink:href="#c4kdOhvvmx" opacity="1" fill-opacity="0" stroke="#000000" stroke-width="1" stroke-opacity="1"></use></g></g><g><use xlink:href="#b1qcTt8Rlu" opacity="1" fill="#ffffff" fill-opacity="1"></use><g><use xlink:href="#b1qcTt8Rlu" opacity="1" fill-opacity="0" stroke="#000000" stroke-width="1" stroke-opacity="1"></use></g></g><g><use xlink:href="#d3dLeoBbU" opacity="1" fill="#ffffff" fill-opacity="1"></use><g><use xlink:href="#d3dLeoBbU" opacity="1" fill-opacity="0" stroke="#000000" stroke-width="1" stroke-opacity="1"></use></g></g><g><use xlink:href="#abnshfW2I" opacity="1" fill="#ffffff" fill-opacity="1"></use><g><use xlink:href="#abnshfW2I" opacity="1" fill-opacity="0" stroke="#000000" stroke-width="1" stroke-opacity="1"></use></g></g><g><use xlink:href="#bafxlEjFoL" opacity="1" fill="#ffffff" fill-opacity="1"></use><g><use xlink:href="#bafxlEjFoL" opacity="1" fill-opacity="0" stroke="#000000" stroke-width="1" stroke-opacity="1"></use></g></g><g><use xlink:href="#bcB0cO3qH" opacity="1" fill="#ffffff" fill-opacity="1"></use><g><use xlink:href="#bcB0cO3qH" opacity="1" fill-opacity="0" stroke="#000000" stroke-width="1" stroke-opacity="1"></use></g></g><g><use xlink:href="#e14VeAAtyD" opacity="1" fill="#ffffff" fill-opacity="1"></use><g><use xlink:href="#e14VeAAtyD" opacity="1" fill-opacity="0" stroke="#000000" stroke-width="1" stroke-opacity="1"></use></g></g><g><use xlink:href="#aVjAER7s" opacity="1" fill="#ffffff" fill-opacity="1"></use><g><use xlink:href="#aVjAER7s" opacity="1" fill-opacity="0" stroke="#000000" stroke-width="1" stroke-opacity="1"></use></g></g><g><use xlink:href="#b9wWwkU4o" opacity="1" fill="#ffffff" fill-opacity="1"></use><g><use xlink:href="#b9wWwkU4o" opacity="1" fill-opacity="0" stroke="#000000" stroke-width="1" stroke-opacity="1"></use></g></g><g><use xlink:href="#bm7dkwiVY" opacity="1" fill="#ffffff" fill-opacity="1"></use><g><use xlink:href="#bm7dkwiVY" opacity="1" fill-opacity="0" stroke="#000000" stroke-width="1" stroke-opacity="1"></use></g></g></g></g></svg>