<?xml version="1.0" encoding="UTF-8" standalone="no"?>
<!DOCTYPE svg PUBLIC "-//W3C//DTD SVG 1.1//EN" "http://www.w3.org/Graphics/SVG/1.1/DTD/svg11.dtd">
<svg version="1.1" xmlns="http://www.w3.org/2000/svg" xmlns:xlink="http://www.w3.org/1999/xlink" preserveAspectRatio="xMidYMid meet" viewBox="0 0 400 400" width="400" height="400"><defs><path d="M200.75 28.67C237.01 28.67 266.4 58.06 266.4 94.31C266.4 127.49 266.4 160.75 266.4 193.77C266.4 230.45 236.66 260.19 199.98 260.19C186.44 260.19 212.74 260.19 199.33 260.19C162.31 260.19 132.3 230.18 132.3 193.16C132.3 160.26 132.3 127.67 132.3 94.54C132.3 58.16 161.79 28.67 198.17 28.67C211.82 28.67 187.06 28.67 200.75 28.67Z" id="a2GdmAuW0"></path><path d="M85 213.44C85.43 216.25 85.7 218.01 85.8 218.71C93.01 265.91 131.11 302.33 178.59 307.4C179.23 307.47 180.83 307.64 183.39 307.92L183.39 325.51L126.7 325.51C126.7 325.51 126.7 325.51 126.7 325.51C110.46 330.34 110.43 353.34 126.66 358.21C127.19 358.36 128.5 358.76 130.61 359.39L271.35 359.39C271.59 359.28 271.75 359.22 271.81 359.19C286.65 352.72 286.36 331.57 271.35 325.51C271.35 325.51 271.35 325.51 271.35 325.51L217.27 325.51L217.27 307.92C225.33 306.38 230.38 305.43 232.39 305.04C275.35 296.89 308.3 262.21 314.25 218.9C314.35 218.17 314.6 216.35 315 213.44L315 153.5C315 153.49 315 153.49 315 153.49C309.8 138.73 288.92 138.73 283.73 153.49C283.73 153.49 283.73 153.49 283.73 153.5L283.73 213.44C283.73 213.44 283.73 213.44 283.73 213.44C276.2 245.11 250.74 269.38 218.75 275.4C216.42 275.84 210.59 276.93 201.28 278.68C196.65 278.22 193.76 277.93 192.6 277.82C157.61 274.33 127.94 250.58 116.87 217.2C116.7 216.69 116.29 215.44 115.62 213.44L115.62 151.54C115.62 151.54 115.62 151.54 115.62 151.54C110.05 139.83 93.67 139.04 87 150.17C86.73 150.61 86.07 151.72 85 153.5L85 213.44Z" id="a8hD1PMWh"></path></defs><g><g><g><use xlink:href="#a2GdmAuW0" opacity="1" fill="#ffffff" fill-opacity="1"></use><g><use xlink:href="#a2GdmAuW0" opacity="1" fill-opacity="0" stroke="#000000" stroke-width="1" stroke-opacity="1"></use></g></g><g><use xlink:href="#a8hD1PMWh" opacity="1" fill="#ffffff" fill-opacity="1"></use><g><use xlink:href="#a8hD1PMWh" opacity="1" fill-opacity="0" stroke="#000000" stroke-width="1" stroke-opacity="1"></use></g></g></g></g></svg>