<?xml version="1.0" encoding="UTF-8" standalone="no"?>
<!DOCTYPE svg PUBLIC "-//W3C//DTD SVG 1.1//EN" "http://www.w3.org/Graphics/SVG/1.1/DTD/svg11.dtd">
<svg version="1.1" xmlns="http://www.w3.org/2000/svg" xmlns:xlink="http://www.w3.org/1999/xlink" preserveAspectRatio="xMidYMid meet" viewBox="0 0 400 400" width="400" height="400"><defs><path d="M50 325.45L135.28 325.45L135.28 227.15L111.55 227.15L111.55 74.55L50 74.55L50 325.45Z" id="b4FnkptHG"></path><path d="M350 325.45L264.72 325.45L264.72 227.15L288.45 227.15L288.45 74.55L350 74.55L350 325.45Z" id="b4P4yTmu00"></path><path d="M178.47 227.4L158.43 227.4L158.43 325.45L242.73 325.45L242.73 227.4L218.55 227.4L218.55 74.55L178.47 74.55L178.47 227.4Z" id="dgFdgeQqm"></path><path d="M123.29 74.55L167.83 74.55L167.83 214.92L123.29 214.92L123.29 74.55Z" id="a1Qfy40Mw1"></path><path d="M230.44 74.55L274.98 74.55L274.98 214.92L230.44 214.92L230.44 74.55Z" id="hbArg8bVZ"></path></defs><g><g><g><use xlink:href="#b4FnkptHG" opacity="1" fill="#ffffff" fill-opacity="1"></use><g><use xlink:href="#b4FnkptHG" opacity="1" fill-opacity="0" stroke="#000000" stroke-width="1" stroke-opacity="1"></use></g></g><g><use xlink:href="#b4P4yTmu00" opacity="1" fill="#ffffff" fill-opacity="1"></use><g><use xlink:href="#b4P4yTmu00" opacity="1" fill-opacity="0" stroke="#000000" stroke-width="1" stroke-opacity="1"></use></g></g><g><use xlink:href="#dgFdgeQqm" opacity="1" fill="#ffffff" fill-opacity="1"></use><g><use xlink:href="#dgFdgeQqm" opacity="1" fill-opacity="0" stroke="#000000" stroke-width="1" stroke-opacity="1"></use></g></g><g><use xlink:href="#a1Qfy40Mw1" opacity="1" fill="#000001" fill-opacity="1"></use><g><use xlink:href="#a1Qfy40Mw1" opacity="1" fill-opacity="0" stroke="#000000" stroke-width="1" stroke-opacity="1"></use></g></g><g><use xlink:href="#hbArg8bVZ" opacity="1" fill="#000001" fill-opacity="1"></use><g><use xlink:href="#hbArg8bVZ" opacity="1" fill-opacity="0" stroke="#000000" stroke-width="1" stroke-opacity="1"></use></g></g></g></g></svg>