<?xml version="1.0" encoding="UTF-8" standalone="no"?>
<!DOCTYPE svg PUBLIC "-//W3C//DTD SVG 1.1//EN" "http://www.w3.org/Graphics/SVG/1.1/DTD/svg11.dtd">
<svg version="1.1" xmlns="http://www.w3.org/2000/svg" xmlns:xlink="http://www.w3.org/1999/xlink" preserveAspectRatio="xMidYMid meet" viewBox="0 0 400 400" width="400" height="400"><defs><path d="M253.04 315.08C243.42 325.89 231.35 340.62 216.83 359.28C208.84 369.56 199.56 378.78 189.23 386.71C189.21 386.72 189.18 386.75 189.13 386.78C197.95 359.73 203.47 342.82 205.67 336.06C205.67 336.06 211.97 313.27 211.97 313.27C214.5 302.17 214.82 300.79 216.18 294.78C221.56 271.21 216.75 246.47 202.94 226.62C200.84 223.61 207.27 232.85 202.94 226.62C196.34 217.15 185.69 211.32 174.16 210.88C172.34 210.81 167.81 210.64 160.55 210.36L40.21 228.63C65.32 221.38 82.06 215.99 90.44 212.45C102.99 207.14 119.96 193.87 92.53 183.48C74.24 176.55 53.91 170.47 31.54 165.24C61.81 167.28 80.73 168.55 88.3 169.06C100.75 169.9 113.12 171.68 125.3 174.37C135.41 176.6 142.04 178.06 150.8 180C166.12 183.38 182.03 177.7 191.74 165.38C194.53 161.85 188.56 169.41 191.74 165.38C200.32 154.51 202.16 139.77 196.54 127.12C192.97 119.08 198.34 131.16 196.5 127.02C184.64 100.34 170.89 74.54 155.35 49.81C153.42 46.74 148.59 39.07 140.87 26.78C144.81 28.49 147.28 29.56 148.26 29.99C190.84 48.46 228.92 75.91 259.9 110.47C259.9 110.47 259.9 110.47 259.9 110.47C268.29 119.86 273.53 125.73 275.63 128.08C286.78 140.56 286.03 159.62 273.95 171.19C273.95 171.19 273.95 171.19 273.95 171.19C273.95 171.19 273.95 171.19 273.95 171.19C285.43 165.91 298.94 167.79 308.53 176.01C308.88 176.31 309.74 177.05 311.13 178.24L324.22 194.71C323 194.71 322.24 194.71 321.93 194.71C314.7 194.71 307.93 198.31 303.88 204.32C302.72 206.04 305.18 202.39 303.88 204.32C300.15 209.85 294.46 213.76 287.95 215.24C286.29 215.62 282.15 216.57 275.52 218.09C276.6 218.71 277.28 219.1 277.55 219.26C296.76 230.38 301.55 256 287.64 273.31C271.84 292.99 260.3 306.91 253.04 315.08Z" id="b211ZvmFOs"></path></defs><g><g><g><use xlink:href="#b211ZvmFOs" opacity="1" fill="#ffffff" fill-opacity="1"></use><g><use xlink:href="#b211ZvmFOs" opacity="1" fill-opacity="0" stroke="#000000" stroke-width="1" stroke-opacity="1"></use></g></g></g></g></svg>