<?xml version="1.0" encoding="UTF-8" standalone="no"?>
<!DOCTYPE svg PUBLIC "-//W3C//DTD SVG 1.1//EN" "http://www.w3.org/Graphics/SVG/1.1/DTD/svg11.dtd">
<svg version="1.1" xmlns="http://www.w3.org/2000/svg" xmlns:xlink="http://www.w3.org/1999/xlink" preserveAspectRatio="xMidYMid meet" viewBox="0 0 400 400" width="400" height="400"><defs><path d="M281.32 73.7C288.09 73.7 293.58 79.18 293.58 85.95C293.58 134.02 293.58 264.01 293.58 311.59C293.58 319.72 286.99 326.31 278.87 326.31C244.25 326.31 153.13 326.31 118.02 326.31C111.25 326.31 105.76 320.82 105.76 314.05C105.76 265.98 105.76 134.02 105.76 85.95C105.76 79.18 111.25 73.7 118.02 73.7C153.13 73.7 246.21 73.7 281.32 73.7Z" id="aTEuMWo6B"></path><path d="M84.6 106.51L84.6 293.49C60 293.49 44.63 293.49 38.48 293.49C33.8 293.49 30 289.69 30 285.01C30 249.31 30 150.69 30 114.99C30 110.31 33.8 106.51 38.48 106.51C44.63 106.51 60 106.51 84.6 106.51Z" id="d6djrdhPmK"></path><path d="M315.4 106.51L315.4 293.49C340 293.49 355.37 293.49 361.52 293.49C366.2 293.49 370 289.69 370 285.01C370 249.31 370 150.69 370 114.99C370 110.31 366.2 106.51 361.52 106.51C355.37 106.51 340 106.51 315.4 106.51Z" id="ehhhC3nv8"></path></defs><g><g><g><use xlink:href="#aTEuMWo6B" opacity="1" fill="#ffffff" fill-opacity="1"></use><g><use xlink:href="#aTEuMWo6B" opacity="1" fill-opacity="0" stroke="#000000" stroke-width="1" stroke-opacity="1"></use></g></g><g><use xlink:href="#d6djrdhPmK" opacity="1" fill="#b7b7b7" fill-opacity="1"></use><g><use xlink:href="#d6djrdhPmK" opacity="1" fill-opacity="0" stroke="#000000" stroke-width="1" stroke-opacity="1"></use></g></g><g><use xlink:href="#ehhhC3nv8" opacity="1" fill="#b7b7b7" fill-opacity="1"></use><g><use xlink:href="#ehhhC3nv8" opacity="1" fill-opacity="0" stroke="#000000" stroke-width="1" stroke-opacity="1"></use></g></g></g></g></svg>