<?xml version="1.0" encoding="UTF-8" standalone="no"?>
<!DOCTYPE svg PUBLIC "-//W3C//DTD SVG 1.1//EN" "http://www.w3.org/Graphics/SVG/1.1/DTD/svg11.dtd">
<svg version="1.1" xmlns="http://www.w3.org/2000/svg" xmlns:xlink="http://www.w3.org/1999/xlink" preserveAspectRatio="xMidYMid meet" viewBox="0 0 400 400" width="400" height="400"><defs><path d="M318.7 63.3L318.7 282.05L289.21 257.32L289.21 128.71L153.93 150.69L153.93 308.98L125.08 265.56L125.08 90.78L318.7 63.3Z" id="az3dFlRqY"></path><path d="M319.33 287.16C319.33 313.86 297.65 335.53 270.95 335.53C244.24 335.53 222.56 313.86 222.56 287.16C222.56 260.46 244.24 238.79 270.95 238.79C297.65 238.79 319.33 260.46 319.33 287.16Z" id="b4ZkPE9Kgj"></path><path d="M154.09 305.17C154.09 331.87 132.41 353.54 105.71 353.54C79.01 353.54 57.33 331.87 57.33 305.17C57.33 278.47 79.01 256.8 105.71 256.8C132.41 256.8 154.09 278.47 154.09 305.17Z" id="bmZ4aeYA1"></path></defs><g><g><g><use xlink:href="#az3dFlRqY" opacity="1" fill="#ffffff" fill-opacity="1"></use></g><g><use xlink:href="#b4ZkPE9Kgj" opacity="1" fill="#ffffff" fill-opacity="1"></use></g><g><use xlink:href="#bmZ4aeYA1" opacity="1" fill="#ffffff" fill-opacity="1"></use></g></g></g></svg>