<?xml version="1.0" encoding="UTF-8" standalone="no"?>
<!DOCTYPE svg PUBLIC "-//W3C//DTD SVG 1.1//EN" "http://www.w3.org/Graphics/SVG/1.1/DTD/svg11.dtd">
<svg version="1.1" xmlns="http://www.w3.org/2000/svg" xmlns:xlink="http://www.w3.org/1999/xlink" preserveAspectRatio="xMidYMid meet" viewBox="0 0 400 400" width="400" height="400"><defs><path d="M229.56 337.77L325 232.22C325 147.3 325 94.22 325 72.98C325 67.05 320.19 62.24 314.25 62.24C266.4 62.24 133.6 62.24 85.75 62.24C79.81 62.24 75 67.05 75 72.98C75 125.94 75 273.1 75 325.82C75 332.42 80.35 337.77 86.94 337.77C105.96 337.77 153.5 337.77 229.56 337.77Z" id="g2drgpqC2"></path><path d="M229.68 338.64L326.33 231.52C279.81 231.52 250.73 231.52 239.1 231.52C233.89 231.52 229.68 235.73 229.68 240.93C229.68 253.96 229.68 286.53 229.68 338.64Z" id="a2AJvwmgXt"></path><path d="M110.31 159.75C110.39 159.78 110.47 159.8 110.55 159.8C134.4 159.8 194.02 159.8 289.41 159.8C289.48 159.77 289.53 159.75 289.54 159.75C300.06 155.44 299.98 140.51 289.41 136.32C289.41 136.32 289.41 136.32 289.41 136.32L110.43 136.32C110.43 136.32 110.43 136.32 110.43 136.32C100.08 140.66 100 155.29 110.29 159.74C110.32 159.75 104.83 157.38 110.31 159.75Z" id="bJtV718dF"></path><path d="M110.31 214.48C110.39 214.52 110.47 214.53 110.55 214.53C125.02 214.53 161.21 214.53 219.11 214.53C219.11 214.53 219.11 214.53 219.11 214.53C229.79 210.35 229.79 195.24 219.11 191.06C219.11 191.06 219.11 191.06 219.11 191.06L110.43 191.06C110.43 191.06 110.43 191.06 110.43 191.06C100.08 195.39 100 210.02 110.29 214.47C110.32 214.49 104.83 212.11 110.31 214.48Z" id="c1qLVBJGQJ"></path><path d="M110.31 269.6C110.39 269.64 110.47 269.65 110.55 269.65C119.48 269.65 141.82 269.65 177.56 269.65C177.56 269.65 177.56 269.65 177.56 269.65C188.24 265.47 188.24 250.36 177.56 246.18C177.56 246.18 177.56 246.18 177.56 246.18L110.43 246.18C110.03 246.34 109.79 246.44 109.69 246.48C99.62 250.7 99.54 264.94 109.56 269.28C109.73 269.35 104.83 267.23 110.31 269.6Z" id="b3ttJPR3if"></path></defs><g><g><g><use xlink:href="#g2drgpqC2" opacity="1" fill="#ffffff" fill-opacity="1"></use><g><use xlink:href="#g2drgpqC2" opacity="1" fill-opacity="0" stroke="#000000" stroke-width="1" stroke-opacity="1"></use></g></g><g><use xlink:href="#a2AJvwmgXt" opacity="1" fill="#aaaaaa" fill-opacity="1"></use></g><g><use xlink:href="#bJtV718dF" opacity="1" fill="#000000" fill-opacity="1"></use><g><use xlink:href="#bJtV718dF" opacity="1" fill-opacity="0" stroke="#000000" stroke-width="1" stroke-opacity="1"></use></g></g><g><use xlink:href="#c1qLVBJGQJ" opacity="1" fill="#000000" fill-opacity="1"></use><g><use xlink:href="#c1qLVBJGQJ" opacity="1" fill-opacity="0" stroke="#000000" stroke-width="1" stroke-opacity="1"></use></g></g><g><use xlink:href="#b3ttJPR3if" opacity="1" fill="#000000" fill-opacity="1"></use><g><use xlink:href="#b3ttJPR3if" opacity="1" fill-opacity="0" stroke="#000000" stroke-width="1" stroke-opacity="1"></use></g></g></g></g></svg>