<?xml version="1.0" encoding="UTF-8" standalone="no"?>
<!DOCTYPE svg PUBLIC "-//W3C//DTD SVG 1.1//EN" "http://www.w3.org/Graphics/SVG/1.1/DTD/svg11.dtd">
<svg version="1.1" xmlns="http://www.w3.org/2000/svg" xmlns:xlink="http://www.w3.org/1999/xlink" preserveAspectRatio="xMidYMid meet" viewBox="0 0 400 400" width="400" height="400"><defs><path d="M256.12 203.17L350 45.2L303.8 22.85L202.47 165.91C202.48 165.93 202.48 165.93 202.48 165.94C213.69 184.26 231.74 197.36 252.64 202.34C253.1 202.45 254.26 202.73 256.12 203.17Z" id="a5zg16XRSj"></path><path d="M99.94 271.54C91.09 307.38 73.99 340.65 50 368.71C50 368.71 50 368.71 50 368.71C70.5 367.75 83.32 367.15 88.44 366.91C111.8 365.82 135.01 362.57 157.78 357.2C172.88 353.64 150.93 358.82 157.78 357.2C202.68 346.62 235.45 308.01 238.58 261.98C238.85 257.95 239.54 247.88 240.64 231.75C240.64 231.75 240.64 231.75 240.64 231.75C216.15 225.72 194.98 210.4 181.59 189.03C181.48 188.86 181.2 188.42 180.76 187.71C180.76 187.71 180.76 187.71 180.76 187.71C144.17 190.57 113.53 216.55 104.72 252.18C101.07 266.95 103.84 255.73 99.94 271.54Z" id="btsrctGH7"></path></defs><g><g><g><use xlink:href="#a5zg16XRSj" opacity="1" fill="#ffffff" fill-opacity="1"></use><g><use xlink:href="#a5zg16XRSj" opacity="1" fill-opacity="0" stroke="#000000" stroke-width="1" stroke-opacity="1"></use></g></g><g><use xlink:href="#btsrctGH7" opacity="1" fill="#ffffff" fill-opacity="1"></use><g><use xlink:href="#btsrctGH7" opacity="1" fill-opacity="0" stroke="#000000" stroke-width="1" stroke-opacity="1"></use></g></g></g></g></svg>