<?xml version="1.0" encoding="UTF-8" standalone="no"?>
<!DOCTYPE svg PUBLIC "-//W3C//DTD SVG 1.1//EN" "http://www.w3.org/Graphics/SVG/1.1/DTD/svg11.dtd">
<svg version="1.1" xmlns="http://www.w3.org/2000/svg" xmlns:xlink="http://www.w3.org/1999/xlink" preserveAspectRatio="xMidYMid meet" viewBox="0 0 400 400" width="400" height="400"><defs><path d="M305.06 356.97C313.31 356.97 320 350.28 320 342.03C320 313.43 320 241.93 320 127.53L235.5 43.03C158.32 43.03 110.08 43.03 90.79 43.03C84.83 43.03 80 47.86 80 53.82C80 114.45 80 283.56 80 343.69C80 351.03 85.94 356.97 93.28 356.97C138.62 356.97 260.05 356.97 305.06 356.97Z" id="f18uB38rDy"></path><path d="M320 127.53L234.91 127.53L234.91 43.03L320 127.53Z" id="aiaEgqwcM"></path><path d="M136.33 207.12L251.34 207.12C251.34 207.12 251.34 207.12 251.34 207.12C260.07 203.33 260.07 190.95 251.34 187.17C251.34 187.17 251.34 187.17 251.34 187.17L136.33 187.17C136.33 187.17 136.33 187.17 136.33 187.17C127.94 191.17 127.94 203.11 136.33 207.12C136.33 207.12 136.33 207.12 136.33 207.12Z" id="cqssBg163"></path><path d="M138.74 136.6L184.99 136.6C185.59 136.36 185.96 136.2 186.11 136.14C194.62 132.65 194.62 120.6 186.11 117.11C185.96 117.05 185.59 116.9 184.99 116.65L138.74 116.65C138.74 116.65 138.74 116.65 138.74 116.65C130.35 120.66 130.35 132.6 138.74 136.6C138.74 136.6 138.74 136.6 138.74 136.6Z" id="j4UKDFrYW8"></path><path d="M136.33 278.57L251.34 278.57C251.34 278.57 251.34 278.57 251.34 278.57C260.07 274.79 260.07 262.41 251.34 258.62C251.34 258.62 251.34 258.62 251.34 258.62L136.33 258.62C136.33 258.62 136.33 258.62 136.33 258.62C127.94 262.63 127.94 274.57 136.33 278.57C136.33 278.57 136.33 278.57 136.33 278.57Z" id="a12Uq5BNDg"></path></defs><g><g><g><use xlink:href="#f18uB38rDy" opacity="1" fill="#ffffff" fill-opacity="1"></use><g><use xlink:href="#f18uB38rDy" opacity="1" fill-opacity="0" stroke="#000000" stroke-width="1" stroke-opacity="1"></use></g></g><g><use xlink:href="#aiaEgqwcM" opacity="1" fill="#a4a4a4" fill-opacity="1"></use></g><g><use xlink:href="#cqssBg163" opacity="1" fill="#000000" fill-opacity="1"></use><g><use xlink:href="#cqssBg163" opacity="1" fill-opacity="0" stroke="#000000" stroke-width="1" stroke-opacity="1"></use></g></g><g><use xlink:href="#j4UKDFrYW8" opacity="1" fill="#000000" fill-opacity="1"></use><g><use xlink:href="#j4UKDFrYW8" opacity="1" fill-opacity="0" stroke="#000000" stroke-width="1" stroke-opacity="1"></use></g></g><g><use xlink:href="#a12Uq5BNDg" opacity="1" fill="#000000" fill-opacity="1"></use><g><use xlink:href="#a12Uq5BNDg" opacity="1" fill-opacity="0" stroke="#000000" stroke-width="1" stroke-opacity="1"></use></g></g></g></g></svg>