<?xml version="1.0" encoding="UTF-8" standalone="no"?>
<!DOCTYPE svg PUBLIC "-//W3C//DTD SVG 1.1//EN" "http://www.w3.org/Graphics/SVG/1.1/DTD/svg11.dtd">
<svg version="1.1" xmlns="http://www.w3.org/2000/svg" xmlns:xlink="http://www.w3.org/1999/xlink" preserveAspectRatio="xMidYMid meet" viewBox="0 0 400 400" width="400" height="400"><defs><path d="M238.95 307.93C239.56 306.17 239.94 305.07 240.1 304.63C246.18 287.12 247.79 268.37 244.78 250.08C244.77 250.05 244.76 249.97 244.74 249.85L332.53 162.95C332.53 162.95 332.53 162.95 332.53 162.95C345.72 164.06 358.97 161.56 370.84 155.7C370.86 155.69 370.92 155.66 371.01 155.61L251.99 36.35C251.99 36.35 251.99 36.35 251.99 36.35C246.72 47.06 244.44 58.99 245.39 70.89C245.43 71.44 245.54 72.84 245.72 75.07L156.89 164.65C156.89 164.65 156.89 164.65 156.89 164.65C139.7 161.24 121.94 161.98 105.1 166.82C104.4 167.02 102.65 167.52 99.85 168.32L238.95 307.93Z" id="g1vFpSx545"></path><path d="M71.1 313.69L61.01 347.02L93.9 336.06L167.14 261.5L145.65 240.45L71.1 313.69Z" id="f5oxksiwgx"></path></defs><g><g><g><use xlink:href="#g1vFpSx545" opacity="1" fill="#ffffff" fill-opacity="1"></use><g><use xlink:href="#g1vFpSx545" opacity="1" fill-opacity="0" stroke="#000000" stroke-width="1" stroke-opacity="1"></use></g></g><g><use xlink:href="#f5oxksiwgx" opacity="1" fill="#ffffff" fill-opacity="1"></use><g><use xlink:href="#f5oxksiwgx" opacity="1" fill-opacity="0" stroke="#000000" stroke-width="1" stroke-opacity="1"></use></g></g></g></g></svg>