<?xml version="1.0" encoding="UTF-8" standalone="no"?>
<!DOCTYPE svg PUBLIC "-//W3C//DTD SVG 1.1//EN" "http://www.w3.org/Graphics/SVG/1.1/DTD/svg11.dtd">
<svg version="1.1" xmlns="http://www.w3.org/2000/svg" xmlns:xlink="http://www.w3.org/1999/xlink" preserveAspectRatio="xMidYMid meet" viewBox="0 0 400 400" width="400" height="400"><defs><path d="M55.31 336.29L81.4 362.38L30.31 362.38L30.31 362.38L55.31 336.29ZM201.85 261.7L199.22 263.82L196.57 265.93L193.91 268.02L191.23 270.09L188.55 272.15L185.85 274.19L183.14 276.21L180.41 278.22L177.68 280.21L174.93 282.18L172.17 284.14L169.4 286.08L166.62 288L163.83 289.91L161.02 291.8L158.21 293.67L155.38 295.52L152.54 297.36L149.69 299.17L146.83 300.98L143.96 302.76L141.07 304.52L138.18 306.27L135.27 308L132.36 309.72L129.43 311.41L126.49 313.09L123.54 314.75L120.59 316.39L117.62 318.02L114.64 319.62L111.65 321.21L108.65 322.78L105.64 324.33L102.62 325.86L99.59 327.38L96.56 328.88L89.14 332.5L94.29 362.38L91.01 362.38L60.02 331.38L144.61 243.12L183.9 238.99L185.16 237.91L205.75 258.5L204.48 259.56L204.48 259.56L201.85 261.7ZM297.6 142.53L297.34 143.37L297.05 144.2L296.73 145.02L296.73 145.02L295.93 147L295.11 148.96L294.27 150.92L293.4 152.86L292.52 154.8L291.62 156.73L290.7 158.64L289.77 160.55L288.81 162.45L287.83 164.33L286.83 166.21L285.82 168.07L284.78 169.92L283.73 171.76L282.66 173.59L281.57 175.41L280.46 177.22L279.33 179.02L278.19 180.8L277.03 182.58L275.84 184.34L274.64 186.09L273.43 187.82L272.19 189.55L270.94 191.26L269.67 192.96L268.38 194.64L267.07 196.31L265.75 197.97L264.41 199.62L263.05 201.25L261.68 202.87L260.28 204.48L258.88 206.07L257.45 207.65L256.01 209.21L254.55 210.76L253.07 212.29L251.58 213.81L250.07 215.32L210.2 254.71L189.58 234.09L298.19 140.23L298.05 140.85L297.84 141.69L297.84 141.69L297.6 142.53ZM167 219.76L180.31 233.06L150.39 237.09L150.39 237.09L167 219.76ZM291.4 114.47L291.98 115.13L292.53 115.81L293.05 116.5L293.56 117.2L294.04 117.92L294.5 118.65L294.94 119.39L295.36 120.14L295.75 120.9L296.12 121.67L296.47 122.45L296.79 123.24L297.09 124.04L297.37 124.84L297.62 125.65L297.85 126.47L298.01 127.1L297.04 134.1L186.14 230.65L173.91 218.42L275.84 113.4L289.07 112.06L290.2 113.18L290.81 113.82L290.81 113.82L291.4 114.47ZM123.51 225.81L123.28 225.83L123.06 225.84L122.85 225.84L122.64 225.81L122.43 225.78L122.23 225.73L122.04 225.67L121.85 225.6L121.67 225.52L121.5 225.42L121.33 225.32L121.17 225.2L121.02 225.08L120.88 224.94L120.74 224.8L120.62 224.65L120.5 224.5L120.39 224.34L120.3 224.17L120.21 223.99L120.13 223.82L120.06 223.63L120.01 223.45L119.96 223.26L119.93 223.06L119.91 222.87L119.9 222.67L119.9 222.48L119.92 222.28L119.95 222.08L119.99 221.89L120.05 221.69L120.12 221.5L120.2 221.31L120.3 221.12L120.41 220.94L120.54 220.76L120.68 220.58L120.84 220.41L144.22 196.97L164.56 217.31L123.74 225.77L123.74 225.77L123.51 225.81ZM267.47 100.55L268.42 100.64L269.37 100.77L270.31 100.93L271.24 101.12L272.17 101.33L273.1 101.58L274.01 101.85L274.92 102.16L275.82 102.49L276.71 102.85L277.59 103.24L278.46 103.65L279.31 104.1L280.16 104.57L280.99 105.08L281.81 105.61L281.93 105.69L281.54 107.7L272.34 109.89L170.42 214.93L170.42 214.93L148.34 192.84L199.11 141.93L200.25 140.8L201.4 139.67L202.56 138.56L203.72 137.45L204.89 136.35L206.07 135.26L207.26 134.18L208.46 133.11L209.66 132.05L210.87 131L212.09 129.95L213.32 128.92L214.56 127.9L215.8 126.88L217.05 125.88L218.31 124.88L219.57 123.89L220.84 122.92L222.12 121.95L223.41 120.99L224.7 120.05L226 119.11L227.31 118.18L228.63 117.26L229.95 116.35L231.28 115.46L232.61 114.57L233.96 113.69L235.31 112.82L236.66 111.96L238.02 111.12L239.39 110.28L240.77 109.45L242.15 108.63L243.54 107.83L244.93 107.03L246.34 106.24L247.74 105.47L249.16 104.7L250.58 103.95L250.58 103.95L251.47 103.5L252.37 103.08L253.28 102.69L254.2 102.33L255.12 102L256.06 101.71L256.99 101.44L257.94 101.21L258.88 101.01L259.83 100.83L260.79 100.69L261.74 100.58L262.7 100.5L263.65 100.45L264.61 100.43L265.57 100.44L266.52 100.48L266.52 100.48L267.47 100.55Z" id="a1Cm7GF93V"></path><path d="M325.23 37.94L326.78 38.17L328.33 38.46L329.88 38.81L331.41 39.21L332.93 39.68L334.43 40.2L335.92 40.79L337.39 41.43L338.84 42.14L340.27 42.9L341.68 43.72L343.06 44.6L344.42 45.55L345.74 46.55L345.98 46.74L312.42 80.3L312.24 80.49L312.08 80.68L311.92 80.87L311.77 81.07L311.63 81.27L311.5 81.48L311.37 81.69L311.26 81.91L311.16 82.13L311.06 82.35L310.98 82.57L310.9 82.8L310.83 83.03L310.77 83.26L310.72 83.5L310.68 83.73L310.65 83.97L310.63 84.2L310.61 84.44L310.61 84.68L310.61 84.91L310.63 85.15L310.65 85.39L310.68 85.62L310.72 85.86L310.77 86.09L310.83 86.32L310.9 86.55L310.98 86.78L311.06 87L311.16 87.22L311.26 87.44L311.37 87.66L311.5 87.87L311.63 88.08L311.77 88.28L311.92 88.48L312.08 88.67L312.24 88.86L312.42 89.05L338.88 115.51L338.28 115.79L336.82 116.4L335.35 116.95L333.85 117.44L332.34 117.87L330.82 118.24L329.29 118.55L327.74 118.8L326.19 118.99L324.63 119.12L323.07 119.19L321.5 119.2L319.94 119.15L318.37 119.05L316.81 118.88L315.25 118.65L313.7 118.36L312.16 118.02L310.63 117.61L309.11 117.14L307.6 116.62L306.11 116.03L304.64 115.39L303.19 114.69L301.76 113.92L300.35 113.1L298.97 112.22L297.62 111.28L296.29 110.28L295 109.22L293.74 108.1L292.51 106.92L291.33 105.69L290.21 104.43L289.15 103.14L288.15 101.81L287.21 100.46L286.33 99.08L285.51 97.67L284.74 96.24L284.04 94.79L283.39 93.32L282.81 91.83L282.28 90.32L281.82 88.8L281.41 87.27L281.07 85.73L280.78 84.18L280.55 82.62L280.38 81.06L280.27 79.49L280.23 77.93L280.24 76.36L280.31 74.8L280.44 73.24L280.63 71.68L280.88 70.14L281.19 68.61L281.56 67.08L281.99 65.57L282.48 64.08L283.03 62.61L283.64 61.15L284.31 59.71L285.04 58.3L285.83 56.91L286.68 55.55L287.59 54.22L288.55 52.92L289.58 51.65L290.67 50.42L291.82 49.22L293.02 48.07L294.26 46.98L295.53 45.95L296.83 44.98L298.16 44.07L299.52 43.22L300.91 42.43L302.32 41.7L303.75 41.03L305.21 40.42L306.69 39.87L308.18 39.38L309.69 38.95L311.21 38.58L312.75 38.27L314.29 38.02L315.84 37.83L317.4 37.7L318.96 37.63L320.53 37.62L322.1 37.67L323.66 37.78L323.66 37.78L325.23 37.94ZM353.88 55.01L354.82 56.37L355.7 57.75L356.53 59.15L357.29 60.58L357.99 62.03L358.64 63.51L359.22 64.99L359.75 66.5L360.21 68.02L360.62 69.55L360.97 71.09L361.25 72.64L361.48 74.2L361.65 75.76L361.76 77.33L361.81 78.9L361.8 80.46L361.72 82.03L361.59 83.58L361.4 85.14L361.15 86.68L360.84 88.22L360.47 89.74L360.04 91.25L359.55 92.74L359 94.22L358.39 95.67L357.73 97.11L357 98.52L356.21 99.91L355.36 101.27L354.45 102.6L353.48 103.9L352.45 105.17L351.36 106.41L350.21 107.6L349.01 108.75L347.78 109.84L346.51 110.87L345.21 111.84L344.98 111.99L318.1 85.12L351.35 51.87L351.82 52.39L352.88 53.69L352.88 53.69L353.88 55.01ZM348.73 79.33L348.86 80.35L348.91 81.37L348.86 82.39L348.71 83.4L348.48 84.39L348.16 85.36L347.74 86.3L347.24 87.21L345.41 90.19L351.41 92.13L351.41 92.13L352.65 90.6L353.69 88.96L354.52 87.23L355.14 85.42L355.55 83.55L355.75 81.64L355.72 79.72L355.46 77.8L354.97 75.89L354.28 73.75L347.97 76.43L348.5 78.32L348.5 78.32L348.73 79.33Z" id="aocu7yZbz"></path></defs><g><g><g><use xlink:href="#a1Cm7GF93V" opacity="1" fill="#ffffff" fill-opacity="1"></use><g><use xlink:href="#a1Cm7GF93V" opacity="1" fill-opacity="0" stroke="#000000" stroke-width="1" stroke-opacity="1"></use></g></g><g><use xlink:href="#aocu7yZbz" opacity="1" fill="#ffffff" fill-opacity="1"></use><g><use xlink:href="#aocu7yZbz" opacity="1" fill-opacity="0" stroke="#000000" stroke-width="1" stroke-opacity="1"></use></g></g></g></g></svg>