<?xml version="1.0" encoding="UTF-8" standalone="no"?>
<!DOCTYPE svg PUBLIC "-//W3C//DTD SVG 1.1//EN" "http://www.w3.org/Graphics/SVG/1.1/DTD/svg11.dtd">
<svg version="1.1" xmlns="http://www.w3.org/2000/svg" xmlns:xlink="http://www.w3.org/1999/xlink" preserveAspectRatio="xMidYMid meet" viewBox="0 0 400 400" width="400" height="400"><defs><path d="M251.67 241.56L287.6 303.83L274.47 311.41L238.54 249.15L251.67 241.56Z" id="aYo8duekH"></path><path d="M46 70.44L354 70.44L354 319.79L46 319.79L46 70.44Z" id="eDsEz9Z31"></path><path d="M62.86 88.21L337.53 88.21L337.53 282.22L62.86 282.22L62.86 88.21Z" id="d2Y9881A7"></path><path d="M307.57 156.37C307.57 166.98 298.96 175.59 288.35 175.59C277.75 175.59 269.14 166.98 269.14 156.37C269.14 145.76 277.75 137.15 288.35 137.15C298.96 137.15 307.57 145.76 307.57 156.37Z" id="c1ygd41on3"></path><path d="M60.86 294.89L339.53 294.89L339.53 261.55L298.2 234.88L247.53 261.55L112.2 151.54L60.86 195.11L60.86 294.89Z" id="c4At1RK4iH"></path></defs><g><g><g><use xlink:href="#aYo8duekH" opacity="1" fill="#ffffff" fill-opacity="1"></use></g><g><use xlink:href="#eDsEz9Z31" opacity="1" fill="#ffffff" fill-opacity="1"></use><g><use xlink:href="#eDsEz9Z31" opacity="1" fill-opacity="0" stroke="#000000" stroke-width="1" stroke-opacity="1"></use></g></g><g><use xlink:href="#d2Y9881A7" opacity="1" fill="#000000" fill-opacity="1"></use></g><g><use xlink:href="#c1ygd41on3" opacity="1" fill="#ffffff" fill-opacity="1"></use></g><g><use xlink:href="#c4At1RK4iH" opacity="1" fill="#ffffff" fill-opacity="1"></use></g></g></g></svg>