<?xml version="1.0" encoding="UTF-8" standalone="no"?>
<!DOCTYPE svg PUBLIC "-//W3C//DTD SVG 1.1//EN" "http://www.w3.org/Graphics/SVG/1.1/DTD/svg11.dtd">
<svg version="1.1" xmlns="http://www.w3.org/2000/svg" xmlns:xlink="http://www.w3.org/1999/xlink" preserveAspectRatio="xMidYMid meet" viewBox="0 0 400 400" width="400" height="400"><defs><path d="M77.81 277.8C74.59 275.97 72.58 274.83 71.78 274.37C52.13 263.2 40 242.34 40 219.74C40 202.24 40 189.47 40 172.76C40 148.89 56.16 128.05 79.28 122.11C79.28 122.11 79.28 122.11 79.28 122.11L198.31 122.11L198.31 109.34L122.52 109.34C122.52 94.73 122.52 85.6 122.52 81.95C122.52 58.08 141.87 38.74 165.73 38.74C187.39 38.74 205.31 38.74 226.01 38.74C252.53 38.74 274.04 60.24 274.04 86.77C274.04 108.07 274.04 132.3 274.04 155.7C274.04 176.45 257.21 193.27 236.46 193.27C211.23 193.27 175.61 193.27 151 193.27C128.53 193.27 110.31 211.49 110.31 233.97C110.31 239.81 110.31 254.42 110.31 277.8L77.81 277.8Z" id="e4TuC0BZqv"></path><path d="M169.39 76.86C169.39 84.37 163.3 90.46 155.79 90.46C148.28 90.46 142.18 84.37 142.18 76.86C142.18 69.35 148.28 63.25 155.79 63.25C163.3 63.25 169.39 69.35 169.39 76.86Z" id="c216vAEvx3"></path><path d="M322.19 122.2C325.41 124.03 327.42 125.17 328.22 125.63C347.87 136.8 360 157.66 360 180.26C360 197.76 360 210.53 360 227.24C360 251.11 343.84 271.95 320.72 277.89C320.72 277.89 320.72 277.89 320.72 277.89L201.69 277.89L201.69 290.66L277.48 290.66C277.48 305.27 277.48 314.4 277.48 318.05C277.48 341.92 258.13 361.26 234.27 361.26C212.61 361.26 194.69 361.26 173.99 361.26C147.47 361.26 125.96 339.76 125.96 313.23C125.96 291.93 125.96 267.7 125.96 244.3C125.96 223.55 142.79 206.73 163.54 206.73C188.77 206.73 224.39 206.73 249 206.73C271.47 206.73 289.69 188.51 289.69 166.03C289.69 160.19 289.69 145.58 289.69 122.2L322.19 122.2Z" id="a3JyfQfoL"></path><path d="M230.61 323.14C230.61 315.63 236.7 309.54 244.21 309.54C251.72 309.54 257.82 315.63 257.82 323.14C257.82 330.65 251.72 336.75 244.21 336.75C236.7 336.75 230.61 330.65 230.61 323.14Z" id="bL3drGZtL"></path></defs><g><g><g><use xlink:href="#e4TuC0BZqv" opacity="1" fill="#ffffff" fill-opacity="1"></use><g><use xlink:href="#e4TuC0BZqv" opacity="1" fill-opacity="0" stroke="#000000" stroke-width="1" stroke-opacity="1"></use></g></g><g><use xlink:href="#c216vAEvx3" opacity="1" fill="#000000" fill-opacity="1"></use><g><use xlink:href="#c216vAEvx3" opacity="1" fill-opacity="0" stroke="#000000" stroke-width="1" stroke-opacity="1"></use></g></g><g><use xlink:href="#a3JyfQfoL" opacity="1" fill="#ffffff" fill-opacity="1"></use><g><use xlink:href="#a3JyfQfoL" opacity="1" fill-opacity="0" stroke="#000000" stroke-width="1" stroke-opacity="1"></use></g></g><g><use xlink:href="#bL3drGZtL" opacity="1" fill="#000000" fill-opacity="1"></use><g><use xlink:href="#bL3drGZtL" opacity="1" fill-opacity="0" stroke="#000000" stroke-width="1" stroke-opacity="1"></use></g></g></g></g></svg>