<?xml version="1.0" encoding="UTF-8" standalone="no"?>
<!DOCTYPE svg PUBLIC "-//W3C//DTD SVG 1.1//EN" "http://www.w3.org/Graphics/SVG/1.1/DTD/svg11.dtd">
<svg version="1.1" xmlns="http://www.w3.org/2000/svg" xmlns:xlink="http://www.w3.org/1999/xlink" preserveAspectRatio="xMidYMid meet" viewBox="0 0 400 400" width="400" height="400"><defs><path d="M211.07 65.45L216.51 66L221.89 66.77L227.19 67.74L232.43 68.93L237.58 70.31L242.65 71.89L247.64 73.66L252.53 75.62L257.32 77.76L262.02 80.08L266.61 82.57L271.09 85.24L275.46 88.07L279.71 91.06L283.84 94.21L287.84 97.51L291.71 100.96L295.44 104.56L299.04 108.29L302.49 112.16L305.79 116.16L308.94 120.29L311.93 124.54L314.76 128.91L317.43 133.39L319.92 137.98L322.24 142.68L324.38 147.47L326.34 152.36L328.11 157.35L329.69 162.42L331.07 167.57L332.26 172.81L333.23 178.11L334 183.49L334.55 188.93L334.89 194.44L335 200L334.89 205.56L334.55 211.07L334 216.51L333.23 221.89L332.26 227.19L331.07 232.43L329.69 237.58L328.11 242.65L326.34 247.64L324.38 252.53L322.24 257.32L319.92 262.02L317.43 266.61L314.76 271.09L311.93 275.46L311.02 276.75L311.02 281.81L335 304.85L335 335L305.26 335L282.79 312.55L275.61 311.82L275.46 311.93L271.09 314.76L266.61 317.43L262.02 319.92L257.32 322.24L252.53 324.38L247.64 326.34L242.65 328.11L237.58 329.69L232.43 331.07L227.19 332.26L221.89 333.23L216.51 334L211.07 334.55L205.56 334.89L200 335L194.44 334.89L188.93 334.55L183.49 334L178.11 333.23L172.81 332.26L167.57 331.07L162.42 329.69L157.35 328.11L152.36 326.34L147.47 324.38L142.68 322.24L137.98 319.92L133.39 317.43L128.91 314.76L124.54 311.93L120.29 308.94L116.16 305.79L112.16 302.49L108.29 299.04L104.56 295.44L100.96 291.71L97.51 287.84L94.21 283.84L91.06 279.71L88.07 275.46L85.24 271.09L82.57 266.61L80.08 262.02L77.76 257.32L75.62 252.53L73.66 247.64L71.89 242.65L70.31 237.58L68.93 232.43L67.74 227.19L66.77 221.89L66 216.51L65.45 211.07L65.11 205.56L65 200L65.11 194.44L65.45 188.93L66 183.49L66.77 178.11L67.74 172.81L68.93 167.57L70.31 162.42L71.89 157.35L73.66 152.36L75.62 147.47L77.76 142.68L80.08 137.98L82.57 133.39L85.24 128.91L88.07 124.54L91.06 120.29L94.21 116.16L97.51 112.16L100.96 108.29L104.56 104.56L108.29 100.96L112.16 97.51L116.16 94.21L120.29 91.06L124.54 88.07L128.91 85.24L133.39 82.57L137.98 80.08L142.68 77.76L147.47 75.62L152.36 73.66L157.35 71.89L162.42 70.31L167.57 68.93L172.81 67.74L178.11 66.77L183.49 66L188.93 65.45L194.44 65.11L200 65L205.56 65.11L211.07 65.45Z" id="b2qWU5GSIH"></path><path d="M285 200C285 246.91 246.91 285 200 285C153.09 285 115 246.91 115 200C115 153.09 153.09 115 200 115C246.91 115 285 153.09 285 200Z" id="aLUdJTNsb"></path></defs><g><g><g><use xlink:href="#b2qWU5GSIH" opacity="1" fill="#ffffff" fill-opacity="1"></use><g><use xlink:href="#b2qWU5GSIH" opacity="1" fill-opacity="0" stroke="#000000" stroke-width="1" stroke-opacity="1"></use></g></g><g><use xlink:href="#aLUdJTNsb" opacity="1" fill="#000000" fill-opacity="1"></use></g></g></g></svg>