<?xml version="1.0" encoding="UTF-8" standalone="no"?>
<!DOCTYPE svg PUBLIC "-//W3C//DTD SVG 1.1//EN" "http://www.w3.org/Graphics/SVG/1.1/DTD/svg11.dtd">
<svg version="1.1" xmlns="http://www.w3.org/2000/svg" xmlns:xlink="http://www.w3.org/1999/xlink" preserveAspectRatio="xMidYMid meet" viewBox="0 0 400 400" width="400" height="400"><defs><path d="M258.88 181.39L326.47 142.61C343.48 170.85 354.11 188.49 358.36 195.55C367.1 210.05 367.22 228.16 358.68 242.77C347.41 262.03 325.71 299.16 314.01 319.18C306.79 331.52 293.57 339.1 279.28 339.1C275.28 339.1 265.29 339.1 249.31 339.1L249.31 370.13L210.16 301.8L249.31 233.84L249.31 263.02C273.99 263.02 289.41 263.02 295.57 263.02C300.58 263.02 303.69 257.58 301.15 253.26C295.52 243.68 281.43 219.72 258.88 181.39Z" id="caNVH6nn"></path><path d="M193.67 261.37L193.46 339.3C160.5 339.91 139.9 340.29 131.66 340.45C114.74 340.76 99 331.81 90.62 317.11C79.56 297.72 58.26 260.37 46.78 240.22C39.7 227.8 39.74 212.56 46.89 200.18C48.88 196.72 53.88 188.07 61.87 174.23L35 158.72L113.75 158.98L153.03 226.86L127.76 212.27C115.42 233.64 107.71 247 104.63 252.34C102.13 256.67 105.28 262.09 110.29 262.05C121.41 261.96 149.2 261.73 193.67 261.37Z" id="aacCo85Nx"></path><path d="M156.99 163.83L89.61 124.69C105.55 95.84 115.52 77.81 119.51 70.59C127.69 55.78 143.32 46.62 160.24 46.72C182.56 46.84 225.56 47.07 248.75 47.2C263.04 47.28 276.22 54.93 283.37 67.31C285.37 70.77 290.36 79.42 298.35 93.26L325.22 77.75L285.62 145.82L207.19 145.89L232.46 131.3C220.12 109.94 212.41 96.58 209.33 91.24C206.83 86.9 200.56 86.93 198.09 91.29C192.61 100.96 178.91 125.14 156.99 163.83Z" id="amJkkB9bV"></path></defs><g><g><g><use xlink:href="#caNVH6nn" opacity="1" fill="#ffffff" fill-opacity="1"></use><g><use xlink:href="#caNVH6nn" opacity="1" fill-opacity="0" stroke="#000000" stroke-width="1" stroke-opacity="1"></use></g></g><g><use xlink:href="#aacCo85Nx" opacity="1" fill="#ffffff" fill-opacity="1"></use><g><use xlink:href="#aacCo85Nx" opacity="1" fill-opacity="0" stroke="#000000" stroke-width="1" stroke-opacity="1"></use></g></g><g><use xlink:href="#amJkkB9bV" opacity="1" fill="#ffffff" fill-opacity="1"></use><g><use xlink:href="#amJkkB9bV" opacity="1" fill-opacity="0" stroke="#000000" stroke-width="1" stroke-opacity="1"></use></g></g></g></g></svg>