<?xml version="1.0" encoding="UTF-8" standalone="no"?>
<!DOCTYPE svg PUBLIC "-//W3C//DTD SVG 1.1//EN" "http://www.w3.org/Graphics/SVG/1.1/DTD/svg11.dtd">
<svg version="1.1" xmlns="http://www.w3.org/2000/svg" xmlns:xlink="http://www.w3.org/1999/xlink" preserveAspectRatio="xMidYMid meet" viewBox="0 0 400 400" width="400" height="400"><defs><path d="M86.12 314.97L182.1 314.97L127.25 218.04C127.25 218.05 127.25 218.05 127.25 218.05C109.83 241.64 77.72 248.82 51.91 234.9C49.68 233.69 44.11 230.69 35.19 225.88L86.12 314.97Z" id="cNFa4sZHj"></path><path d="M126.62 167.62C126.62 196.21 103.4 219.41 74.81 219.41C46.21 219.41 23 196.21 23 167.62C23 139.03 46.21 115.82 74.81 115.82C103.4 115.82 126.62 139.03 126.62 167.62Z" id="h7FfTfeR"></path><path d="M102.97 167.33C102.97 182.86 90.35 195.47 74.81 195.47C59.27 195.47 46.65 182.86 46.65 167.33C46.65 151.79 59.27 139.18 74.81 139.18C90.35 139.18 102.97 151.79 102.97 167.33Z" id="mIUqMdMjc"></path><path d="M140.96 195.47L211.48 195.47L222.25 208.15L254.31 208.15C270.86 227.53 281.2 239.65 285.34 244.49C289.63 249.52 296.92 250.71 302.59 247.32C312.41 241.45 336.98 226.76 376.28 203.26C376.64 198.93 376.87 196.22 376.96 195.14C377.4 189.88 374.24 184.99 369.27 183.22C368.34 182.89 366.02 182.06 362.3 180.74L299.62 218.04L267.3 180.74L267.3 154.43L299.62 118.08L362.3 154.43C365.1 153.48 366.85 152.88 367.55 152.65C374.4 150.31 378.08 142.89 375.79 136.02C375.56 135.33 374.98 133.59 374.05 130.8C338.2 107.92 315.8 93.61 306.83 87.89C298.87 82.81 288.35 84.65 282.58 92.13C279.01 96.76 270.08 108.35 255.79 126.89L218.33 126.89L211.48 139.18L140.96 139.18C140.97 139.18 140.97 139.18 140.97 139.18C149.96 156.86 149.96 177.79 140.97 195.47C140.97 195.47 140.97 195.47 140.96 195.47Z" id="a1MJ6mc1iv"></path></defs><g><g><g><use xlink:href="#cNFa4sZHj" opacity="1" fill="#ffffff" fill-opacity="1"></use><g><use xlink:href="#cNFa4sZHj" opacity="1" fill-opacity="0" stroke="#000000" stroke-width="1" stroke-opacity="1"></use></g></g><g><use xlink:href="#h7FfTfeR" opacity="1" fill="#ffffff" fill-opacity="1"></use><g><use xlink:href="#h7FfTfeR" opacity="1" fill-opacity="0" stroke="#000000" stroke-width="1" stroke-opacity="1"></use></g></g><g><use xlink:href="#mIUqMdMjc" opacity="1" fill="#000000" fill-opacity="1"></use></g><g><use xlink:href="#a1MJ6mc1iv" opacity="1" fill="#ffffff" fill-opacity="1"></use><g><use xlink:href="#a1MJ6mc1iv" opacity="1" fill-opacity="0" stroke="#000000" stroke-width="1" stroke-opacity="1"></use></g></g></g></g></svg>