<?xml version="1.0" encoding="UTF-8" standalone="no"?>
<!DOCTYPE svg PUBLIC "-//W3C//DTD SVG 1.1//EN" "http://www.w3.org/Graphics/SVG/1.1/DTD/svg11.dtd">
<svg version="1.1" xmlns="http://www.w3.org/2000/svg" xmlns:xlink="http://www.w3.org/1999/xlink" preserveAspectRatio="xMidYMid meet" viewBox="0 0 400 400" width="400" height="400"><defs><path d="M103.06 182.06C110.05 175.17 119.71 171.69 129.49 172.53C131.9 172.74 130.74 172.64 134.91 173C138.95 173.35 142.83 171.31 144.83 167.77C151.51 155.95 142.97 171.06 143.33 170.43C165.83 130.62 202.11 100.4 245.33 85.45C253.74 82.54 243.56 86.06 259.88 80.42C278.14 74.11 297.05 69.89 316.26 67.85C320.34 67.42 330.54 66.34 346.86 64.6C345.45 76.21 344.57 83.46 344.22 86.37C341 112.86 334.26 138.8 324.16 163.5C318.25 177.96 322.31 168.03 318.04 178.47C302.95 215.37 274.65 245.32 238.66 262.47C238.19 262.7 252.27 255.98 241.69 261.02C238.43 262.58 236.42 265.94 236.59 269.56C236.79 273.81 236.69 271.57 236.78 273.57C237.3 284.54 233.1 295.2 225.23 302.86C214.97 312.85 195.2 332.11 184.59 342.43C177.53 349.31 169.4 355.02 160.54 359.35C156.74 361.2 151.23 363.89 145.56 366.66C143.96 367.44 142.18 366 142.6 364.28C146.02 350.14 154.34 315.77 157.54 302.56C158.28 299.5 154.8 297.18 152.26 299.04C149.65 300.95 150.6 300.25 148.32 301.92C143.07 305.76 135.8 305.16 131.25 300.51C124.94 294.08 112.63 281.52 105.99 274.75C102.23 270.91 101.31 265.1 103.72 260.29C105.13 257.47 105.23 257.27 106.61 254.51C108.26 251.2 105.32 247.45 101.71 248.27C88.2 251.33 55.06 258.85 41.13 262.01C38.3 262.65 35.96 259.75 37.19 257.11C38.96 253.36 36.59 258.41 37.19 257.11C43.02 244.69 51.01 233.39 60.78 223.75C71.44 213.24 91.65 193.32 103.06 182.06Z" id="a921BZ5NR"></path><path d="M287.35 145.33C287.35 158.32 276.8 168.87 263.81 168.87C250.81 168.87 240.26 158.32 240.26 145.33C240.26 132.33 250.81 121.78 263.81 121.78C276.8 121.78 287.35 132.33 287.35 145.33Z" id="b4SzkmBvI"></path><path d="M69.84 334.9C72.09 335.24 73.5 335.45 74.06 335.54C87.07 337.5 100.14 332.36 108.31 322.05C108.74 321.51 109.82 320.15 111.53 317.99L116.54 319.89C115.19 324.02 114.35 326.59 114.01 327.62C108.88 343.35 93.94 353.76 77.41 353.13C71.8 352.91 65.54 352.67 55.59 352.29C52.18 352.16 49.55 349.24 49.79 345.83C50.51 335.5 51.19 325.89 51.64 319.35C52.66 304.79 64 293.08 78.52 291.6C79.84 291.47 83.14 291.13 88.42 290.59L88.42 294.17C88.42 294.17 88.42 294.17 88.42 294.17C76.39 299.18 68.78 311.18 69.36 324.2C69.43 325.63 69.59 329.19 69.84 334.9Z" id="bi9r8rQfn"></path></defs><g><g><g><use xlink:href="#a921BZ5NR" opacity="1" fill="#ffffff" fill-opacity="1"></use><g><use xlink:href="#a921BZ5NR" opacity="1" fill-opacity="0" stroke="#000000" stroke-width="1" stroke-opacity="1"></use></g></g><g><use xlink:href="#b4SzkmBvI" opacity="1" fill="#000000" fill-opacity="1"></use><g><use xlink:href="#b4SzkmBvI" opacity="1" fill-opacity="0" stroke="#000000" stroke-width="1" stroke-opacity="1"></use></g></g><g><use xlink:href="#bi9r8rQfn" opacity="1" fill="#ffffff" fill-opacity="1"></use><g><use xlink:href="#bi9r8rQfn" opacity="1" fill-opacity="0" stroke="#000000" stroke-width="1" stroke-opacity="1"></use></g></g></g></g></svg>