<?xml version="1.0" encoding="UTF-8" standalone="no"?>
<!DOCTYPE svg PUBLIC "-//W3C//DTD SVG 1.1//EN" "http://www.w3.org/Graphics/SVG/1.1/DTD/svg11.dtd">
<svg version="1.1" xmlns="http://www.w3.org/2000/svg" xmlns:xlink="http://www.w3.org/1999/xlink" preserveAspectRatio="xMidYMid meet" viewBox="0 0 400 400" width="400" height="400"><defs><path d="M297.97 380.64L297.97 301.97L376.57 301.97L376.57 341.04L337.22 341.04L337.22 380.64L297.97 380.64Z" id="bg2MHoUcS"></path><path d="M61.82 63.23L337.22 63.23L337.22 341.04L61.82 341.04L61.82 63.23Z" id="h1zrGiMXzx"></path><path d="M138.35 59.66L161.87 59.66L161.87 107.87L138.35 107.87L138.35 59.66Z" id="e3gOty2zL"></path><path d="M238.37 59.66L261.89 59.66L261.89 107.87L238.37 107.87L238.37 59.66Z" id="j1WMMNA5tA"></path><path d="M138.35 296.5L161.87 296.5L161.87 344.71L138.35 344.71L138.35 296.5Z" id="aXoMzQCrc"></path><path d="M238.37 296.5L261.89 296.5L261.89 344.71L238.37 344.71L238.37 296.5Z" id="f7blffByK"></path><path d="M340.53 140.11L340.53 162.73L292.32 162.73L292.32 140.11L340.53 140.11Z" id="f22Amn0tGg"></path><path d="M340.53 242.85L340.53 265.46L292.32 265.46L292.32 242.85L340.53 242.85Z" id="bVCxQLTbS"></path><path d="M104.78 140.11L104.78 162.73L56.57 162.73L56.57 140.11L104.78 140.11Z" id="m46IraQatw"></path><path d="M104.78 242.85L104.78 265.46L56.57 265.46L56.57 242.85L104.78 242.85Z" id="c2SD8TkcAb"></path><path d="M100.91 103.11L297.97 103.11L297.97 301.97L100.91 301.97L100.91 103.11Z" id="buhwO1SI"></path></defs><g><g><g><use xlink:href="#bg2MHoUcS" opacity="1" fill="#ffffff" fill-opacity="1"></use></g><g><use xlink:href="#h1zrGiMXzx" opacity="1" fill="#ffffff" fill-opacity="1"></use></g><g><use xlink:href="#e3gOty2zL" opacity="1" fill="#000000" fill-opacity="1"></use></g><g><use xlink:href="#j1WMMNA5tA" opacity="1" fill="#000000" fill-opacity="1"></use></g><g><use xlink:href="#aXoMzQCrc" opacity="1" fill="#000000" fill-opacity="1"></use></g><g><use xlink:href="#f7blffByK" opacity="1" fill="#000000" fill-opacity="1"></use></g><g><use xlink:href="#f22Amn0tGg" opacity="1" fill="#000000" fill-opacity="1"></use></g><g><use xlink:href="#bVCxQLTbS" opacity="1" fill="#000000" fill-opacity="1"></use></g><g><use xlink:href="#m46IraQatw" opacity="1" fill="#000000" fill-opacity="1"></use></g><g><use xlink:href="#c2SD8TkcAb" opacity="1" fill="#000000" fill-opacity="1"></use></g><g><use xlink:href="#buhwO1SI" opacity="1" fill="#000000" fill-opacity="1"></use></g></g></g></svg>