<?xml version="1.0" encoding="UTF-8" standalone="no"?>
<!DOCTYPE svg PUBLIC "-//W3C//DTD SVG 1.1//EN" "http://www.w3.org/Graphics/SVG/1.1/DTD/svg11.dtd">
<svg version="1.1" xmlns="http://www.w3.org/2000/svg" xmlns:xlink="http://www.w3.org/1999/xlink" preserveAspectRatio="xMidYMid meet" viewBox="0 0 400 400" width="400" height="400"><defs><path d="M73.84 340.77L215.61 340.77C215.32 340.56 215.14 340.43 215.07 340.38C187.93 320.61 183.98 281.64 206.61 256.83C206.61 256.83 206.61 256.83 206.61 256.83L58.22 256.83C56.18 258.83 54.91 260.08 54.41 260.57C28.47 286.05 39.12 329.99 73.84 340.77C73.84 340.77 73.84 340.77 73.84 340.77Z" id="be0CzML62"></path><path d="M360 102.47L269.96 102.47C270.14 100.82 270.25 99.79 270.29 99.37C275.93 46.45 352.64 45.59 359.47 98.37C359.54 98.92 359.72 100.29 360 102.47Z" id="b7xuJgq4b"></path><path d="M71.14 83.12C56.65 106.29 56.05 135.54 69.58 159.27C75.23 169.2 74.66 168.18 81.42 180.05C92.36 199.25 101.87 219.24 109.85 239.86C109.85 239.86 109.85 239.86 109.85 239.86L249.05 239.86C249.05 239.86 249.05 239.86 249.05 239.86C258.13 241.04 258.9 253.88 250.03 256.14C249.67 256.23 248.77 256.46 247.33 256.83C240.99 258.29 237.02 259.21 235.43 259.57C220 263.13 209.07 276.87 209.07 292.71C209.07 297.36 209.07 287.3 209.07 292.71C209.07 307.05 216.86 320.26 229.41 327.19C239.36 332.68 230.01 327.52 235.24 330.41C259.86 344 290.8 335.95 305.67 312.09C310.7 304.03 300.37 320.6 305.67 312.09C321.22 287.14 322.34 255.81 308.62 229.81C294.09 202.28 271.21 158.93 256.32 130.71C244.43 108.19 249.77 80.43 269.16 63.92C269.9 63.3 271.74 61.73 274.68 59.23C189.12 59.23 135.65 59.23 114.27 59.23C96.73 59.23 80.44 68.26 71.14 83.12C66.43 90.65 74.13 78.35 71.14 83.12Z" id="c1Yyk5hv2V"></path></defs><g><g><g><use xlink:href="#be0CzML62" opacity="1" fill="#ffffff" fill-opacity="1"></use><g><use xlink:href="#be0CzML62" opacity="1" fill-opacity="0" stroke="#000000" stroke-width="1" stroke-opacity="1"></use></g></g><g><use xlink:href="#b7xuJgq4b" opacity="1" fill="#ffffff" fill-opacity="1"></use><g><use xlink:href="#b7xuJgq4b" opacity="1" fill-opacity="0" stroke="#000000" stroke-width="1" stroke-opacity="1"></use></g></g><g><use xlink:href="#c1Yyk5hv2V" opacity="1" fill="#ffffff" fill-opacity="1"></use><g><use xlink:href="#c1Yyk5hv2V" opacity="1" fill-opacity="0" stroke="#000000" stroke-width="1" stroke-opacity="1"></use></g></g></g></g></svg>