<?xml version="1.0" encoding="UTF-8" standalone="no"?>
<!DOCTYPE svg PUBLIC "-//W3C//DTD SVG 1.1//EN" "http://www.w3.org/Graphics/SVG/1.1/DTD/svg11.dtd">
<svg version="1.1" xmlns="http://www.w3.org/2000/svg" xmlns:xlink="http://www.w3.org/1999/xlink" preserveAspectRatio="xMidYMid meet" viewBox="0 0 400 400" width="400" height="400"><defs><path d="M108.81 131.73L95.54 154.68L40 160.72L40 241.33L94.06 245.16L108.81 270.18L84.23 320.36L155.01 361.64L186.46 316.42L213.2 316.42L246.42 363.12L314.93 322.76L290.85 270.18L305.45 249.53L360 243.64L360 163.03L305.45 154.68L290.85 130.3L314.93 80.58L242.68 40.85L213.2 84.1L184.69 84.1L152.25 38.88L85.9 79.19L108.81 131.73Z" id="e2VzgqifDv"></path><path d="M320.58 201C320.58 267.55 266.55 321.58 200 321.58C133.45 321.58 79.42 267.55 79.42 201C79.42 134.45 133.45 80.42 200 80.42C266.55 80.42 320.58 134.45 320.58 201Z" id="ea4AHUXvm5"></path><path d="M259.6 198.62C259.6 231.51 232.89 258.21 200 258.21C167.11 258.21 140.4 231.51 140.4 198.62C140.4 165.73 167.11 139.02 200 139.02C232.89 139.02 259.6 165.73 259.6 198.62Z" id="biqQuvLi"></path></defs><g><g><g><use xlink:href="#e2VzgqifDv" opacity="1" fill="#ffffff" fill-opacity="1"></use><g><use xlink:href="#e2VzgqifDv" opacity="1" fill-opacity="0" stroke="#000000" stroke-width="1" stroke-opacity="1"></use></g></g><g><use xlink:href="#ea4AHUXvm5" opacity="1" fill="#ffffff" fill-opacity="1"></use></g><g><use xlink:href="#biqQuvLi" opacity="1" fill="#000000" fill-opacity="1"></use><g><use xlink:href="#biqQuvLi" opacity="1" fill-opacity="0" stroke="#000000" stroke-width="1" stroke-opacity="1"></use></g></g></g></g></svg>