<?xml version="1.0" encoding="UTF-8" standalone="no"?>
<!DOCTYPE svg PUBLIC "-//W3C//DTD SVG 1.1//EN" "http://www.w3.org/Graphics/SVG/1.1/DTD/svg11.dtd">
<svg version="1.1" xmlns="http://www.w3.org/2000/svg" xmlns:xlink="http://www.w3.org/1999/xlink" preserveAspectRatio="xMidYMid meet" viewBox="0 0 400 400" width="400" height="400"><defs><path d="M71.79 227.23L126.17 227.23L126.17 351.98L71.79 351.98L71.79 227.23Z" id="lhr4UAqrq"></path><path d="M172.26 192.04L226.64 192.04L226.64 351.98L172.26 351.98L172.26 192.04Z" id="cBjJew6jO"></path><path d="M273.9 168.84L328.28 168.84L328.28 351.98L273.9 351.98L273.9 168.84Z" id="a4u5vkl9r8"></path><path d="M89.92 199.55C135.28 158.06 163.64 132.12 174.98 121.75C177.26 119.66 180.78 119.72 182.99 121.89C191.51 130.23 202.46 140.96 208.31 146.69C217.94 156.13 233.31 156.27 243.1 147.01C250.39 140.12 268.6 122.91 297.74 95.36C306.43 103.59 311.86 108.73 314.04 110.79C318.67 115.17 326.33 112.36 327.03 106.02C328.69 90.89 332.38 57.27 334.14 41.22C334.74 35.74 330.01 31.17 324.56 31.97C307.11 34.51 267.44 40.29 250.47 42.76C245.51 43.49 243.83 49.79 247.77 52.89C250.09 54.71 255.88 59.25 265.16 66.52C245.59 85.07 233.36 96.67 228.47 101.3C226.84 102.85 224.27 102.86 222.63 101.31C213.92 93.11 200.92 80.88 194.77 75.08C185.92 66.75 172.14 66.71 163.25 74.98C149.78 87.5 116.13 118.78 62.29 168.84C61.42 171.62 60.87 173.36 60.66 174.06C55.54 190.34 70.9 205.63 87.16 200.43C87.53 200.31 88.45 200.02 89.92 199.55Z" id="ao5DfW08e"></path></defs><g><g><g><use xlink:href="#lhr4UAqrq" opacity="1" fill="#ffffff" fill-opacity="1"></use><g><use xlink:href="#lhr4UAqrq" opacity="1" fill-opacity="0" stroke="#000000" stroke-width="1" stroke-opacity="1"></use></g></g><g><use xlink:href="#cBjJew6jO" opacity="1" fill="#ffffff" fill-opacity="1"></use><g><use xlink:href="#cBjJew6jO" opacity="1" fill-opacity="0" stroke="#000000" stroke-width="1" stroke-opacity="1"></use></g></g><g><use xlink:href="#a4u5vkl9r8" opacity="1" fill="#ffffff" fill-opacity="1"></use><g><use xlink:href="#a4u5vkl9r8" opacity="1" fill-opacity="0" stroke="#000000" stroke-width="1" stroke-opacity="1"></use></g></g><g><use xlink:href="#ao5DfW08e" opacity="1" fill="#ffffff" fill-opacity="1"></use><g><use xlink:href="#ao5DfW08e" opacity="1" fill-opacity="0" stroke="#000000" stroke-width="1" stroke-opacity="1"></use></g></g></g></g></svg>