<?xml version="1.0" encoding="UTF-8" standalone="no"?>
<!DOCTYPE svg PUBLIC "-//W3C//DTD SVG 1.1//EN" "http://www.w3.org/Graphics/SVG/1.1/DTD/svg11.dtd">
<svg version="1.1" xmlns="http://www.w3.org/2000/svg" xmlns:xlink="http://www.w3.org/1999/xlink" preserveAspectRatio="xMidYMid meet" viewBox="0 0 400 400" width="400" height="400"><defs><path d="M92.25 115.41C110.8 94.36 130.69 79.24 151.93 70.03C183.78 56.23 214.81 58.17 232.41 61.28C250.01 64.4 279.18 72.57 308.2 104.18C327.55 125.25 337.47 154.2 337.97 191.03L370 191.03L314.37 252.86L260.1 191.03L293.4 191.03C285 144.87 263.18 117.19 227.96 107.99C192.74 98.79 158.17 110.59 124.27 143.38L92.25 115.41Z" id="a5p2rSyJNS"></path><path d="M307.75 284.59C289.2 305.64 269.31 320.76 248.07 329.97C216.22 343.77 185.19 341.83 167.59 338.72C149.99 335.6 120.82 327.43 91.8 295.82C72.45 274.75 62.53 245.8 62.03 208.97L30 208.97L85.63 147.14L139.9 208.97L106.6 208.97C115 255.13 136.82 282.81 172.04 292.01C207.26 301.21 241.83 289.41 275.73 256.62L307.75 284.59Z" id="c3iGnXRHc"></path></defs><g><g><g><use xlink:href="#a5p2rSyJNS" opacity="1" fill="#ffffff" fill-opacity="1"></use><g><use xlink:href="#a5p2rSyJNS" opacity="1" fill-opacity="0" stroke="#000000" stroke-width="1" stroke-opacity="1"></use></g></g><g><use xlink:href="#c3iGnXRHc" opacity="1" fill="#ffffff" fill-opacity="1"></use><g><use xlink:href="#c3iGnXRHc" opacity="1" fill-opacity="0" stroke="#000000" stroke-width="1" stroke-opacity="1"></use></g></g></g></g></svg>