<?xml version="1.0" encoding="UTF-8" standalone="no"?>
<!DOCTYPE svg PUBLIC "-//W3C//DTD SVG 1.1//EN" "http://www.w3.org/Graphics/SVG/1.1/DTD/svg11.dtd">
<svg version="1.1" xmlns="http://www.w3.org/2000/svg" xmlns:xlink="http://www.w3.org/1999/xlink" preserveAspectRatio="xMidYMid meet" viewBox="0 0 400 400" width="400" height="400"><defs><path d="M225.81 357.11L225.81 42.89L33.88 75.73L33.88 324.84L225.81 357.11Z" id="b2lOHd2YqP"></path><path d="M176.27 158.95L141.73 163.48L141.73 258.03L116.25 255.77L116.25 164.99L83.42 168.07L83.42 147.63L176.27 135.17L176.27 158.95Z" id="a1feV9DGRb"></path><path d="M275.63 90.29L277.04 90.63L278.43 91.04L279.8 91.5L281.13 92.01L282.43 92.58L283.71 93.2L284.96 93.88L286.16 94.6L287.34 95.37L288.48 96.19L289.58 97.05L290.64 97.95L291.66 98.91L292.64 99.89L293.58 100.92L294.46 102L295.31 103.1L296.1 104.24L296.85 105.42L297.54 106.62L298.17 107.86L298.76 109.13L299.29 110.42L299.77 111.75L300.19 113.09L300.54 114.46L300.83 115.86L301.07 117.27L301.23 118.71L301.33 120.17L301.37 121.64L301.33 123.1L301.23 124.56L301.07 126L300.83 127.42L300.54 128.81L300.19 130.18L299.77 131.53L299.29 132.85L298.76 134.14L298.17 135.41L297.54 136.66L296.85 137.86L296.1 139.04L295.31 140.18L294.46 141.28L293.58 142.35L292.64 143.38L291.66 144.37L290.64 145.32L289.58 146.23L288.48 147.09L287.34 147.9L286.16 148.67L284.96 149.4L283.71 150.08L282.43 150.7L281.13 151.26L279.8 151.77L278.43 152.24L277.04 152.65L275.63 152.99L274.19 153.27L272.73 153.5L271.25 153.65L269.75 153.76L268.23 153.79L266.72 153.76L265.22 153.65L263.74 153.5L262.28 153.27L260.84 152.99L259.44 152.65L258.04 152.24L256.67 151.77L255.34 151.26L254.04 150.7L252.76 150.08L251.52 149.4L250.31 148.67L249.13 147.9L247.99 147.09L246.89 146.23L245.83 145.32L244.81 144.37L243.83 143.38L242.89 142.35L242.88 142.33L242.88 100.94L242.89 100.92L243.83 99.89L244.81 98.91L245.83 97.95L246.89 97.05L247.99 96.19L249.13 95.37L250.31 94.6L251.52 93.88L252.76 93.2L254.04 92.58L255.34 92.01L256.67 91.5L258.04 91.04L259.44 90.63L260.84 90.29L262.28 90.01L263.74 89.78L265.22 89.62L266.72 89.52L268.23 89.49L269.75 89.52L271.25 89.62L272.73 89.78L272.73 89.78L274.19 90.01L275.63 90.29Z" id="e3PmssXpe3"></path><path d="M347.27 168.07C331.33 168.07 318.39 155.86 318.39 140.82C318.39 125.79 331.33 113.58 347.27 113.58C363.21 113.58 376.15 125.79 376.15 140.82C376.15 155.86 363.21 168.07 347.27 168.07Z" id="a20EMZk2Me"></path><path d="M273.39 301.31C288.84 301.31 301.37 288.77 301.37 273.32C301.37 259.29 301.37 224.2 301.37 168.07C297.47 168.07 277.97 168.07 242.88 168.07L242.88 301.31C260.51 301.31 270.68 301.31 273.39 301.31Z" id="b1r5zbOEQB"></path><path d="M347.7 277.75C363.42 277.75 376.15 265.01 376.15 249.29C376.15 241.66 376.15 222.56 376.15 191.99C372.3 191.99 353.04 191.99 318.39 191.99L318.39 277.75C335.33 277.75 345.1 277.75 347.7 277.75Z" id="bQsTz6I6K"></path></defs><g><g><g><use xlink:href="#b2lOHd2YqP" opacity="1" fill="#ffffff" fill-opacity="1"></use><g><use xlink:href="#b2lOHd2YqP" opacity="1" fill-opacity="0" stroke="#000000" stroke-width="1" stroke-opacity="1"></use></g></g><g><use xlink:href="#a1feV9DGRb" opacity="1" fill="#000000" fill-opacity="1"></use><g><use xlink:href="#a1feV9DGRb" opacity="1" fill-opacity="0" stroke="#000000" stroke-width="1" stroke-opacity="1"></use></g></g><g><use xlink:href="#e3PmssXpe3" opacity="1" fill="#ffffff" fill-opacity="1"></use><g><use xlink:href="#e3PmssXpe3" opacity="1" fill-opacity="0" stroke="#000000" stroke-width="1" stroke-opacity="1"></use></g></g><g><use xlink:href="#a20EMZk2Me" opacity="1" fill="#ffffff" fill-opacity="1"></use><g><use xlink:href="#a20EMZk2Me" opacity="1" fill-opacity="0" stroke="#000000" stroke-width="1" stroke-opacity="1"></use></g></g><g><use xlink:href="#b1r5zbOEQB" opacity="1" fill="#ffffff" fill-opacity="1"></use><g><use xlink:href="#b1r5zbOEQB" opacity="1" fill-opacity="0" stroke="#000000" stroke-width="1" stroke-opacity="1"></use></g></g><g><use xlink:href="#bQsTz6I6K" opacity="1" fill="#ffffff" fill-opacity="1"></use><g><use xlink:href="#bQsTz6I6K" opacity="1" fill-opacity="0" stroke="#000000" stroke-width="1" stroke-opacity="1"></use></g></g></g></g></svg>