<?xml version="1.0" encoding="UTF-8" standalone="no"?>
<!DOCTYPE svg PUBLIC "-//W3C//DTD SVG 1.1//EN" "http://www.w3.org/Graphics/SVG/1.1/DTD/svg11.dtd">
<svg version="1.1" xmlns="http://www.w3.org/2000/svg" xmlns:xlink="http://www.w3.org/1999/xlink" preserveAspectRatio="xMidYMid meet" viewBox="0 0 400 400" width="400" height="400"><defs><path d="M62.12 310.25L231.62 338.75L231.62 61.25L62.12 90.25L62.12 310.25Z" id="cW2EjcmjL"></path><path d="M187.87 142.75L187.87 163.75L157.37 167.75L157.37 251.25L134.87 249.25L134.87 169.08L105.87 171.8L105.87 153.75L187.87 142.75Z" id="b9H2leu8nj"></path><path d="M274.35 102.86L275.62 103.11L276.87 103.41L278.09 103.77L279.3 104.18L280.48 104.63L281.63 105.13L282.76 105.68L283.86 106.28L284.92 106.92L285.96 107.6L286.97 108.32L287.94 109.08L288.88 109.88L289.78 110.72L290.64 111.59L291.47 112.5L292.25 113.45L293 114.42L293.7 115.43L294.36 116.47L294.97 117.53L295.53 118.63L296.05 119.75L296.52 120.89L296.94 122.06L297.31 123.25L297.62 124.46L297.88 125.69L298.09 126.94L298.23 128.21L298.32 129.5L298.35 130.8L298.32 132.09L298.23 133.38L298.09 134.65L297.88 135.9L297.62 137.13L297.31 138.34L296.94 139.53L296.52 140.7L296.05 141.84L295.53 142.96L294.97 144.06L294.36 145.12L293.7 146.16L293 147.17L292.25 148.14L291.47 149.09L290.64 150L289.78 150.87L288.88 151.71L287.94 152.51L286.97 153.27L285.96 153.99L284.92 154.67L283.86 155.31L282.76 155.91L281.63 156.46L280.48 156.96L279.3 157.41L278.09 157.82L276.87 158.18L275.62 158.48L274.35 158.73L273.06 158.93L271.75 159.07L270.43 159.16L269.09 159.19L267.75 159.16L266.43 159.07L265.12 158.93L263.83 158.73L262.56 158.48L261.32 158.18L260.09 157.82L258.88 157.41L257.7 156.96L256.55 156.46L255.42 155.91L254.33 155.31L253.26 154.67L252.22 153.99L251.21 153.27L250.24 152.51L249.3 151.71L248.4 150.87L247.54 150L246.71 149.09L246.7 149.07L246.7 112.52L246.71 112.5L247.54 111.59L248.4 110.72L249.3 109.88L250.24 109.08L251.21 108.32L252.22 107.6L253.26 106.92L254.33 106.28L255.42 105.68L256.55 105.13L257.7 104.63L258.88 104.18L260.09 103.77L261.32 103.41L262.56 103.11L263.83 102.86L265.12 102.66L266.43 102.52L267.75 102.43L269.09 102.4L270.43 102.43L271.75 102.52L273.06 102.66L273.06 102.66L274.35 102.86Z" id="d237eo0jj0"></path><path d="M364.39 147.74C364.39 161.02 352.97 171.8 338.89 171.8C324.81 171.8 313.38 161.02 313.38 147.74C313.38 134.46 324.81 123.68 338.89 123.68C352.97 123.68 364.39 134.46 364.39 147.74Z" id="cGjVwo3x3"></path><path d="M246.7 289.47C261.07 289.47 270.05 289.47 273.64 289.47C287.29 289.47 298.35 278.4 298.35 264.75C298.35 252.36 298.35 221.37 298.35 171.8L246.7 171.8L246.7 289.47Z" id="f2bDvTSyiu"></path><path d="M313.38 268.66C327.19 268.66 335.82 268.66 339.27 268.66C353.15 268.66 364.39 257.41 364.39 243.53C364.39 236.79 364.39 219.92 364.39 192.93L313.38 192.93L313.38 268.66Z" id="a18Mn3NpAV"></path></defs><g><g><g><use xlink:href="#cW2EjcmjL" opacity="1" fill="#ffffff" fill-opacity="1"></use><g><use xlink:href="#cW2EjcmjL" opacity="1" fill-opacity="0" stroke="#000000" stroke-width="1" stroke-opacity="1"></use></g></g><g><use xlink:href="#b9H2leu8nj" opacity="1" fill="#000000" fill-opacity="1"></use><g><use xlink:href="#b9H2leu8nj" opacity="1" fill-opacity="0" stroke="#000000" stroke-width="1" stroke-opacity="1"></use></g></g><g><use xlink:href="#d237eo0jj0" opacity="1" fill="#ffffff" fill-opacity="1"></use><g><use xlink:href="#d237eo0jj0" opacity="1" fill-opacity="0" stroke="#000000" stroke-width="1" stroke-opacity="1"></use></g></g><g><use xlink:href="#cGjVwo3x3" opacity="1" fill="#ffffff" fill-opacity="1"></use><g><use xlink:href="#cGjVwo3x3" opacity="1" fill-opacity="0" stroke="#000000" stroke-width="1" stroke-opacity="1"></use></g></g><g><use xlink:href="#f2bDvTSyiu" opacity="1" fill="#ffffff" fill-opacity="1"></use><g><use xlink:href="#f2bDvTSyiu" opacity="1" fill-opacity="0" stroke="#000000" stroke-width="1" stroke-opacity="1"></use></g></g><g><use xlink:href="#a18Mn3NpAV" opacity="1" fill="#ffffff" fill-opacity="1"></use><g><use xlink:href="#a18Mn3NpAV" opacity="1" fill-opacity="0" stroke="#000000" stroke-width="1" stroke-opacity="1"></use></g></g></g></g></svg>