<?xml version="1.0" encoding="UTF-8" standalone="no"?>
<!DOCTYPE svg PUBLIC "-//W3C//DTD SVG 1.1//EN" "http://www.w3.org/Graphics/SVG/1.1/DTD/svg11.dtd">
<svg version="1.1" xmlns="http://www.w3.org/2000/svg" xmlns:xlink="http://www.w3.org/1999/xlink" preserveAspectRatio="xMidYMid meet" viewBox="0 0 400 400" width="400" height="400"><defs><path d="M72.29 91.16C120.65 141.4 150.87 172.8 162.96 185.36C170.63 193.33 170.53 205.97 162.73 213.81C150.67 225.95 120.53 256.29 72.29 304.83C72.29 304.83 72.29 304.83 72.29 304.83C52.09 310.51 36.3 287.18 49.08 270.53C49.08 270.53 49.08 270.53 49.08 270.53L122.04 199.7L44.93 122.88C44.93 122.87 44.93 122.87 44.93 122.87C34.72 104.71 52.83 83.72 72.29 91.16C72.29 91.16 72.29 91.16 72.29 91.16Z" id="d2wZwaKSO"></path><path d="M211.82 310.38L366.03 310.38C368.12 309.55 369.43 309.04 369.96 308.83C386.7 302.24 385.73 278.21 368.5 272.99C368.17 272.89 367.35 272.64 366.03 272.24L211.82 272.24C210.9 272.51 210.33 272.68 210.1 272.74C192.35 277.89 191.38 302.68 208.67 309.19C209.09 309.35 210.14 309.75 211.82 310.38Z" id="anzML22CL"></path></defs><g><g><g><use xlink:href="#d2wZwaKSO" opacity="1" fill="#ffffff" fill-opacity="1"></use><g><use xlink:href="#d2wZwaKSO" opacity="1" fill-opacity="0" stroke="#000000" stroke-width="1" stroke-opacity="1"></use></g></g><g><use xlink:href="#anzML22CL" opacity="1" fill="#ffffff" fill-opacity="1"></use><g><use xlink:href="#anzML22CL" opacity="1" fill-opacity="0" stroke="#000000" stroke-width="1" stroke-opacity="1"></use></g></g></g></g></svg>