<?xml version="1.0" encoding="UTF-8" standalone="no"?>
<!DOCTYPE svg PUBLIC "-//W3C//DTD SVG 1.1//EN" "http://www.w3.org/Graphics/SVG/1.1/DTD/svg11.dtd">
<svg version="1.1" xmlns="http://www.w3.org/2000/svg" xmlns:xlink="http://www.w3.org/1999/xlink" preserveAspectRatio="xMidYMid meet" viewBox="0 0 400 400" width="400" height="400"><defs><path d="M358.15 200C358.15 286.73 287.73 357.14 201.01 357.14C114.28 357.14 43.87 286.73 43.87 200C43.87 113.27 114.28 42.86 201.01 42.86C287.73 42.86 358.15 113.27 358.15 200Z" id="bYsqMuON1"></path><path d="M315.4 200C315.4 263.14 264.14 314.4 201.01 314.4C137.87 314.4 86.61 263.14 86.61 200C86.61 136.86 137.87 85.6 201.01 85.6C264.14 85.6 315.4 136.86 315.4 200Z" id="a2UkfYYZ75"></path><path d="M86.61 334.98L139.94 275.21L97.72 218.72L33.53 228.08L86.61 334.98Z" id="b44tYVQEd"></path><path d="M115.1 200L66.29 257.51L18.15 200L115.1 200Z" id="f1XFrUVWv9"></path><path d="M190.77 210.01L240.95 251.9L253.2 235.36L212.41 201.26L212.41 115.67L190.77 115.67L190.77 210.01Z" id="c1Vi2a7dh9"></path></defs><g><g><g><use xlink:href="#bYsqMuON1" opacity="1" fill="#ffffff" fill-opacity="1"></use></g><g><use xlink:href="#a2UkfYYZ75" opacity="1" fill="#000000" fill-opacity="1"></use></g><g><use xlink:href="#b44tYVQEd" opacity="1" fill="#000000" fill-opacity="1"></use></g><g><use xlink:href="#f1XFrUVWv9" opacity="1" fill="#ffffff" fill-opacity="1"></use></g><g><use xlink:href="#c1Vi2a7dh9" opacity="1" fill="#ffffff" fill-opacity="1"></use></g></g></g></svg>