<?xml version="1.0" encoding="UTF-8" standalone="no"?>
<!DOCTYPE svg PUBLIC "-//W3C//DTD SVG 1.1//EN" "http://www.w3.org/Graphics/SVG/1.1/DTD/svg11.dtd">
<svg version="1.1" xmlns="http://www.w3.org/2000/svg" xmlns:xlink="http://www.w3.org/1999/xlink" preserveAspectRatio="xMidYMid meet" viewBox="0 0 400 400" width="400" height="400"><defs><path d="M272.09 364.37C282.26 364.37 290.97 357.08 292.77 347.07C300.81 302.2 321.55 186.59 329.52 142.15C331.33 132.04 323.56 122.74 313.28 122.74C264.12 122.74 134.25 122.74 84.57 122.74C75.65 122.74 68.9 130.8 70.45 139.58C78.43 184.54 99.68 304.32 107.73 349.72C109.24 358.19 116.6 364.37 125.21 364.37C158.1 364.37 239.74 364.37 272.09 364.37Z" id="dkdRRTiQF"></path><path d="M203.33 38.01C199.97 32.59 192.7 31.2 187.58 35C168.35 49.23 132.08 76.09 115.82 88.13C108.07 93.87 112.13 106.18 121.78 106.18C146.55 106.18 209.72 106.18 239.29 106.18C242.06 106.18 243.75 103.15 242.29 100.8C233.25 86.23 211.79 51.65 203.33 38.01Z" id="aaSavROCS"></path><path d="M298.83 88.58C303.87 96.1 298.48 106.18 289.44 106.18C286.22 106.18 278.19 106.18 265.34 106.18L232.41 55.25C243.35 46.84 250.19 41.57 252.93 39.47C257.58 35.89 264.29 36.99 267.56 41.87C276.17 54.73 291.37 77.44 298.83 88.58Z" id="aYIsBPuLX"></path></defs><g><g><g><use xlink:href="#dkdRRTiQF" opacity="1" fill="#ffffff" fill-opacity="1"></use><g><use xlink:href="#dkdRRTiQF" opacity="1" fill-opacity="0" stroke="#000000" stroke-width="1" stroke-opacity="1"></use></g></g><g><use xlink:href="#aaSavROCS" opacity="1" fill="#ffffff" fill-opacity="1"></use><g><use xlink:href="#aaSavROCS" opacity="1" fill-opacity="0" stroke="#000000" stroke-width="1" stroke-opacity="1"></use></g></g><g><use xlink:href="#aYIsBPuLX" opacity="1" fill="#ffffff" fill-opacity="1"></use><g><use xlink:href="#aYIsBPuLX" opacity="1" fill-opacity="0" stroke="#000000" stroke-width="1" stroke-opacity="1"></use></g></g></g></g></svg>