<?xml version="1.0" encoding="UTF-8" standalone="no"?>
<!DOCTYPE svg PUBLIC "-//W3C//DTD SVG 1.1//EN" "http://www.w3.org/Graphics/SVG/1.1/DTD/svg11.dtd">
<svg version="1.1" xmlns="http://www.w3.org/2000/svg" xmlns:xlink="http://www.w3.org/1999/xlink" preserveAspectRatio="xMidYMid meet" viewBox="0 0 400 400" width="400" height="400"><defs><path d="M86.06 106.18L316.59 106.18C316.83 106.08 316.98 106.01 317.04 105.99C331.39 99.87 331.39 79.54 317.04 73.42C316.98 73.4 316.83 73.33 316.59 73.23L245.36 73.23C245.36 58.26 245.36 48.91 245.36 45.17C245.36 40.58 241.64 36.86 237.05 36.86C220.65 36.86 178.96 36.86 162.36 36.86C158.32 36.86 155.04 40.14 155.04 44.19C155.04 48.06 155.04 57.74 155.04 73.23L86.06 73.23C83.86 74.2 82.48 74.81 81.93 75.05C69.19 80.67 69.19 98.74 81.93 104.36C82.48 104.6 83.86 105.21 86.06 106.18Z" id="cQOfTy9WA"></path><path d="M174.66 72.6L225.51 72.6C225.51 65.2 225.51 60.59 225.51 58.74C225.51 57.15 224.22 55.86 222.64 55.86C213.04 55.86 186.92 55.86 177.27 55.86C175.83 55.86 174.66 57.03 174.66 58.47C174.66 60.35 174.66 65.06 174.66 72.6Z" id="e27Ehovho6"></path><path d="M274 363.14C284.59 363.14 293.64 355.51 295.44 345.07C303.05 300.94 322.25 189.48 329.73 146.06C331.68 134.74 322.96 124.4 311.48 124.4C262.53 124.4 135.82 124.4 86.41 124.4C76.16 124.4 68.42 133.69 70.27 143.77C78.33 187.64 99.41 302.54 107.58 347.08C109.29 356.38 117.4 363.14 126.86 363.14C159.96 363.14 241.3 363.14 274 363.14Z" id="bx1vQMZ0u"></path></defs><g><g><g><use xlink:href="#cQOfTy9WA" opacity="1" fill="#ffffff" fill-opacity="1"></use><g><use xlink:href="#cQOfTy9WA" opacity="1" fill-opacity="0" stroke="#000000" stroke-width="1" stroke-opacity="1"></use></g></g><g><use xlink:href="#e27Ehovho6" opacity="1" fill="#000000" fill-opacity="1"></use><g><use xlink:href="#e27Ehovho6" opacity="1" fill-opacity="0" stroke="#000000" stroke-width="1" stroke-opacity="1"></use></g></g><g><use xlink:href="#bx1vQMZ0u" opacity="1" fill="#ffffff" fill-opacity="1"></use><g><use xlink:href="#bx1vQMZ0u" opacity="1" fill-opacity="0" stroke="#000000" stroke-width="1" stroke-opacity="1"></use></g></g></g></g></svg>