<?xml version="1.0" encoding="UTF-8" standalone="no"?>
<!DOCTYPE svg PUBLIC "-//W3C//DTD SVG 1.1//EN" "http://www.w3.org/Graphics/SVG/1.1/DTD/svg11.dtd">
<svg version="1.1" xmlns="http://www.w3.org/2000/svg" xmlns:xlink="http://www.w3.org/1999/xlink" preserveAspectRatio="xMidYMid meet" viewBox="0 0 400 400" width="400" height="400"><defs><path d="M168.85 391.79C178.71 395.99 189.59 397.17 200.12 395.2C205.09 394.27 205.6 394.17 211.01 393.16C218.13 391.82 222.13 384.17 219.15 377.56C211.6 360.79 192.94 319.35 184.93 301.55C183.24 297.8 185.86 293.53 189.97 293.34C207.36 292.52 222.44 291.81 232.7 291.33C260.08 290.04 284.71 274.31 297.38 250C299.57 245.8 298.4 248.04 303.77 237.74C306.05 233.37 311.89 232.41 315.45 235.82C320.37 240.53 314.02 234.46 315.45 235.82C331.04 250.77 352.42 258.09 373.91 255.86C374.65 255.78 376.51 255.59 379.48 255.28C379.48 255.28 379.48 255.28 379.48 255.28C391.11 252.05 396.48 238.65 390.32 228.28C390.07 227.87 389.45 226.82 388.46 225.15C387.96 225.15 387.65 225.15 387.52 225.15C370.71 225.15 354.81 217.45 344.39 204.24C342.79 202.21 347.69 208.43 344.39 204.24C339.06 197.48 334.57 190.09 331.02 182.23C322.34 163 300.61 114.84 291.68 95.04C289.34 89.85 283.59 87.1 278.09 88.54C271.15 90.35 258.9 93.54 251.71 95.42C247.36 96.55 245.07 101.33 246.91 105.44C256.21 126.17 275.14 168.42 283.08 186.13C289.52 200.49 288.32 217.12 279.88 230.4C275.35 237.54 279.91 230.36 276.54 235.67C264.73 254.26 243.3 264.44 221.42 261.85C212.48 260.79 228.58 262.7 221.42 261.85C193.68 258.57 169.66 241.03 158.09 215.6C151.94 202.08 136.57 168.3 111.99 114.26C111.85 114.22 111.76 114.2 111.73 114.2C92.63 109.82 72.59 115.11 58.14 128.36C58.14 128.36 58.14 128.36 58.14 128.36C106.99 259.55 137.52 341.55 149.73 374.35C152.36 381.41 157.77 387.08 164.7 390.03C168.55 391.67 165.85 390.52 168.85 391.79Z" id="g4lVmSZUhM"></path></defs><g><g><g><use xlink:href="#g4lVmSZUhM" opacity="1" fill="#ffffff" fill-opacity="1"></use><g><use xlink:href="#g4lVmSZUhM" opacity="1" fill-opacity="0" stroke="#000000" stroke-width="1" stroke-opacity="1"></use></g></g></g></g></svg>