<?xml version="1.0" encoding="UTF-8" standalone="no"?>
<!DOCTYPE svg PUBLIC "-//W3C//DTD SVG 1.1//EN" "http://www.w3.org/Graphics/SVG/1.1/DTD/svg11.dtd">
<svg version="1.1" xmlns="http://www.w3.org/2000/svg" xmlns:xlink="http://www.w3.org/1999/xlink" preserveAspectRatio="xMidYMid meet" viewBox="0 0 400 400" width="400" height="400"><defs><path d="M107.02 287.52L294.36 287.52C253.32 169.04 227.66 94.99 217.4 65.36C216.47 62.67 213.93 60.87 211.08 60.87C205.7 60.87 196.08 60.87 191.14 60.87C186.97 60.87 183.25 63.52 181.91 67.48C171.92 96.82 146.96 170.17 107.02 287.52Z" id="a1x23xqxK4"></path><path d="M328.79 307.45C332.22 307.45 335 310.23 335 313.66C335 318.76 335 327.83 335 332.92C335 336.35 332.22 339.14 328.79 339.14C276.03 339.14 122.35 339.14 69.18 339.14C66.87 339.14 65 337.26 65 334.95C65 329.45 65 319.49 65 314.58C65 310.64 68.19 307.45 72.13 307.45C124.71 307.45 276.03 307.45 328.79 307.45Z" id="flU9HW00z"></path></defs><g><g><g><use xlink:href="#a1x23xqxK4" opacity="1" fill="#ffffff" fill-opacity="1"></use><g><use xlink:href="#a1x23xqxK4" opacity="1" fill-opacity="0" stroke="#000000" stroke-width="1" stroke-opacity="1"></use></g></g><g><use xlink:href="#flU9HW00z" opacity="1" fill="#ffffff" fill-opacity="1"></use><g><use xlink:href="#flU9HW00z" opacity="1" fill-opacity="0" stroke="#000000" stroke-width="1" stroke-opacity="1"></use></g></g></g></g></svg>