<?xml version="1.0" encoding="UTF-8" standalone="no"?>
<!DOCTYPE svg PUBLIC "-//W3C//DTD SVG 1.1//EN" "http://www.w3.org/Graphics/SVG/1.1/DTD/svg11.dtd">
<svg version="1.1" xmlns="http://www.w3.org/2000/svg" xmlns:xlink="http://www.w3.org/1999/xlink" preserveAspectRatio="xMidYMid meet" viewBox="0 0 400 400" width="400" height="400"><defs><path d="M67.83 306.94C67.83 306.94 67.83 306.94 67.83 306.94C88.08 274.43 123.75 254.78 162.05 255.02C185.22 255.17 195.29 255.24 219.01 255.39C255.56 255.62 289.32 274.96 308.02 306.37C308.02 306.37 308.02 306.37 308.02 306.37L308.02 341.67L67.83 341.67L67.83 306.94Z" id="admrrlMGT"></path><path d="M247.01 164.08C247.01 196.69 220.53 223.16 187.92 223.16C155.32 223.16 128.84 196.69 128.84 164.08C128.84 131.47 155.32 104.99 187.92 104.99C220.53 104.99 247.01 131.47 247.01 164.08Z" id="bNs7j5d2W"></path><path d="M278.49 193.63L303.43 218.54C303.43 218.54 303.43 218.54 303.43 218.54C336.31 189.56 336.31 138.31 303.43 109.34C303.43 109.34 303.43 109.34 303.43 109.34L278.49 134.36C278.49 134.36 278.49 134.36 278.49 134.36C290.61 152.26 290.61 175.73 278.49 193.63C278.49 193.63 278.49 193.63 278.49 193.63Z" id="g1OdHKZ4aJ"></path><path d="M328.09 244.06L354.12 269.44C354.19 269.37 354.23 269.33 354.24 269.31C412.41 211.13 412.35 116.8 354.12 58.69C354.12 58.69 354.12 58.69 354.12 58.69L328.09 84.51C328.84 85.37 329.31 85.91 329.5 86.12C368.49 130.74 368.63 197.26 329.84 242.05C329.6 242.32 329.02 242.99 328.09 244.06Z" id="bj643toxn"></path></defs><g><g><g><use xlink:href="#admrrlMGT" opacity="1" fill="#ffffff" fill-opacity="1"></use><g><use xlink:href="#admrrlMGT" opacity="1" fill-opacity="0" stroke="#000000" stroke-width="1" stroke-opacity="1"></use></g></g><g><use xlink:href="#bNs7j5d2W" opacity="1" fill="#ffffff" fill-opacity="1"></use><g><use xlink:href="#bNs7j5d2W" opacity="1" fill-opacity="0" stroke="#000000" stroke-width="1" stroke-opacity="1"></use></g></g><g><use xlink:href="#g1OdHKZ4aJ" opacity="1" fill="#ffffff" fill-opacity="1"></use><g><use xlink:href="#g1OdHKZ4aJ" opacity="1" fill-opacity="0" stroke="#000000" stroke-width="1" stroke-opacity="1"></use></g></g><g><use xlink:href="#bj643toxn" opacity="1" fill="#ffffff" fill-opacity="1"></use><g><use xlink:href="#bj643toxn" opacity="1" fill-opacity="0" stroke="#000000" stroke-width="1" stroke-opacity="1"></use></g></g></g></g></svg>