<?xml version="1.0" encoding="UTF-8" standalone="no"?>
<!DOCTYPE svg PUBLIC "-//W3C//DTD SVG 1.1//EN" "http://www.w3.org/Graphics/SVG/1.1/DTD/svg11.dtd">
<svg version="1.1" xmlns="http://www.w3.org/2000/svg" xmlns:xlink="http://www.w3.org/1999/xlink" preserveAspectRatio="xMidYMid meet" viewBox="0 0 400 400" width="400" height="400"><defs><path d="M45.95 169.54C54.64 169.54 61.69 176.59 61.69 185.28C61.69 194.22 61.69 205.31 61.69 214.25C61.69 222.94 54.64 229.99 45.95 229.99C42.12 229.99 46.38 229.99 42.55 229.99C33.86 229.99 26.81 222.94 26.81 214.25C26.81 205.31 26.81 194.22 26.81 185.28C26.81 176.59 33.86 169.54 42.55 169.54C46.38 169.54 42.12 169.54 45.95 169.54Z" id="d2FLvCXGxa"></path><path d="M104.8 92.52C114.44 92.52 122.24 100.33 122.24 109.96C122.24 149.36 122.24 250.13 122.24 289.53C122.24 299.17 114.44 306.98 104.8 306.98C101.31 306.98 108.29 306.98 104.8 306.98C95.17 306.98 87.36 299.17 87.36 289.53C87.36 250.13 87.36 149.36 87.36 109.96C87.36 100.33 95.17 92.52 104.8 92.52C108.29 92.52 101.31 92.52 104.8 92.52Z" id="e2Bck1Vct9"></path><path d="M165.91 126.35C175.54 126.35 183.35 134.16 183.35 143.79C183.35 169.39 183.35 228.74 183.35 254.34C183.35 263.98 175.54 271.78 165.91 271.78C162.42 271.78 169.4 271.78 165.91 271.78C156.28 271.78 148.47 263.98 148.47 254.34C148.47 228.74 148.47 169.39 148.47 143.79C148.47 134.16 156.28 126.35 165.91 126.35C169.4 126.35 162.42 126.35 165.91 126.35Z" id="be6w86yC4"></path><path d="M227.06 47.59C236.69 47.59 244.5 55.4 244.5 65.03C244.5 122.51 244.5 277.49 244.5 334.97C244.5 344.6 236.69 352.41 227.06 352.41C223.57 352.41 230.55 352.41 227.06 352.41C217.43 352.41 209.62 344.6 209.62 334.97C209.62 277.49 209.62 122.51 209.62 65.03C209.62 55.4 217.43 47.59 227.06 47.59C230.55 47.59 223.57 47.59 227.06 47.59Z" id="b2Zy1WnFUE"></path><path d="M287.75 138.57C297.38 138.57 305.19 146.38 305.19 156.01C305.19 176.81 305.19 221.75 305.19 242.55C305.19 252.18 297.38 259.99 287.75 259.99C284.26 259.99 291.23 259.99 287.75 259.99C278.11 259.99 270.3 252.18 270.3 242.55C270.3 221.75 270.3 176.81 270.3 156.01C270.3 146.38 278.11 138.57 287.75 138.57C291.23 138.57 284.26 138.57 287.75 138.57Z" id="auKGFGvWH"></path><path d="M351.07 169.54C359.76 169.54 366.81 176.59 366.81 185.28C366.81 194.22 366.81 205.31 366.81 214.25C366.81 222.94 359.76 229.99 351.07 229.99C347.24 229.99 351.49 229.99 347.67 229.99C338.97 229.99 331.93 222.94 331.93 214.25C331.93 205.31 331.93 194.22 331.93 185.28C331.93 176.59 338.97 169.54 347.67 169.54C351.49 169.54 347.24 169.54 351.07 169.54Z" id="atUnfoHxK"></path></defs><g><g><g><use xlink:href="#d2FLvCXGxa" opacity="1" fill="#ffffff" fill-opacity="1"></use><g><use xlink:href="#d2FLvCXGxa" opacity="1" fill-opacity="0" stroke="#000000" stroke-width="1" stroke-opacity="1"></use></g></g><g><use xlink:href="#e2Bck1Vct9" opacity="1" fill="#ffffff" fill-opacity="1"></use><g><use xlink:href="#e2Bck1Vct9" opacity="1" fill-opacity="0" stroke="#000000" stroke-width="1" stroke-opacity="1"></use></g></g><g><use xlink:href="#be6w86yC4" opacity="1" fill="#ffffff" fill-opacity="1"></use><g><use xlink:href="#be6w86yC4" opacity="1" fill-opacity="0" stroke="#000000" stroke-width="1" stroke-opacity="1"></use></g></g><g><use xlink:href="#b2Zy1WnFUE" opacity="1" fill="#ffffff" fill-opacity="1"></use><g><use xlink:href="#b2Zy1WnFUE" opacity="1" fill-opacity="0" stroke="#000000" stroke-width="1" stroke-opacity="1"></use></g></g><g><use xlink:href="#auKGFGvWH" opacity="1" fill="#ffffff" fill-opacity="1"></use><g><use xlink:href="#auKGFGvWH" opacity="1" fill-opacity="0" stroke="#000000" stroke-width="1" stroke-opacity="1"></use></g></g><g><use xlink:href="#atUnfoHxK" opacity="1" fill="#ffffff" fill-opacity="1"></use><g><use xlink:href="#atUnfoHxK" opacity="1" fill-opacity="0" stroke="#000000" stroke-width="1" stroke-opacity="1"></use></g></g></g></g></svg>