<?xml version="1.0" encoding="UTF-8" standalone="no"?>
<!DOCTYPE svg PUBLIC "-//W3C//DTD SVG 1.1//EN" "http://www.w3.org/Graphics/SVG/1.1/DTD/svg11.dtd">
<svg version="1.1" xmlns="http://www.w3.org/2000/svg" xmlns:xlink="http://www.w3.org/1999/xlink" preserveAspectRatio="xMidYMid meet" viewBox="0 0 400 400" width="400" height="400"><defs><path d="M15.88 258.19C54.09 258.19 77.98 258.19 87.53 258.19C93.03 258.19 98.18 255.47 101.29 250.94C104.3 246.55 111.83 235.58 123.86 218.03L148.19 278.78C150.02 280.71 151.15 281.92 151.61 282.4C158.07 289.24 168.75 289.87 175.96 283.83C176.77 283.16 178.78 281.47 182 278.78L227.62 138.18L275.76 310.85C278.93 313.6 280.91 315.32 281.71 316.01C289.07 322.4 300.05 322.28 307.26 315.72C307.98 315.07 309.76 313.45 312.62 310.85L346.97 252.97C369.09 252.97 382.91 252.97 388.44 252.97C388.69 252.97 388.93 252.84 389.07 252.63C391.75 248.53 392.69 247.1 393.65 245.63C398.97 237.48 398.77 226.91 393.13 218.97C392.56 218.17 391.13 216.16 388.85 212.95C359.81 212.95 341.66 212.95 334.4 212.95C329.61 212.95 325.15 215.43 322.63 219.51C320.03 223.71 313.52 234.21 303.12 251.01L253.56 73.29C250.28 70.93 248.24 69.45 247.42 68.85C235.85 60.49 220.02 61.28 209.34 70.75C208.95 71.09 208 71.94 206.47 73.29L165.16 216.15L141.96 168.11C141.61 167.75 141.39 167.53 141.31 167.44C132.53 158.58 118.21 158.56 109.41 167.39C109.31 167.49 109.07 167.73 108.69 168.11L82.2 212.95L15.88 212.95C13.54 215.79 12.07 217.57 11.49 218.28C1.53 230.34 3.39 248.23 15.62 257.98C15.66 258.01 15.74 258.08 15.88 258.19Z" id="a7J7SaRVC"></path></defs><g><g><g><use xlink:href="#a7J7SaRVC" opacity="1" fill="#ffffff" fill-opacity="1"></use><g><use xlink:href="#a7J7SaRVC" opacity="1" fill-opacity="0" stroke="#000000" stroke-width="1" stroke-opacity="1"></use></g></g></g></g></svg>