<?xml version="1.0" encoding="UTF-8" standalone="no"?>
<!DOCTYPE svg PUBLIC "-//W3C//DTD SVG 1.1//EN" "http://www.w3.org/Graphics/SVG/1.1/DTD/svg11.dtd">
<svg version="1.1" xmlns="http://www.w3.org/2000/svg" xmlns:xlink="http://www.w3.org/1999/xlink" preserveAspectRatio="xMidYMid meet" viewBox="0 0 400 400" width="400" height="400"><defs><path d="M25 114.09C25 114.09 25 114.09 25 114.09C128.05 34.36 271.95 34.36 375 114.09C375 114.09 375 114.09 375 114.09L200.74 345.71L25 114.09Z" id="f48MsPN7A0"></path><path d="M80.64 200.69C91.71 193.63 98.63 189.23 101.4 187.47C162.66 148.45 241.06 148.81 301.96 188.37C304.49 190.01 310.81 194.12 320.93 200.69L348.95 160.78C339.02 154.3 332.82 150.25 330.33 148.63C252.16 97.6 151.38 96.97 72.58 147.03C69.69 148.86 62.47 153.44 50.92 160.78L80.64 200.69Z" id="o2hX6vfqiK"></path><path d="M144.75 283.05C146.94 281.42 148.3 280.4 148.85 279.99C179.05 257.52 220.3 257.07 250.98 278.89C251.76 279.44 253.71 280.83 256.83 283.05L286.54 245.69C280.09 241.35 276.06 238.63 274.45 237.55C229.18 207.08 169.93 207.21 124.8 237.89C123.27 238.93 119.45 241.53 113.33 245.69L144.75 283.05Z" id="b8asbCdFj4"></path></defs><g><g><g><use xlink:href="#f48MsPN7A0" opacity="1" fill="#ffffff" fill-opacity="1"></use><g><use xlink:href="#f48MsPN7A0" opacity="1" fill-opacity="0" stroke="#000000" stroke-width="1" stroke-opacity="1"></use></g></g><g><use xlink:href="#o2hX6vfqiK" opacity="1" fill="#000000" fill-opacity="1"></use><g><use xlink:href="#o2hX6vfqiK" opacity="1" fill-opacity="0" stroke="#000000" stroke-width="1" stroke-opacity="1"></use></g></g><g><use xlink:href="#b8asbCdFj4" opacity="1" fill="#000000" fill-opacity="1"></use><g><use xlink:href="#b8asbCdFj4" opacity="1" fill-opacity="0" stroke="#000000" stroke-width="1" stroke-opacity="1"></use></g></g></g></g></svg>