<?xml version="1.0" encoding="UTF-8" standalone="no"?>
<!DOCTYPE svg PUBLIC "-//W3C//DTD SVG 1.1//EN" "http://www.w3.org/Graphics/SVG/1.1/DTD/svg11.dtd">
<svg version="1.1" xmlns="http://www.w3.org/2000/svg" xmlns:xlink="http://www.w3.org/1999/xlink" preserveAspectRatio="xMidYMid meet" viewBox="0 0 400 400" width="400" height="400"><defs><path d="M360.91 99.03C360.91 131.11 334.87 157.15 302.79 157.15C270.71 157.15 244.67 131.11 244.67 99.03C244.67 66.95 270.71 40.91 302.79 40.91C334.87 40.91 360.91 66.95 360.91 99.03Z" id="c2N6IuZuhx"></path><path d="M365 71.34L324.01 113.28L288.74 110.31L288.74 71.34L326.87 35.12L365 71.34Z" id="e2r4P9NjyQ"></path><path d="M161.9 266.62L265.19 163.13C264.44 162.7 263.97 162.44 263.78 162.33C252.32 155.86 242.89 146.33 236.53 134.81C236.19 134.18 235.32 132.6 233.93 130.09L126.65 235.12C130.17 236.88 132.37 237.98 133.25 238.42C142.7 243.16 150.79 250.25 156.73 259C157.42 260.02 159.14 262.56 161.9 266.62Z" id="b1XPdfUK6"></path><path d="M39.14 301.38L39.28 299.01L39.52 296.67L39.85 294.35L40.27 292.07L40.78 289.81L41.38 287.59L42.05 285.41L42.82 283.26L43.66 281.16L44.58 279.09L45.58 277.07L46.66 275.1L47.8 273.17L49.02 271.29L50.31 269.46L51.67 267.68L53.09 265.96L54.57 264.29L56.12 262.68L57.73 261.14L59.39 259.65L61.12 258.23L62.89 256.87L64.72 255.58L66.6 254.37L68.53 253.22L70.51 252.14L72.53 251.15L74.6 250.22L76.7 249.38L78.85 248.62L81.03 247.94L83.25 247.34L85.5 246.83L87.79 246.41L90.1 246.08L92.45 245.85L94.82 245.7L97.21 245.65L99.6 245.7L101.97 245.85L104.32 246.08L106.63 246.41L108.92 246.83L111.17 247.34L113.39 247.94L115.57 248.62L117.72 249.38L119.82 250.22L121.89 251.15L123.91 252.14L125.89 253.22L127.82 254.37L129.7 255.58L131.53 256.87L133.3 258.23L135.03 259.65L136.69 261.14L138.3 262.68L139.85 264.29L141.33 265.96L142.76 267.68L144.11 269.46L145.4 271.29L146.62 273.17L147.77 275.1L148.84 277.07L149.84 279.09L150.76 281.16L151.6 283.26L152.37 285.41L153.05 287.59L153.64 289.81L154.15 292.07L154.57 294.35L154.9 296.67L155.14 299.01L155.28 301.38L155.33 303.77L155.28 306.17L155.14 308.54L154.9 310.88L154.57 313.19L154.15 315.48L153.64 317.73L153.05 319.95L152.37 322.13L151.6 324.28L150.76 326.39L149.84 328.45L148.84 330.47L147.77 332.45L146.62 334.38L145.4 336.26L144.11 338.09L142.76 339.86L141.33 341.59L139.85 343.25L138.3 344.86L136.69 346.41L135.03 347.89L133.3 349.32L131.53 350.67L129.7 351.96L127.82 353.18L125.89 354.33L123.91 355.4L121.89 356.4L119.82 357.32L117.72 358.16L115.57 358.93L113.39 359.61L111.17 360.2L108.92 360.71L106.63 361.13L104.32 361.46L101.97 361.7L99.6 361.84L97.21 361.89L94.82 361.84L92.45 361.7L90.1 361.46L87.79 361.13L85.5 360.71L83.25 360.2L81.03 359.61L78.85 358.93L76.7 358.16L74.6 357.32L72.53 356.4L70.51 355.4L68.53 354.33L66.6 353.18L64.72 351.96L62.89 350.67L61.12 349.32L59.39 347.89L57.73 346.41L56.12 344.86L54.57 343.25L53.09 341.59L51.67 339.86L50.31 338.09L49.02 336.26L47.8 334.38L46.66 332.45L45.58 330.47L44.58 328.45L43.66 326.39L42.82 324.28L42.05 322.13L41.38 319.95L40.78 317.73L40.27 315.48L39.85 313.19L39.52 310.88L39.28 308.54L39.14 306.17L39.09 303.77L39.09 303.77L39.14 301.38Z" id="c3AOmSwaEp"></path><path d="M35 328.66L75.99 286.72L111.26 286.72L111.26 328.66L73.13 364.89L35 328.66Z" id="b822CRCsi"></path></defs><g><g><g><use xlink:href="#c2N6IuZuhx" opacity="1" fill="#ffffff" fill-opacity="1"></use><g><use xlink:href="#c2N6IuZuhx" opacity="1" fill-opacity="0" stroke="#000000" stroke-width="1" stroke-opacity="1"></use></g></g><g><use xlink:href="#e2r4P9NjyQ" opacity="1" fill="#000000" fill-opacity="1"></use><g><use xlink:href="#e2r4P9NjyQ" opacity="1" fill-opacity="0" stroke="#000000" stroke-width="1" stroke-opacity="1"></use></g></g><g><use xlink:href="#b1XPdfUK6" opacity="1" fill="#ffffff" fill-opacity="1"></use><g><use xlink:href="#b1XPdfUK6" opacity="1" fill-opacity="0" stroke="#000000" stroke-width="1" stroke-opacity="1"></use></g></g><g><use xlink:href="#c3AOmSwaEp" opacity="1" fill="#ffffff" fill-opacity="1"></use><g><use xlink:href="#c3AOmSwaEp" opacity="1" fill-opacity="0" stroke="#000000" stroke-width="1" stroke-opacity="1"></use></g></g><g><use xlink:href="#b822CRCsi" opacity="1" fill="#000000" fill-opacity="1"></use><g><use xlink:href="#b822CRCsi" opacity="1" fill-opacity="0" stroke="#000000" stroke-width="1" stroke-opacity="1"></use></g></g></g></g></svg>