<?xml version="1.0" encoding="UTF-8" standalone="no"?>
<!DOCTYPE svg PUBLIC "-//W3C//DTD SVG 1.1//EN" "http://www.w3.org/Graphics/SVG/1.1/DTD/svg11.dtd">
<svg version="1.1" xmlns="http://www.w3.org/2000/svg" xmlns:xlink="http://www.w3.org/1999/xlink" preserveAspectRatio="xMidYMid meet" viewBox="0 0 400 400" width="400" height="400"><defs><path d="M116.73 97.82L214.28 97.82L244.41 128.67L311.11 128.67L311.11 93.52L250.15 93.52L227.19 69.85L116.73 69.85C116.31 70.06 116.04 70.19 115.93 70.24C104.23 75.95 104.72 92.79 116.73 97.82C116.73 97.82 116.73 97.82 116.73 97.82Z" id="cy2Pq62"></path><path d="M114.06 285.47L211.61 285.47L241.73 254.63L308.44 254.63L308.44 289.77L247.47 289.77L224.52 313.44L114.06 313.44C113.63 313.24 113.37 313.11 113.26 313.05C101.56 307.34 102.04 290.5 114.06 285.47C114.06 285.47 114.06 285.47 114.06 285.47Z" id="b8VlLaqjn"></path><path d="M192.55 112.02C198.13 112.02 202.65 116.54 202.65 122.12C202.65 151.52 202.65 229.6 202.65 259C202.65 264.58 198.13 269.1 192.55 269.1C165.74 269.1 95.4 269.1 68.59 269.1C63.01 269.1 58.48 264.58 58.48 259C58.48 229.6 58.48 151.52 58.48 122.12C58.48 116.54 63.01 112.02 68.59 112.02C95.4 112.02 165.74 112.02 192.55 112.02Z" id="a43hw9fn2G"></path><path d="M80.72 133.54L182.57 133.54L182.57 249.73L80.72 249.73L80.72 133.54Z" id="fguYk0ct8"></path><path d="M91.06 143.32L173.27 143.32L173.27 193.47L91.06 193.47L91.06 143.32Z" id="b1M3RQhKd0"></path><path d="M91.06 205.31L173.27 205.31L173.27 240.86L91.06 240.86L91.06 205.31Z" id="c7tPzOggm"></path><path d="M257.72 113.42L285.38 113.42L285.38 326.56L257.72 326.56L257.72 113.42Z" id="b3lLbXC4Hx"></path><path d="M203.49 331.44L348.3 331.44L348.3 351.5L203.49 351.5L203.49 331.44Z" id="c1pAvlHMlv"></path><path d="M289.84 187.12C294.93 187.12 299.05 191.24 299.05 196.33C299.05 198.5 299.05 195.8 299.05 197.97C299.05 203.06 294.93 207.18 289.84 207.18C280.51 207.18 261.73 207.18 252.4 207.18C247.32 207.18 243.19 203.06 243.19 197.97C243.19 195.8 243.19 198.5 243.19 196.33C243.19 191.24 247.32 187.12 252.4 187.12C261.73 187.12 280.51 187.12 289.84 187.12Z" id="a2G1SzuSGI"></path><path d="M289.84 149.65C294.93 149.65 299.05 153.77 299.05 158.86C299.05 161.03 299.05 158.33 299.05 160.5C299.05 165.59 294.93 169.71 289.84 169.71C280.51 169.71 261.73 169.71 252.4 169.71C247.32 169.71 243.19 165.59 243.19 160.5C243.19 158.33 243.19 161.03 243.19 158.86C243.19 153.77 247.32 149.65 252.4 149.65C261.73 149.65 280.51 149.65 289.84 149.65Z" id="bMhuyJ61e"></path><path d="M201.32 324.36C206.71 324.36 211.08 328.73 211.08 334.12C211.08 339.32 211.08 345.18 211.08 350.39C211.08 355.78 206.71 360.15 201.32 360.15C199.15 360.15 202.41 360.15 200.24 360.15C194.85 360.15 190.47 355.78 190.47 350.39C190.47 345.18 190.47 339.32 190.47 334.12C190.47 328.73 194.85 324.36 200.24 324.36C202.41 324.36 199.15 324.36 201.32 324.36Z" id="aa1JhU8kP"></path><path d="M289.84 224.05C294.93 224.05 299.05 228.17 299.05 233.26C299.05 235.43 299.05 232.73 299.05 234.9C299.05 239.99 294.93 244.11 289.84 244.11C280.51 244.11 261.73 244.11 252.4 244.11C247.32 244.11 243.19 239.99 243.19 234.9C243.19 232.73 243.19 235.43 243.19 233.26C243.19 228.17 247.32 224.05 252.4 224.05C261.73 224.05 280.51 224.05 289.84 224.05Z" id="brI5KZ18f"></path><path d="M298.08 321.13C303.8 321.13 308.44 325.77 308.44 331.49C308.44 337.01 308.44 343.22 308.44 348.74C308.44 354.46 303.8 359.1 298.08 359.1C285.56 359.1 258.36 359.1 245.84 359.1C240.13 359.1 235.49 354.46 235.49 348.74C235.49 343.22 235.49 337.01 235.49 331.49C235.49 325.77 240.13 321.13 245.84 321.13C258.36 321.13 285.56 321.13 298.08 321.13Z" id="crBsMKAE0"></path><path d="M346.72 324.36C352.11 324.36 356.48 328.73 356.48 334.12C356.48 339.32 356.48 345.18 356.48 350.39C356.48 355.78 352.11 360.15 346.72 360.15C344.55 360.15 347.8 360.15 345.63 360.15C340.24 360.15 335.87 355.78 335.87 350.39C335.87 345.18 335.87 339.32 335.87 334.12C335.87 328.73 340.24 324.36 345.63 324.36C347.8 324.36 344.55 324.36 346.72 324.36Z" id="j21gGwR9x1"></path></defs><g><g><g><use xlink:href="#cy2Pq62" opacity="1" fill="#ffffff" fill-opacity="1"></use></g><g><use xlink:href="#b8VlLaqjn" opacity="1" fill="#ffffff" fill-opacity="1"></use></g><g><use xlink:href="#a43hw9fn2G" opacity="1" fill="#ffffff" fill-opacity="1"></use></g><g><use xlink:href="#fguYk0ct8" opacity="1" fill="#000000" fill-opacity="1"></use></g><g><use xlink:href="#b1M3RQhKd0" opacity="1" fill="#ffffff" fill-opacity="1"></use></g><g><use xlink:href="#c7tPzOggm" opacity="1" fill="#ffffff" fill-opacity="1"></use></g><g><use xlink:href="#b3lLbXC4Hx" opacity="1" fill="#ffffff" fill-opacity="1"></use></g><g><use xlink:href="#c1pAvlHMlv" opacity="1" fill="#ffffff" fill-opacity="1"></use></g><g><use xlink:href="#a2G1SzuSGI" opacity="1" fill="#ffffff" fill-opacity="1"></use></g><g><use xlink:href="#bMhuyJ61e" opacity="1" fill="#ffffff" fill-opacity="1"></use></g><g><use xlink:href="#aa1JhU8kP" opacity="1" fill="#ffffff" fill-opacity="1"></use></g><g><use xlink:href="#brI5KZ18f" opacity="1" fill="#ffffff" fill-opacity="1"></use></g><g><use xlink:href="#crBsMKAE0" opacity="1" fill="#ffffff" fill-opacity="1"></use></g><g><use xlink:href="#j21gGwR9x1" opacity="1" fill="#ffffff" fill-opacity="1"></use></g></g></g></svg>