<?xml version="1.0" encoding="UTF-8" standalone="no"?>
<!DOCTYPE svg PUBLIC "-//W3C//DTD SVG 1.1//EN" "http://www.w3.org/Graphics/SVG/1.1/DTD/svg11.dtd">
<svg version="1.1" xmlns="http://www.w3.org/2000/svg" xmlns:xlink="http://www.w3.org/1999/xlink" preserveAspectRatio="xMidYMid meet" viewBox="0 0 400 400" width="400" height="400"><defs><path d="M258.33 291.78C264.51 291.78 269.52 286.77 269.52 280.59C269.52 246.13 269.52 180.56 269.52 152.75C269.52 128.21 249.62 108.31 225.08 108.31C191.49 108.31 107.2 108.31 66.61 108.31C61.39 108.31 57.15 112.55 57.15 117.78C57.15 152.58 57.15 220.22 57.15 248.2C57.15 272.27 76.66 291.78 100.73 291.78C134.49 291.78 218.1 291.78 258.33 291.78Z" id="bYSYN2CRA"></path><path d="M357.15 288.47C357.15 290.93 354.32 292.31 352.38 290.79C343.45 283.77 321.1 266.24 285.34 238.18L285.34 161.22C319.37 133.55 340.63 116.25 349.13 109.33C352.34 106.72 357.15 109.01 357.15 113.14C357.15 149.42 357.15 251.34 357.15 288.47Z" id="angKpbfUC"></path></defs><g><g><g><use xlink:href="#bYSYN2CRA" opacity="1" fill="#ffffff" fill-opacity="1"></use><g><use xlink:href="#bYSYN2CRA" opacity="1" fill-opacity="0" stroke="#000000" stroke-width="1" stroke-opacity="1"></use></g></g><g><use xlink:href="#angKpbfUC" opacity="1" fill="#ffffff" fill-opacity="1"></use><g><use xlink:href="#angKpbfUC" opacity="1" fill-opacity="0" stroke="#000000" stroke-width="1" stroke-opacity="1"></use></g></g></g></g></svg>